<svg version="1.1" xmlns="http://www.w3.org/2000/svg" xmlns:xlink="http://www.w3.org/1999/xlink" stroke-linecap="round" stroke-linejoin="round" stroke-width="0" fill-rule="evenodd" width="18.09375in" height="5.55469in" viewBox="0 0 18093.75 5554.69" id="yqyFeazifoTvpHZBzRki"><g transform="translate(0,5554.69) scale(1,-1)" fill="currentColor" stroke="currentColor"><path d="M 6296.14 4777.56 6295.29 4787.54 6292.77 4797.23 6288.64 4806.36 6283.03 4814.66 6276.1 4821.89 6268.05 4827.85 6259.11 4832.36 6249.53 4835.29 6239.59 4836.56 6229.59 4836.14 6219.79 4834.03 6210.5 4830.29 6201.97 4825.04 6194.45 4818.42 6188.16 4810.63 6183.27 4801.88 6179.94 4792.44 6178.24 4782.57 6178.24 4772.55 6179.94 4762.68 6183.27 4753.23 6188.16 4744.49 6194.45 4736.7 6201.97 4730.08 6210.5 4724.83 6219.79 4721.09 6229.59 4718.98 6239.59 4718.56 6249.53 4719.83 6259.11 4722.76 6268.05 4727.27 6276.1 4733.23 6283.03 4740.46 6288.64 4748.76 6292.77 4757.89 6295.29 4767.58 6296.14 4777.56 M 5148.18 4015.12 5147.33 4025.1 5144.81 4034.8 5140.68 4043.93 5135.07 4052.23 5128.14 4059.46 5120.09 4065.41 5111.14 4069.92 5101.57 4072.85 5091.63 4074.13 5081.62 4073.7 5071.83 4071.59 5062.54 4067.86 5054.01 4062.6 5046.49 4055.99 5040.2 4048.19 5035.31 4039.45 5031.97 4030.01 5030.28 4020.13 5030.28 4010.12 5031.97 4000.24 5035.31 3990.8 5040.2 3982.06 5046.49 3974.26 5054.01 3967.64 5062.54 3962.39 5071.83 3958.66 5081.62 3956.55 5091.63 3956.12 5101.57 3957.4 5111.14 3960.33 5120.09 3964.84 5128.14 3970.79 5135.07 3978.03 5140.68 3986.32 5144.81 3995.45 5147.33 4005.15 5148.18 4015.12 M 5543.43 2521.13 5542.58 2531.11 5540.06 2540.8 5535.93 2549.93 5530.32 2558.22 5523.39 2565.46 5515.34 2571.41 5506.39 2575.92 5496.82 2578.86 5486.88 2580.13 5476.87 2579.7 5467.08 2577.59 5457.79 2573.86 5449.26 2568.6 5441.74 2561.99 5435.45 2554.19 5430.56 2545.45 5427.23 2536.01 5425.53 2526.13 5425.53 2516.12 5427.23 2506.24 5430.56 2496.8 5435.45 2488.06 5441.74 2480.26 5449.26 2473.64 5457.79 2468.39 5467.08 2464.66 5476.87 2462.55 5486.88 2462.12 5496.82 2463.4 5506.39 2466.33 5515.34 2470.84 5523.39 2476.79 5530.32 2484.03 5535.93 2492.32 5540.06 2501.45 5542.58 2511.15 5543.43 2521.13 M 11355.93 4781.25 11355.08 4791.23 11352.56 4800.92 11348.43 4810.05 11342.82 4818.35 11335.89 4825.58 11327.84 4831.54 11318.89 4836.05 11309.32 4838.98 11299.38 4840.25 11289.37 4839.83 11279.58 4837.72 11270.29 4833.98 11261.76 4828.73 11254.24 4822.11 11247.95 4814.32 11243.06 4805.57 11239.73 4796.13 11238.03 4786.26 11238.03 4776.24 11239.73 4766.37 11243.06 4756.93 11247.95 4748.18 11254.24 4740.39 11261.76 4733.77 11270.29 4728.52 11279.58 4724.78 11289.37 4722.67 11299.38 4722.25 11309.32 4723.52 11318.89 4726.45 11327.84 4730.96 11335.89 4736.92 11342.82 4744.15 11348.43 4752.45 11352.56 4761.58 11355.08 4771.27 11355.93 4781.25 M 10980.93 3093.75 10980.08 3103.73 10977.56 3113.42 10973.43 3122.55 10967.82 3130.85 10960.89 3138.08 10952.84 3144.04 10943.89 3148.55 10934.32 3151.48 10924.38 3152.75 10914.37 3152.33 10904.58 3150.22 10895.29 3146.48 10886.76 3141.23 10879.24 3134.61 10872.95 3126.82 10868.06 3118.07 10864.73 3108.63 10863.03 3098.76 10863.03 3088.74 10864.73 3078.87 10868.06 3069.43 10872.95 3060.68 10879.24 3052.89 10886.76 3046.27 10895.29 3041.02 10904.58 3037.28 10914.37 3035.17 10924.38 3034.75 10934.32 3036.02 10943.89 3038.95 10952.84 3043.46 10960.89 3049.42 10967.82 3056.65 10973.43 3064.95 10977.56 3074.08 10980.08 3083.77 10980.93 3093.75 M 12762.18 2531.25 12761.33 2541.23 12758.81 2550.92 12754.68 2560.05 12749.07 2568.35 12742.14 2575.58 12734.09 2581.54 12725.14 2586.05 12715.57 2588.98 12705.63 2590.25 12695.62 2589.83 12685.83 2587.72 12676.54 2583.98 12668.01 2578.73 12660.49 2572.11 12654.2 2564.32 12649.31 2555.57 12645.98 2546.13 12644.28 2536.26 12644.28 2526.24 12645.98 2516.37 12649.31 2506.93 12654.2 2498.18 12660.49 2490.39 12668.01 2483.77 12676.54 2478.52 12685.83 2474.78 12695.62 2472.67 12705.63 2472.25 12715.57 2473.52 12725.14 2476.45 12734.09 2480.96 12742.14 2486.92 12749.07 2494.15 12754.68 2502.45 12758.81 2511.58 12761.33 2521.27 12762.18 2531.25 M 14637.18 3093.75 14636.33 3103.73 14633.81 3113.42 14629.68 3122.55 14624.07 3130.85 14617.14 3138.08 14609.09 3144.04 14600.14 3148.55 14590.57 3151.48 14580.63 3152.75 14570.62 3152.33 14560.83 3150.22 14551.54 3146.48 14543.01 3141.23 14535.49 3134.61 14529.2 3126.82 14524.31 3118.07 14520.98 3108.63 14519.28 3098.76 14519.28 3088.74 14520.98 3078.87 14524.31 3069.43 14529.2 3060.68 14535.49 3052.89 14543.01 3046.27 14551.54 3041.02 14560.83 3037.28 14570.62 3035.17 14580.63 3034.75 14590.57 3036.02 14600.14 3038.95 14609.09 3043.46 14617.14 3049.42 14624.07 3056.65 14629.68 3064.95 14633.81 3074.08 14636.33 3083.77 14637.18 3093.75 M 17831.58 5131.89 17830.72 5141.87 17828.2 5151.56 17824.08 5160.69 17818.47 5168.99 17811.54 5176.22 17803.48 5182.18 17794.54 5186.69 17784.96 5189.62 17775.03 5190.89 17765.02 5190.47 17755.23 5188.36 17745.93 5184.62 17737.4 5179.37 17729.89 5172.75 17723.59 5164.96 17718.71 5156.22 17715.37 5146.77 17713.68 5136.9 17713.68 5126.88 17715.37 5117.01 17718.71 5107.56 17723.59 5098.82 17729.89 5091.03 17737.4 5084.41 17745.93 5079.16 17755.23 5075.42 17765.02 5073.31 17775.03 5072.89 17784.96 5074.16 17794.54 5077.09 17803.48 5081.6 17811.54 5087.56 17818.47 5094.79 17824.08 5103.09 17828.2 5112.22 17830.72 5121.91 17831.58 5131.89 M 17168.43 1687.5 17167.58 1697.48 17165.06 1707.17 17160.93 1716.3 17155.32 1724.6 17148.39 1731.83 17140.34 1737.79 17131.39 1742.3 17121.82 1745.23 17111.88 1746.5 17101.87 1746.08 17092.08 1743.97 17082.79 1740.23 17074.26 1734.98 17066.74 1728.36 17060.45 1720.57 17055.56 1711.83 17052.23 1702.38 17050.53 1692.51 17050.53 1682.49 17052.23 1672.62 17055.56 1663.17 17060.45 1654.43 17066.74 1646.64 17074.26 1640.02 17082.79 1634.77 17092.08 1631.03 17101.87 1628.92 17111.88 1628.5 17121.82 1629.77 17131.39 1632.7 17140.34 1637.21 17148.39 1643.17 17155.32 1650.4 17160.93 1658.7 17165.06 1667.83 17167.58 1677.52 17168.43 1687.5 M 17831.58 118.11 17830.72 128.09 17828.2 137.78 17824.08 146.91 17818.47 155.21 17811.54 162.44 17803.48 168.4 17794.54 172.91 17784.96 175.84 17775.03 177.11 17765.02 176.69 17755.23 174.58 17745.93 170.84 17737.4 165.59 17729.89 158.97 17723.59 151.18 17718.71 142.43 17715.37 132.99 17713.68 123.12 17713.68 113.1 17715.37 103.23 17718.71 93.79 17723.59 85.04 17729.89 77.25 17737.4 70.63 17745.93 65.38 17755.23 61.64 17765.02 59.53 17775.03 59.11 17784.96 60.38 17794.54 63.31 17803.48 67.82 17811.54 73.78 17818.47 81.01 17824.08 89.31 17828.2 98.44 17830.72 108.13 17831.58 118.11 M 14637.18 656.25 14636.33 666.23 14633.81 675.92 14629.68 685.05 14624.07 693.35 14617.14 700.58 14609.09 706.54 14600.14 711.05 14590.57 713.98 14580.63 715.25 14570.62 714.83 14560.83 712.72 14551.54 708.98 14543.01 703.73 14535.49 697.11 14529.2 689.32 14524.31 680.58 14520.98 671.13 14519.28 661.26 14519.28 651.24 14520.98 641.37 14524.31 631.92 14529.2 623.18 14535.49 615.39 14543.01 608.77 14551.54 603.52 14560.83 599.78 14570.62 597.67 14580.63 597.25 14590.57 598.52 14600.14 601.45 14609.09 605.96 14617.14 611.92 14624.07 619.15 14629.68 627.45 14633.81 636.58 14636.33 646.27 14637.18 656.25 M 11824.68 656.25 11823.83 666.23 11821.31 675.92 11817.18 685.05 11811.57 693.35 11804.64 700.58 11796.59 706.54 11787.64 711.05 11778.07 713.98 11768.13 715.25 11758.12 714.83 11748.33 712.72 11739.04 708.98 11730.51 703.73 11722.99 697.11 11716.7 689.32 11711.81 680.58 11708.48 671.13 11706.78 661.26 11706.78 651.24 11708.48 641.37 11711.81 631.92 11716.7 623.18 11722.99 615.39 11730.51 608.77 11739.04 603.52 11748.33 599.78 11758.12 597.67 11768.13 597.25 11778.07 598.52 11787.64 601.45 11796.59 605.96 11804.64 611.92 11811.57 619.15 11817.18 627.45 11821.31 636.58 11823.83 646.27 11824.68 656.25 M 9105.93 656.25 9105.08 666.23 9102.56 675.92 9098.43 685.05 9092.82 693.35 9085.89 700.58 9077.84 706.54 9068.89 711.05 9059.32 713.98 9049.38 715.25 9039.37 714.83 9029.58 712.72 9020.29 708.98 9011.76 703.73 9004.24 697.11 8997.95 689.32 8993.06 680.58 8989.73 671.13 8988.03 661.26 8988.03 651.24 8989.73 641.37 8993.06 631.92 8997.95 623.18 9004.24 615.39 9011.76 608.77 9020.29 603.52 9029.58 599.78 9039.37 597.67 9049.38 597.25 9059.32 598.52 9068.89 601.45 9077.84 605.96 9085.89 611.92 9092.82 619.15 9098.43 627.45 9102.56 636.58 9105.08 646.27 9105.93 656.25 M 7230.93 656.25 7230.08 666.23 7227.56 675.92 7223.43 685.05 7217.82 693.35 7210.89 700.58 7202.84 706.54 7193.89 711.05 7184.32 713.98 7174.38 715.25 7164.37 714.83 7154.58 712.72 7145.29 708.98 7136.76 703.73 7129.24 697.11 7122.95 689.32 7118.06 680.58 7114.73 671.13 7113.03 661.26 7113.03 651.24 7114.73 641.37 7118.06 631.92 7122.95 623.18 7129.24 615.39 7136.76 608.77 7145.29 603.52 7154.58 599.78 7164.37 597.67 7174.38 597.25 7184.32 598.52 7193.89 601.45 7202.84 605.96 7210.89 611.92 7217.82 619.15 7223.43 627.45 7227.56 636.58 7230.08 646.27 7230.93 656.25 M 4980.93 656.25 4980.08 666.23 4977.56 675.92 4973.43 685.05 4967.82 693.35 4960.89 700.58 4952.84 706.54 4943.89 711.05 4934.32 713.98 4924.38 715.25 4914.37 714.83 4904.58 712.72 4895.29 708.98 4886.76 703.73 4879.24 697.11 4872.95 689.32 4868.06 680.58 4864.73 671.13 4863.03 661.26 4863.03 651.24 4864.73 641.37 4868.06 631.92 4872.95 623.18 4879.24 615.39 4886.76 608.77 4895.29 603.52 4904.58 599.78 4914.37 597.67 4924.38 597.25 4934.32 598.52 4943.89 601.45 4952.84 605.96 4960.89 611.92 4967.82 619.15 4973.43 627.45 4977.56 636.58 4980.08 646.27 4980.93 656.25 M 3105.93 656.25 3105.08 666.23 3102.56 675.92 3098.43 685.05 3092.82 693.35 3085.89 700.58 3077.84 706.54 3068.89 711.05 3059.32 713.98 3049.38 715.25 3039.37 714.83 3029.58 712.72 3020.29 708.98 3011.76 703.73 3004.24 697.11 2997.95 689.32 2993.06 680.58 2989.73 671.13 2988.03 661.26 2988.03 651.24 2989.73 641.37 2993.06 631.92 2997.95 623.18 3004.24 615.39 3011.76 608.77 3020.29 603.52 3029.58 599.78 3039.37 597.67 3049.38 597.25 3059.32 598.52 3068.89 601.45 3077.84 605.96 3085.89 611.92 3092.82 619.15 3098.43 627.45 3102.56 636.58 3105.08 646.27 3105.93 656.25 M 380.29 118.11 379.44 128.09 376.92 137.78 372.79 146.91 367.18 155.21 360.25 162.44 352.2 168.4 343.25 172.91 333.68 175.84 323.74 177.11 313.73 176.69 303.94 174.58 294.65 170.84 286.12 165.59 278.6 158.97 272.31 151.18 267.42 142.43 264.09 132.99 262.39 123.12 262.39 113.1 264.09 103.23 267.42 93.79 272.31 85.04 278.6 77.25 286.12 70.63 294.65 65.38 303.94 61.64 313.73 59.53 323.74 59.11 333.68 60.38 343.25 63.31 352.2 67.82 360.25 73.78 367.18 81.01 372.79 89.31 376.92 98.44 379.44 108.13 380.29 118.11 M 1980.93 4125 1980.08 4134.98 1977.56 4144.67 1973.43 4153.8 1967.82 4162.1 1960.89 4169.33 1952.84 4175.29 1943.89 4179.8 1934.32 4182.73 1924.38 4184 1914.37 4183.58 1904.58 4181.47 1895.29 4177.73 1886.76 4172.48 1879.24 4165.86 1872.95 4158.07 1868.06 4149.32 1864.72 4139.88 1863.03 4130.01 1863.03 4119.99 1864.72 4110.12 1868.06 4100.68 1872.95 4091.93 1879.24 4084.14 1886.76 4077.52 1895.29 4072.27 1904.58 4068.53 1914.37 4066.42 1924.38 4066 1934.32 4067.27 1943.89 4070.2 1952.84 4074.71 1960.89 4080.67 1967.82 4087.9 1973.43 4096.2 1977.56 4105.33 1980.08 4115.02 1980.93 4125 M 380.29 5131.89 379.44 5141.87 376.92 5151.56 372.79 5160.69 367.18 5168.99 360.25 5176.22 352.2 5182.18 343.25 5186.69 333.68 5189.62 323.74 5190.89 313.73 5190.47 303.94 5188.36 294.65 5184.62 286.12 5179.37 278.6 5172.75 272.31 5164.96 267.42 5156.22 264.09 5146.77 262.39 5136.9 262.39 5126.88 264.09 5117.01 267.42 5107.56 272.31 5098.82 278.6 5091.03 286.12 5084.41 294.65 5079.16 303.94 5075.42 313.73 5073.31 323.74 5072.89 333.68 5074.16 343.25 5077.09 352.2 5081.6 360.25 5087.56 367.18 5094.79 372.79 5103.09 376.92 5112.22 379.44 5121.91 380.29 5131.89 M 16653.54 5236.22 17519.69 5236.22 17519.69 4370.08 16653.54 4370.08 16653.54 5236.22 M 1315.33 2615.65 1590.92 2615.65 1590.92 3048.72 1315.33 3048.72 1315.33 2615.65 M 377.83 2615.65 653.42 2615.65 653.42 3048.72 377.83 3048.72 377.83 2615.65 M 7877.83 365.65 8153.42 365.65 8153.42 798.72 7877.83 798.72 7877.83 365.65 M 3940.33 365.65 4215.92 365.65 4215.92 798.72 3940.33 798.72 3940.33 365.65 M 8159.08 365.65 8434.67 365.65 8434.67 798.72 8159.08 798.72 8159.08 365.65 M 3659.08 365.65 3934.67 365.65 3934.67 798.72 3659.08 798.72 3659.08 365.65 M 8534.08 365.65 8809.67 365.65 8809.67 798.72 8534.08 798.72 8534.08 365.65 M 3284.08 365.65 3559.67 365.65 3559.67 798.72 3284.08 798.72 3284.08 365.65 M 15940.33 365.65 16215.92 365.65 16215.92 798.72 15940.33 798.72 15940.33 365.65 M 15002.83 365.65 15278.42 365.65 15278.42 798.72 15002.83 798.72 15002.83 365.65 M 17681.22 330.95 17681.22 606.54 17248.16 606.54 17248.16 330.95 17681.22 330.95 M 17681.22 1268.46 17681.22 1544.04 17248.16 1544.04 17248.16 1268.46 17681.22 1268.46 M 11159.08 1115.65 11434.67 1115.65 11434.67 1548.72 11159.08 1548.72 11159.08 1115.65 M 10221.58 1115.65 10497.17 1115.65 10497.17 1548.72 10221.58 1548.72 10221.58 1115.65 M 11587.47 1830.96 11587.47 2106.54 11154.4 2106.54 11154.4 1830.96 11587.47 1830.96 M 11587.47 2768.46 11587.47 3044.04 11154.4 3044.04 11154.4 2768.46 11587.47 2768.46 M 1541.22 286.91 1541.22 838.09 990.03 838.09 990.03 286.91 1541.22 286.91 M 1166.22 1036.91 1166.22 1588.09 615.03 1588.09 615.03 1036.91 1166.22 1036.91 M 978.72 1786.91 978.72 2338.09 427.53 2338.09 427.53 1786.91 978.72 1786.91 M 1259.97 2536.91 1259.97 3088.09 708.78 3088.09 708.78 2536.91 1259.97 2536.91 M 1072.47 3286.91 1072.47 3838.09 521.28 3838.09 521.28 3286.91 1072.47 3286.91 M 884.97 4411.91 884.97 4963.09 333.78 4963.09 333.78 4411.91 884.97 4411.91 M 2478.72 286.91 2478.72 838.09 1927.53 838.09 1927.53 286.91 2478.72 286.91 M 2197.47 1036.91 2197.47 1588.09 1646.28 1588.09 1646.28 1036.91 2197.47 1036.91 M 1822.47 1786.91 1822.47 2338.09 1271.28 2338.09 1271.28 1786.91 1822.47 1786.91 M 2384.97 2536.91 2384.97 3088.09 1833.78 3088.09 1833.78 2536.91 2384.97 2536.91 M 2009.97 3286.91 2009.97 3838.09 1458.78 3838.09 1458.78 3286.91 2009.97 3286.91 M 2103.72 4411.91 2103.72 4963.09 1552.53 4963.09 1552.53 4411.91 2103.72 4411.91 M 6322.47 286.91 6322.47 838.09 5771.28 838.09 5771.28 286.91 6322.47 286.91 M 2947.47 1036.91 2947.47 1588.09 2396.28 1588.09 2396.28 1036.91 2947.47 1036.91 M 2572.47 1786.91 2572.47 2338.09 2021.28 2338.09 2021.28 1786.91 2572.47 1786.91 M 3134.97 2536.91 3134.97 3088.09 2583.78 3088.09 2583.78 2536.91 3134.97 2536.91 M 2759.97 3286.91 2759.97 3838.09 2208.78 3838.09 2208.78 3286.91 2759.97 3286.91 M 3041.22 4411.91 3041.22 4963.09 2490.03 4963.09 2490.03 4411.91 3041.22 4411.91 M 17759.97 3286.91 17759.97 3838.09 17208.78 3838.09 17208.78 3286.91 17759.97 3286.91 M 3697.47 1036.91 3697.47 1588.09 3146.28 1588.09 3146.28 1036.91 3697.47 1036.91 M 3322.47 1786.91 3322.47 2338.09 2771.28 2338.09 2771.28 1786.91 3322.47 1786.91 M 3884.97 2536.91 3884.97 3088.09 3333.78 3088.09 3333.78 2536.91 3884.97 2536.91 M 3509.97 3286.91 3509.97 3838.09 2958.78 3838.09 2958.78 3286.91 3509.97 3286.91 M 3978.72 4411.91 3978.72 4963.09 3427.53 4963.09 3427.53 4411.91 3978.72 4411.91 M 17759.97 2536.91 17759.97 3088.09 17208.78 3088.09 17208.78 2536.91 17759.97 2536.91 M 4447.47 1036.91 4447.47 1588.09 3896.28 1588.09 3896.28 1036.91 4447.47 1036.91 M 4072.47 1786.91 4072.47 2338.09 3521.28 2338.09 3521.28 1786.91 4072.47 1786.91 M 4634.97 2536.91 4634.97 3088.09 4083.78 3088.09 4083.78 2536.91 4634.97 2536.91 M 4259.97 3286.91 4259.97 3838.09 3708.78 3838.09 3708.78 3286.91 4259.97 3286.91 M 4916.22 4411.91 4916.22 4963.09 4365.03 4963.09 4365.03 4411.91 4916.22 4411.91 M 17759.97 661.91 17759.97 1213.09 17208.78 1213.09 17208.78 661.91 17759.97 661.91 M 5197.47 1036.91 5197.47 1588.09 4646.28 1588.09 4646.28 1036.91 5197.47 1036.91 M 4822.47 1786.91 4822.47 2338.09 4271.28 2338.09 4271.28 1786.91 4822.47 1786.91 M 5384.97 2536.91 5384.97 3088.09 4833.78 3088.09 4833.78 2536.91 5384.97 2536.91 M 5009.97 3286.91 5009.97 3838.09 4458.78 3838.09 4458.78 3286.91 5009.97 3286.91 M 5853.72 4411.91 5853.72 4963.09 5302.53 4963.09 5302.53 4411.91 5853.72 4411.91 M 17009.97 3286.91 17009.97 3838.09 16458.78 3838.09 16458.78 3286.91 17009.97 3286.91 M 5947.47 1036.91 5947.47 1588.09 5396.28 1588.09 5396.28 1036.91 5947.47 1036.91 M 5572.47 1786.91 5572.47 2338.09 5021.28 2338.09 5021.28 1786.91 5572.47 1786.91 M 6134.97 2536.91 6134.97 3088.09 5583.78 3088.09 5583.78 2536.91 6134.97 2536.91 M 5759.97 3286.91 5759.97 3838.09 5208.78 3838.09 5208.78 3286.91 5759.97 3286.91 M 7166.22 4411.91 7166.22 4963.09 6615.03 4963.09 6615.03 4411.91 7166.22 4411.91 M 17009.97 2536.91 17009.97 3088.09 16458.78 3088.09 16458.78 2536.91 17009.97 2536.91 M 6697.47 1036.91 6697.47 1588.09 6146.28 1588.09 6146.28 1036.91 6697.47 1036.91 M 6322.47 1786.91 6322.47 2338.09 5771.28 2338.09 5771.28 1786.91 6322.47 1786.91 M 6884.97 2536.91 6884.97 3088.09 6333.78 3088.09 6333.78 2536.91 6884.97 2536.91 M 6509.97 3286.91 6509.97 3838.09 5958.78 3838.09 5958.78 3286.91 6509.97 3286.91 M 8103.72 4411.91 8103.72 4963.09 7552.53 4963.09 7552.53 4411.91 8103.72 4411.91 M 17009.97 1036.91 17009.97 1588.09 16458.78 1588.09 16458.78 1036.91 17009.97 1036.91 M 7447.47 1036.91 7447.47 1588.09 6896.28 1588.09 6896.28 1036.91 7447.47 1036.91 M 7072.47 1786.91 7072.47 2338.09 6521.28 2338.09 6521.28 1786.91 7072.47 1786.91 M 7634.97 2536.91 7634.97 3088.09 7083.78 3088.09 7083.78 2536.91 7634.97 2536.91 M 7259.97 3286.91 7259.97 3838.09 6708.78 3838.09 6708.78 3286.91 7259.97 3286.91 M 9041.22 4411.91 9041.22 4963.09 8490.03 4963.09 8490.03 4411.91 9041.22 4411.91 M 17009.97 286.91 17009.97 838.09 16458.78 838.09 16458.78 286.91 17009.97 286.91 M 8197.47 1036.91 8197.47 1588.09 7646.28 1588.09 7646.28 1036.91 8197.47 1036.91 M 7822.47 1786.91 7822.47 2338.09 7271.28 2338.09 7271.28 1786.91 7822.47 1786.91 M 8384.97 2536.91 8384.97 3088.09 7833.78 3088.09 7833.78 2536.91 8384.97 2536.91 M 8009.97 3286.91 8009.97 3838.09 7458.78 3838.09 7458.78 3286.91 8009.97 3286.91 M 9978.72 4411.91 9978.72 4963.09 9427.53 4963.09 9427.53 4411.91 9978.72 4411.91 M 16259.97 3286.91 16259.97 3838.09 15708.78 3838.09 15708.78 3286.91 16259.97 3286.91 M 8947.47 1036.91 8947.47 1588.09 8396.28 1588.09 8396.28 1036.91 8947.47 1036.91 M 8572.47 1786.91 8572.47 2338.09 8021.28 2338.09 8021.28 1786.91 8572.47 1786.91 M 9134.97 2536.91 9134.97 3088.09 8583.78 3088.09 8583.78 2536.91 9134.97 2536.91 M 8759.97 3286.91 8759.97 3838.09 8208.78 3838.09 8208.78 3286.91 8759.97 3286.91 M 10916.22 4411.91 10916.22 4963.09 10365.03 4963.09 10365.03 4411.91 10916.22 4411.91 M 10166.22 286.91 10166.22 838.09 9615.03 838.09 9615.03 286.91 10166.22 286.91 M 9697.47 1036.91 9697.47 1588.09 9146.28 1588.09 9146.28 1036.91 9697.47 1036.91 M 9322.47 1786.91 9322.47 2338.09 8771.28 2338.09 8771.28 1786.91 9322.47 1786.91 M 9884.97 2536.91 9884.97 3088.09 9333.78 3088.09 9333.78 2536.91 9884.97 2536.91 M 9509.97 3286.91 9509.97 3838.09 8958.78 3838.09 8958.78 3286.91 9509.97 3286.91 M 15509.97 3286.91 15509.97 3838.09 14958.78 3838.09 14958.78 3286.91 15509.97 3286.91 M 11103.72 286.91 11103.72 838.09 10552.53 838.09 10552.53 286.91 11103.72 286.91 M 11103.72 1036.91 11103.72 1588.09 10552.53 1588.09 10552.53 1036.91 11103.72 1036.91 M 10072.47 1786.91 10072.47 2338.09 9521.28 2338.09 9521.28 1786.91 10072.47 1786.91 M 10634.97 2536.91 10634.97 3088.09 10083.78 3088.09 10083.78 2536.91 10634.97 2536.91 M 10259.97 3286.91 10259.97 3838.09 9708.78 3838.09 9708.78 3286.91 10259.97 3286.91 M 16259.97 1036.91 16259.97 1588.09 15708.78 1588.09 15708.78 1036.91 16259.97 1036.91 M 15884.97 286.91 15884.97 838.09 15333.78 838.09 15333.78 286.91 15884.97 286.91 M 12884.97 1036.91 12884.97 1588.09 12333.78 1588.09 12333.78 1036.91 12884.97 1036.91 M 10822.47 1786.91 10822.47 2338.09 10271.28 2338.09 10271.28 1786.91 10822.47 1786.91 M 11666.22 2161.91 11666.22 2713.09 11115.03 2713.09 11115.03 2161.91 11666.22 2161.91 M 11009.97 3286.91 11009.97 3838.09 10458.78 3838.09 10458.78 3286.91 11009.97 3286.91 M 15509.97 1036.91 15509.97 1588.09 14958.78 1588.09 14958.78 1036.91 15509.97 1036.91 M 16259.97 2536.91 16259.97 3088.09 15708.78 3088.09 15708.78 2536.91 16259.97 2536.91 M 13634.97 1036.91 13634.97 1588.09 13083.78 1588.09 13083.78 1036.91 13634.97 1036.91 M 13634.97 1786.91 13634.97 2338.09 13083.78 2338.09 13083.78 1786.91 13634.97 1786.91 M 14197.47 3286.91 14197.47 3838.09 13646.28 3838.09 13646.28 3286.91 14197.47 3286.91 M 11759.97 3286.91 11759.97 3838.09 11208.78 3838.09 11208.78 3286.91 11759.97 3286.91 M 15509.97 2536.91 15509.97 3088.09 14958.78 3088.09 14958.78 2536.91 15509.97 2536.91 M 17759.97 1786.91 17759.97 2338.09 17208.78 2338.09 17208.78 1786.91 17759.97 1786.91 M 14384.97 1036.91 14384.97 1588.09 13833.78 1588.09 13833.78 1036.91 14384.97 1036.91 M 15509.97 1786.91 15509.97 2338.09 14958.78 2338.09 14958.78 1786.91 15509.97 1786.91 M 17009.97 1786.91 17009.97 2338.09 16458.78 2338.09 16458.78 1786.91 17009.97 1786.91 M 13072.47 3286.91 13072.47 3838.09 12521.28 3838.09 12521.28 3286.91 13072.47 3286.91 M 16259.97 1786.91 16259.97 2338.09 15708.78 2338.09 15708.78 1786.91 16259.97 1786.91 M 18093.75 4803.15 18093.75 5554.69 0 5554.69 0 0 18093.75 0 18093.75 4606.3 17936.27 4606.3 17936.27 4803.15 18093.75 4803.15" fill="none" stroke-width="10"/></g></svg>