  0
SECTION
  2
HEADER
  9
$EXTMIN
 10
-0.006000
 20
-0.006000
  9
$EXTMAX
 10
18.100000
 20
5.561000
  9
$LIMMIN
 10
-0.006000
 20
-0.006000
  9
$LIMMAX
 10
18.100000
 20
5.561000
  9
$FILLMODE
 70
  1
  0
ENDSEC
  0
SECTION
  2
TABLES
  0
TABLE
  2
LTYPE
 70
  1
  0
LTYPE
  2
CONTINUOUS
 70
 64
  3
Solid line
 72
 65
 73
  0
 40
0.0
  0
ENDTAB
  0
TABLE
  2
LAYER
 70
 1
  0
LAYER
  2
0
 70
  0
 62
7
  6
CONTINUOUS
  0
LAYER
  2
gm4
 70
  0
 62
1
  6
CONTINUOUS
  0
ENDTAB
  0
TABLE
  2
STYLE
 70
  1
  0
STYLE
  2
STANDARD
 70
  0
 40
0.0
 41
1.0
 50
0.0
 71
  0
 42
0.2
  3
txt
  4

  0
ENDTAB
  0
ENDSEC
  0
SECTION
  2
BLOCKS
  0
BLOCK
  8
0
  2
D10
 70
64
 10
0.0
 20
0.0
  3
D10
  0
POLYLINE
  8
0
 66
1
 10
0.0
 20
0.0
 40
0
 41
0
 70
1
  0
VERTEX
  8
0
 10
-0.021600
 20
-0.015700
 42
0
  0
VERTEX
  8
0
 10
0.021600
 20
-0.015700
 42
0
  0
VERTEX
  8
0
 10
0.025600
 20
-0.011800
 42
0
  0
VERTEX
  8
0
 10
0.025600
 20
0.011800
 42
0
  0
VERTEX
  8
0
 10
0.021600
 20
0.015700
 42
0
  0
VERTEX
  8
0
 10
-0.021600
 20
0.015700
 42
0
  0
VERTEX
  8
0
 10
-0.025600
 20
0.011800
 42
0
  0
VERTEX
  8
0
 10
-0.025600
 20
-0.011800
 42
0
  0
SEQEND
  8
0
  0
CIRCLE
  8
0
 10
-0.021600
 20
-0.011800
 40
0.003940
  0
CIRCLE
  8
0
 10
0.021600
 20
-0.011800
 40
0.003940
  0
CIRCLE
  8
0
 10
0.021600
 20
0.011800
 40
0.003940
  0
CIRCLE
  8
0
 10
-0.021600
 20
0.011800
 40
0.003940
 0
ENDBLK
  8
0
  0
BLOCK
  8
0
  2
D11
 70
64
 10
0.0
 20
0.0
  3
D11
  0
POLYLINE
  8
0
 66
1
 10
0.0
 20
0.0
 40
0
 41
0
 70
1
  0
VERTEX
  8
0
 10
0.015700
 20
-0.021600
 42
0
  0
VERTEX
  8
0
 10
0.015700
 20
0.021600
 42
0
  0
VERTEX
  8
0
 10
0.011800
 20
0.025600
 42
0
  0
VERTEX
  8
0
 10
-0.011800
 20
0.025600
 42
0
  0
VERTEX
  8
0
 10
-0.015700
 20
0.021600
 42
0
  0
VERTEX
  8
0
 10
-0.015700
 20
-0.021600
 42
0
  0
VERTEX
  8
0
 10
-0.011800
 20
-0.025600
 42
0
  0
VERTEX
  8
0
 10
0.011800
 20
-0.025600
 42
0
  0
SEQEND
  8
0
  0
CIRCLE
  8
0
 10
0.011800
 20
-0.021600
 40
0.003940
  0
CIRCLE
  8
0
 10
0.011800
 20
0.021600
 40
0.003940
  0
CIRCLE
  8
0
 10
-0.011800
 20
0.021600
 40
0.003940
  0
CIRCLE
  8
0
 10
-0.011800
 20
-0.021600
 40
0.003940
 0
ENDBLK
  8
0
  0
BLOCK
  8
0
  2
D12
 70
64
 10
0.0
 20
0.0
  3
D12
  0
POLYLINE
  8
0
 66
1
 10
0.0
 20
0.0
 40
0
 41
0
 70
1
  0
VERTEX
  8
0
 10
-0.019700
 20
0.022600
 42
0
  0
VERTEX
  8
0
 10
-0.019700
 20
-0.022600
 42
0
  0
VERTEX
  8
0
 10
-0.014800
 20
-0.027600
 42
0
  0
VERTEX
  8
0
 10
0.014800
 20
-0.027600
 42
0
  0
VERTEX
  8
0
 10
0.019700
 20
-0.022600
 42
0
  0
VERTEX
  8
0
 10
0.019700
 20
0.022600
 42
0
  0
VERTEX
  8
0
 10
0.014800
 20
0.027600
 42
0
  0
VERTEX
  8
0
 10
-0.014800
 20
0.027600
 42
0
  0
SEQEND
  8
0
  0
CIRCLE
  8
0
 10
-0.014800
 20
0.022600
 40
0.004920
  0
CIRCLE
  8
0
 10
-0.014800
 20
-0.022600
 40
0.004920
  0
CIRCLE
  8
0
 10
0.014800
 20
-0.022600
 40
0.004920
  0
CIRCLE
  8
0
 10
0.014800
 20
0.022600
 40
0.004920
 0
ENDBLK
  8
0
  0
BLOCK
  8
0
  2
D13
 70
64
 10
0.0
 20
0.0
  3
D13
  0
POLYLINE
  8
0
 66
1
 10
0.0
 20
0.0
 40
0
 41
0
 70
1
  0
VERTEX
  8
0
 10
0.011800
 20
0.026500
 42
0
  0
VERTEX
  8
0
 10
-0.011800
 20
0.026500
 42
0
  0
VERTEX
  8
0
 10
-0.011800
 20
-0.026500
 42
0
  0
VERTEX
  8
0
 10
0.011800
 20
-0.026500
 42
0
  0
SEQEND
  8
0
  0
CIRCLE
  8
0
 10
0.000000
 20
0.026500
 40
0.011810
  0
CIRCLE
  8
0
 10
0.000000
 20
-0.026500
 40
0.011810
 0
ENDBLK
  8
0
  0
BLOCK
  8
0
  2
D14
 70
64
 10
0.0
 20
0.0
  3
D14
  0
POLYLINE
  8
0
 66
1
 10
0.0
 20
0.0
 40
0
 41
0
 70
1
  0
VERTEX
  8
0
 10
0.026500
 20
0.011800
 42
0
  0
VERTEX
  8
0
 10
-0.026500
 20
0.011800
 42
0
  0
VERTEX
  8
0
 10
-0.026500
 20
-0.011800
 42
0
  0
VERTEX
  8
0
 10
0.026500
 20
-0.011800
 42
0
  0
SEQEND
  8
0
  0
CIRCLE
  8
0
 10
-0.026500
 20
0.000000
 40
0.011810
  0
CIRCLE
  8
0
 10
0.026500
 20
0.000000
 40
0.011810
 0
ENDBLK
  8
0
  0
BLOCK
  8
0
  2
D15
 70
64
 10
0.0
 20
0.0
  3
D15
  0
POLYLINE
  8
0
 66
1
 10
0.0
 20
0.0
 40
0
 41
0
 70
1
  0
VERTEX
  8
0
 10
-0.050000
 20
0.030000
 42
0
  0
VERTEX
  8
0
 10
-0.050000
 20
-0.030000
 42
0
  0
VERTEX
  8
0
 10
-0.040000
 20
-0.040000
 42
0
  0
VERTEX
  8
0
 10
0.040000
 20
-0.040000
 42
0
  0
VERTEX
  8
0
 10
0.050000
 20
-0.030000
 42
0
  0
VERTEX
  8
0
 10
0.050000
 20
0.030000
 42
0
  0
VERTEX
  8
0
 10
0.040000
 20
0.040000
 42
0
  0
VERTEX
  8
0
 10
-0.040000
 20
0.040000
 42
0
  0
SEQEND
  8
0
  0
CIRCLE
  8
0
 10
-0.040000
 20
0.030000
 40
0.010000
  0
CIRCLE
  8
0
 10
-0.040000
 20
-0.030000
 40
0.010000
  0
CIRCLE
  8
0
 10
0.040000
 20
-0.030000
 40
0.010000
  0
CIRCLE
  8
0
 10
0.040000
 20
0.030000
 40
0.010000
 0
ENDBLK
  8
0
  0
BLOCK
  8
0
  2
D16
 70
64
 10
0.0
 20
0.0
  3
D16
  0
POLYLINE
  8
0
 66
1
 10
0.0
 20
0.0
 40
0
 41
0
 70
1
  0
VERTEX
  8
0
 10
-0.050000
 20
0.018700
 42
0
  0
VERTEX
  8
0
 10
-0.050000
 20
-0.018700
 42
0
  0
VERTEX
  8
0
 10
-0.043700
 20
-0.025000
 42
0
  0
VERTEX
  8
0
 10
0.043700
 20
-0.025000
 42
0
  0
VERTEX
  8
0
 10
0.050000
 20
-0.018700
 42
0
  0
VERTEX
  8
0
 10
0.050000
 20
0.018700
 42
0
  0
VERTEX
  8
0
 10
0.043700
 20
0.025000
 42
0
  0
VERTEX
  8
0
 10
-0.043700
 20
0.025000
 42
0
  0
SEQEND
  8
0
  0
CIRCLE
  8
0
 10
-0.043700
 20
0.018700
 40
0.006250
  0
CIRCLE
  8
0
 10
-0.043700
 20
-0.018700
 40
0.006250
  0
CIRCLE
  8
0
 10
0.043700
 20
-0.018700
 40
0.006250
  0
CIRCLE
  8
0
 10
0.043700
 20
0.018700
 40
0.006250
 0
ENDBLK
  8
0
  0
BLOCK
  8
0
  2
D17
 70
64
 10
0.0
 20
0.0
  3
D17
  0
CIRCLE
  8
0
 10
0.000000
 20
0.000000
 40
0.016000
 0
ENDBLK
  8
0
  0
BLOCK
  8
0
  2
D18
 70
64
 10
0.0
 20
0.0
  3
D18
  0
CIRCLE
  8
0
 10
0.000000
 20
0.000000
 40
0.012000
 0
ENDBLK
  8
0
  0
BLOCK
  8
0
  2
D19
 70
64
 10
0.0
 20
0.0
  3
D19
  0
CIRCLE
  8
0
 10
0.000000
 20
0.000000
 40
0.005000
 0
ENDBLK
  8
0
  0
BLOCK
  8
0
  2
D20
 70
64
 10
0.0
 20
0.0
  3
D20
  0
CIRCLE
  8
0
 10
0.000000
 20
0.000000
 40
0.030000
 0
ENDBLK
  8
0
  0
BLOCK
  8
0
  2
D21
 70
64
 10
0.0
 20
0.0
  3
D21
  0
CIRCLE
  8
0
 10
0.000000
 20
0.000000
 40
0.118110
 0
ENDBLK
  8
0
  0
BLOCK
  8
0
  2
D22
 70
64
 10
0.0
 20
0.0
  3
D22
  0
POLYLINE
  8
0
 66
1
 10
0.0
 20
0.0
 70
1
 40
0.0
 41
0.0
  0
VERTEX
  8
0
 10
-0.029530
 20
-0.029530
  0
VERTEX
  8
0
 10
0.029530
 20
-0.029530
  0
VERTEX
  8
0
 10
0.029530
 20
0.029530
  0
VERTEX
  8
0
 10
-0.029530
 20
0.029530
  0
SEQEND
  8
0
 0
ENDBLK
  8
0
  0
BLOCK
  8
0
  2
D23
 70
64
 10
0.0
 20
0.0
  3
D23
  0
CIRCLE
  8
0
 10
0.000000
 20
0.000000
 40
0.029530
 0
ENDBLK
  8
0
  0
BLOCK
  8
0
  2
D24
 70
64
 10
0.0
 20
0.0
  3
D24
  0
POLYLINE
  8
0
 66
1
 10
0.0
 20
0.0
 70
1
 40
0.0
 41
0.0
  0
VERTEX
  8
0
 10
-0.029530
 20
-0.029530
  0
VERTEX
  8
0
 10
0.029530
 20
-0.029530
  0
VERTEX
  8
0
 10
0.029530
 20
0.029530
  0
VERTEX
  8
0
 10
-0.029530
 20
0.029530
  0
SEQEND
  8
0
 0
ENDBLK
  8
0
  0
BLOCK
  8
0
  2
D25
 70
64
 10
0.0
 20
0.0
  3
D25
  0
POLYLINE
  8
0
 66
1
 10
0.0
 20
0.0
 70
1
 40
0.0
 41
0.0
  0
VERTEX
  8
0
 10
-0.030000
 20
-0.030000
  0
VERTEX
  8
0
 10
0.030000
 20
-0.030000
  0
VERTEX
  8
0
 10
0.030000
 20
0.030000
  0
VERTEX
  8
0
 10
-0.030000
 20
0.030000
  0
SEQEND
  8
0
 0
ENDBLK
  8
0
  0
BLOCK
  8
0
  2
D26
 70
64
 10
0.0
 20
0.0
  3
D26
  0
CIRCLE
  8
0
 10
0.000000
 20
0.000000
 40
0.043305
 0
ENDBLK
  8
0
  0
BLOCK
  8
0
  2
D27
 70
64
 10
0.0
 20
0.0
  3
D27
  0
CIRCLE
  8
0
 10
0.000000
 20
0.000000
 40
0.021655
 0
ENDBLK
  8
0
  0
BLOCK
  8
0
  2
D28
 70
64
 10
0.0
 20
0.0
  3
D28
  0
POLYLINE
  8
0
 66
1
 10
0.0
 20
0.0
 40
0
 41
0
 70
1
  0
VERTEX
  8
0
 10
0.021700
 20
-0.027100
 42
0
  0
VERTEX
  8
0
 10
0.021700
 20
0.027100
 42
0
  0
VERTEX
  8
0
 10
0.016200
 20
0.032500
 42
0
  0
VERTEX
  8
0
 10
-0.016200
 20
0.032500
 42
0
  0
VERTEX
  8
0
 10
-0.021700
 20
0.027100
 42
0
  0
VERTEX
  8
0
 10
-0.021700
 20
-0.027100
 42
0
  0
VERTEX
  8
0
 10
-0.016200
 20
-0.032500
 42
0
  0
VERTEX
  8
0
 10
0.016200
 20
-0.032500
 42
0
  0
SEQEND
  8
0
  0
CIRCLE
  8
0
 10
0.016200
 20
-0.027100
 40
0.005410
  0
CIRCLE
  8
0
 10
0.016200
 20
0.027100
 40
0.005410
  0
CIRCLE
  8
0
 10
-0.016200
 20
0.027100
 40
0.005410
  0
CIRCLE
  8
0
 10
-0.016200
 20
-0.027100
 40
0.005410
 0
ENDBLK
  8
0
  0
BLOCK
  8
0
  2
D29
 70
64
 10
0.0
 20
0.0
  3
D29
  0
POLYLINE
  8
0
 66
1
 10
0.0
 20
0.0
 40
0
 41
0
 70
1
  0
VERTEX
  8
0
 10
0.027100
 20
0.021700
 42
0
  0
VERTEX
  8
0
 10
-0.027100
 20
0.021700
 42
0
  0
VERTEX
  8
0
 10
-0.032500
 20
0.016200
 42
0
  0
VERTEX
  8
0
 10
-0.032500
 20
-0.016200
 42
0
  0
VERTEX
  8
0
 10
-0.027100
 20
-0.021700
 42
0
  0
VERTEX
  8
0
 10
0.027100
 20
-0.021700
 42
0
  0
VERTEX
  8
0
 10
0.032500
 20
-0.016200
 42
0
  0
VERTEX
  8
0
 10
0.032500
 20
0.016200
 42
0
  0
SEQEND
  8
0
  0
CIRCLE
  8
0
 10
0.027100
 20
0.016200
 40
0.005410
  0
CIRCLE
  8
0
 10
-0.027100
 20
0.016200
 40
0.005410
  0
CIRCLE
  8
0
 10
-0.027100
 20
-0.016200
 40
0.005410
  0
CIRCLE
  8
0
 10
0.027100
 20
-0.016200
 40
0.005410
 0
ENDBLK
  8
0
  0
BLOCK
  8
0
  2
D30
 70
64
 10
0.0
 20
0.0
  3
D30
  0
POLYLINE
  8
0
 66
1
 10
0.0
 20
0.0
 40
0
 41
0
 70
1
  0
VERTEX
  8
0
 10
0.009700
 20
-0.033300
 42
0
  0
VERTEX
  8
0
 10
0.030400
 20
0.016700
 42
0
  0
VERTEX
  8
0
 10
0.027400
 20
0.023800
 42
0
  0
VERTEX
  8
0
 10
-0.002500
 20
0.036200
 42
0
  0
VERTEX
  8
0
 10
-0.009700
 20
0.033300
 42
0
  0
VERTEX
  8
0
 10
-0.030400
 20
-0.016700
 42
0
  0
VERTEX
  8
0
 10
-0.027400
 20
-0.023800
 42
0
  0
VERTEX
  8
0
 10
0.002500
 20
-0.036200
 42
0
  0
SEQEND
  8
0
  0
CIRCLE
  8
0
 10
0.004600
 20
-0.031200
 40
0.005410
  0
CIRCLE
  8
0
 10
0.025300
 20
0.018800
 40
0.005410
  0
CIRCLE
  8
0
 10
-0.004600
 20
0.031200
 40
0.005410
  0
CIRCLE
  8
0
 10
-0.025300
 20
-0.018800
 40
0.005410
 0
ENDBLK
  8
0
  0
BLOCK
  8
0
  2
D31
 70
64
 10
0.0
 20
0.0
  3
D31
  0
CIRCLE
  8
0
 10
0.000000
 20
0.000000
 40
0.011810
 0
ENDBLK
  8
0
  0
BLOCK
  8
0
  2
D32
 70
64
 10
0.0
 20
0.0
  3
D32
  0
CIRCLE
  8
0
 10
0.000000
 20
0.000000
 40
0.004920
 0
ENDBLK
  8
0
  0
BLOCK
  8
0
  2
D33
 70
64
 10
0.0
 20
0.0
  3
D33
  0
CIRCLE
  8
0
 10
0.000000
 20
0.000000
 40
0.006000
 0
ENDBLK
  8
0
  0
BLOCK
  8
0
  2
D34
 70
64
 10
0.0
 20
0.0
  3
D34
  0
CIRCLE
  8
0
 10
0.000000
 20
0.000000
 40
0.002500
 0
ENDBLK
  8
0
  0
BLOCK
  8
0
  2
D35
 70
64
 10
0.0
 20
0.0
  3
D35
  0
CIRCLE
  8
0
 10
0.000000
 20
0.000000
 40
0.003935
 0
ENDBLK
  8
0
  0
BLOCK
  8
0
  2
D36
 70
64
 10
0.0
 20
0.0
  3
D36
  0
POLYLINE
  8
0
 66
1
 10
0.0
 20
0.0
 40
0
 41
0
 70
1
  0
VERTEX
  8
0
 10
-0.054000
 20
0.095500
 42
0
  0
VERTEX
  8
0
 10
-0.054000
 20
-0.095500
 42
0
  0
VERTEX
  8
0
 10
-0.040500
 20
-0.109000
 42
0
  0
VERTEX
  8
0
 10
0.040500
 20
-0.109000
 42
0
  0
VERTEX
  8
0
 10
0.054000
 20
-0.095500
 42
0
  0
VERTEX
  8
0
 10
0.054000
 20
0.095500
 42
0
  0
VERTEX
  8
0
 10
0.040500
 20
0.109000
 42
0
  0
VERTEX
  8
0
 10
-0.040500
 20
0.109000
 42
0
  0
SEQEND
  8
0
  0
CIRCLE
  8
0
 10
-0.040500
 20
0.095500
 40
0.013500
  0
CIRCLE
  8
0
 10
-0.040500
 20
-0.095500
 40
0.013500
  0
CIRCLE
  8
0
 10
0.040500
 20
-0.095500
 40
0.013500
  0
CIRCLE
  8
0
 10
0.040500
 20
0.095500
 40
0.013500
 0
ENDBLK
  8
0
  0
BLOCK
  8
0
  2
D37
 70
64
 10
0.0
 20
0.0
  3
D37
  0
POLYLINE
  8
0
 66
1
 10
0.0
 20
0.0
 40
0
 41
0
 70
1
  0
VERTEX
  8
0
 10
-0.021600
 20
-0.019700
 42
0
  0
VERTEX
  8
0
 10
0.021600
 20
-0.019700
 42
0
  0
VERTEX
  8
0
 10
0.029600
 20
-0.011800
 42
0
  0
VERTEX
  8
0
 10
0.029600
 20
0.011800
 42
0
  0
VERTEX
  8
0
 10
0.021600
 20
0.019700
 42
0
  0
VERTEX
  8
0
 10
-0.021600
 20
0.019700
 42
0
  0
VERTEX
  8
0
 10
-0.029600
 20
0.011800
 42
0
  0
VERTEX
  8
0
 10
-0.029600
 20
-0.011800
 42
0
  0
SEQEND
  8
0
  0
CIRCLE
  8
0
 10
-0.021600
 20
-0.011800
 40
0.007940
  0
CIRCLE
  8
0
 10
0.021600
 20
-0.011800
 40
0.007940
  0
CIRCLE
  8
0
 10
0.021600
 20
0.011800
 40
0.007940
  0
CIRCLE
  8
0
 10
-0.021600
 20
0.011800
 40
0.007940
 0
ENDBLK
  8
0
  0
BLOCK
  8
0
  2
D38
 70
64
 10
0.0
 20
0.0
  3
D38
  0
POLYLINE
  8
0
 66
1
 10
0.0
 20
0.0
 40
0
 41
0
 70
1
  0
VERTEX
  8
0
 10
0.019700
 20
-0.021600
 42
0
  0
VERTEX
  8
0
 10
0.019700
 20
0.021600
 42
0
  0
VERTEX
  8
0
 10
0.011800
 20
0.029600
 42
0
  0
VERTEX
  8
0
 10
-0.011800
 20
0.029600
 42
0
  0
VERTEX
  8
0
 10
-0.019700
 20
0.021600
 42
0
  0
VERTEX
  8
0
 10
-0.019700
 20
-0.021600
 42
0
  0
VERTEX
  8
0
 10
-0.011800
 20
-0.029600
 42
0
  0
VERTEX
  8
0
 10
0.011800
 20
-0.029600
 42
0
  0
SEQEND
  8
0
  0
CIRCLE
  8
0
 10
0.011800
 20
-0.021600
 40
0.007940
  0
CIRCLE
  8
0
 10
0.011800
 20
0.021600
 40
0.007940
  0
CIRCLE
  8
0
 10
-0.011800
 20
0.021600
 40
0.007940
  0
CIRCLE
  8
0
 10
-0.011800
 20
-0.021600
 40
0.007940
 0
ENDBLK
  8
0
  0
BLOCK
  8
0
  2
D39
 70
64
 10
0.0
 20
0.0
  3
D39
  0
POLYLINE
  8
0
 66
1
 10
0.0
 20
0.0
 40
0
 41
0
 70
1
  0
VERTEX
  8
0
 10
-0.023700
 20
0.022600
 42
0
  0
VERTEX
  8
0
 10
-0.023700
 20
-0.022600
 42
0
  0
VERTEX
  8
0
 10
-0.014800
 20
-0.031600
 42
0
  0
VERTEX
  8
0
 10
0.014800
 20
-0.031600
 42
0
  0
VERTEX
  8
0
 10
0.023700
 20
-0.022600
 42
0
  0
VERTEX
  8
0
 10
0.023700
 20
0.022600
 42
0
  0
VERTEX
  8
0
 10
0.014800
 20
0.031600
 42
0
  0
VERTEX
  8
0
 10
-0.014800
 20
0.031600
 42
0
  0
SEQEND
  8
0
  0
CIRCLE
  8
0
 10
-0.014800
 20
0.022600
 40
0.008920
  0
CIRCLE
  8
0
 10
-0.014800
 20
-0.022600
 40
0.008920
  0
CIRCLE
  8
0
 10
0.014800
 20
-0.022600
 40
0.008920
  0
CIRCLE
  8
0
 10
0.014800
 20
0.022600
 40
0.008920
 0
ENDBLK
  8
0
  0
BLOCK
  8
0
  2
D40
 70
64
 10
0.0
 20
0.0
  3
D40
  0
POLYLINE
  8
0
 66
1
 10
0.0
 20
0.0
 40
0
 41
0
 70
1
  0
VERTEX
  8
0
 10
0.015800
 20
0.026500
 42
0
  0
VERTEX
  8
0
 10
-0.015800
 20
0.026500
 42
0
  0
VERTEX
  8
0
 10
-0.015800
 20
-0.026500
 42
0
  0
VERTEX
  8
0
 10
0.015800
 20
-0.026500
 42
0
  0
SEQEND
  8
0
  0
CIRCLE
  8
0
 10
0.000000
 20
0.026500
 40
0.015810
  0
CIRCLE
  8
0
 10
0.000000
 20
-0.026500
 40
0.015810
 0
ENDBLK
  8
0
  0
BLOCK
  8
0
  2
D41
 70
64
 10
0.0
 20
0.0
  3
D41
  0
POLYLINE
  8
0
 66
1
 10
0.0
 20
0.0
 40
0
 41
0
 70
1
  0
VERTEX
  8
0
 10
0.026500
 20
0.015800
 42
0
  0
VERTEX
  8
0
 10
-0.026500
 20
0.015800
 42
0
  0
VERTEX
  8
0
 10
-0.026500
 20
-0.015800
 42
0
  0
VERTEX
  8
0
 10
0.026500
 20
-0.015800
 42
0
  0
SEQEND
  8
0
  0
CIRCLE
  8
0
 10
-0.026500
 20
0.000000
 40
0.015810
  0
CIRCLE
  8
0
 10
0.026500
 20
0.000000
 40
0.015810
 0
ENDBLK
  8
0
  0
BLOCK
  8
0
  2
D42
 70
64
 10
0.0
 20
0.0
  3
D42
  0
POLYLINE
  8
0
 66
1
 10
0.0
 20
0.0
 40
0
 41
0
 70
1
  0
VERTEX
  8
0
 10
-0.054000
 20
0.030000
 42
0
  0
VERTEX
  8
0
 10
-0.054000
 20
-0.030000
 42
0
  0
VERTEX
  8
0
 10
-0.040000
 20
-0.044000
 42
0
  0
VERTEX
  8
0
 10
0.040000
 20
-0.044000
 42
0
  0
VERTEX
  8
0
 10
0.054000
 20
-0.030000
 42
0
  0
VERTEX
  8
0
 10
0.054000
 20
0.030000
 42
0
  0
VERTEX
  8
0
 10
0.040000
 20
0.044000
 42
0
  0
VERTEX
  8
0
 10
-0.040000
 20
0.044000
 42
0
  0
SEQEND
  8
0
  0
CIRCLE
  8
0
 10
-0.040000
 20
0.030000
 40
0.014000
  0
CIRCLE
  8
0
 10
-0.040000
 20
-0.030000
 40
0.014000
  0
CIRCLE
  8
0
 10
0.040000
 20
-0.030000
 40
0.014000
  0
CIRCLE
  8
0
 10
0.040000
 20
0.030000
 40
0.014000
 0
ENDBLK
  8
0
  0
BLOCK
  8
0
  2
D43
 70
64
 10
0.0
 20
0.0
  3
D43
  0
POLYLINE
  8
0
 66
1
 10
0.0
 20
0.0
 40
0
 41
0
 70
1
  0
VERTEX
  8
0
 10
-0.054000
 20
0.018700
 42
0
  0
VERTEX
  8
0
 10
-0.054000
 20
-0.018700
 42
0
  0
VERTEX
  8
0
 10
-0.043700
 20
-0.029000
 42
0
  0
VERTEX
  8
0
 10
0.043700
 20
-0.029000
 42
0
  0
VERTEX
  8
0
 10
0.054000
 20
-0.018700
 42
0
  0
VERTEX
  8
0
 10
0.054000
 20
0.018700
 42
0
  0
VERTEX
  8
0
 10
0.043700
 20
0.029000
 42
0
  0
VERTEX
  8
0
 10
-0.043700
 20
0.029000
 42
0
  0
SEQEND
  8
0
  0
CIRCLE
  8
0
 10
-0.043700
 20
0.018700
 40
0.010250
  0
CIRCLE
  8
0
 10
-0.043700
 20
-0.018700
 40
0.010250
  0
CIRCLE
  8
0
 10
0.043700
 20
-0.018700
 40
0.010250
  0
CIRCLE
  8
0
 10
0.043700
 20
0.018700
 40
0.010250
 0
ENDBLK
  8
0
  0
BLOCK
  8
0
  2
D44
 70
64
 10
0.0
 20
0.0
  3
D44
  0
CIRCLE
  8
0
 10
0.000000
 20
0.000000
 40
0.034000
 0
ENDBLK
  8
0
  0
BLOCK
  8
0
  2
D45
 70
64
 10
0.0
 20
0.0
  3
D45
  0
CIRCLE
  8
0
 10
0.000000
 20
0.000000
 40
0.122110
 0
ENDBLK
  8
0
  0
BLOCK
  8
0
  2
D46
 70
64
 10
0.0
 20
0.0
  3
D46
  0
POLYLINE
  8
0
 66
1
 10
0.0
 20
0.0
 70
1
 40
0.0
 41
0.0
  0
VERTEX
  8
0
 10
-0.033530
 20
-0.033530
  0
VERTEX
  8
0
 10
0.033530
 20
-0.033530
  0
VERTEX
  8
0
 10
0.033530
 20
0.033530
  0
VERTEX
  8
0
 10
-0.033530
 20
0.033530
  0
SEQEND
  8
0
 0
ENDBLK
  8
0
  0
BLOCK
  8
0
  2
D47
 70
64
 10
0.0
 20
0.0
  3
D47
  0
CIRCLE
  8
0
 10
0.000000
 20
0.000000
 40
0.033530
 0
ENDBLK
  8
0
  0
BLOCK
  8
0
  2
D48
 70
64
 10
0.0
 20
0.0
  3
D48
  0
POLYLINE
  8
0
 66
1
 10
0.0
 20
0.0
 70
1
 40
0.0
 41
0.0
  0
VERTEX
  8
0
 10
-0.033530
 20
-0.033530
  0
VERTEX
  8
0
 10
0.033530
 20
-0.033530
  0
VERTEX
  8
0
 10
0.033530
 20
0.033530
  0
VERTEX
  8
0
 10
-0.033530
 20
0.033530
  0
SEQEND
  8
0
 0
ENDBLK
  8
0
  0
BLOCK
  8
0
  2
D49
 70
64
 10
0.0
 20
0.0
  3
D49
  0
POLYLINE
  8
0
 66
1
 10
0.0
 20
0.0
 70
1
 40
0.0
 41
0.0
  0
VERTEX
  8
0
 10
-0.034000
 20
-0.034000
  0
VERTEX
  8
0
 10
0.034000
 20
-0.034000
  0
VERTEX
  8
0
 10
0.034000
 20
0.034000
  0
VERTEX
  8
0
 10
-0.034000
 20
0.034000
  0
SEQEND
  8
0
 0
ENDBLK
  8
0
  0
BLOCK
  8
0
  2
D50
 70
64
 10
0.0
 20
0.0
  3
D50
  0
CIRCLE
  8
0
 10
0.000000
 20
0.000000
 40
0.047305
 0
ENDBLK
  8
0
  0
BLOCK
  8
0
  2
D51
 70
64
 10
0.0
 20
0.0
  3
D51
  0
CIRCLE
  8
0
 10
0.000000
 20
0.000000
 40
0.004000
 0
ENDBLK
  8
0
  0
BLOCK
  8
0
  2
D52
 70
64
 10
0.0
 20
0.0
  3
D52
  0
POLYLINE
  8
0
 66
1
 10
0.0
 20
0.0
 40
0
 41
0
 70
1
  0
VERTEX
  8
0
 10
0.025700
 20
-0.027100
 42
0
  0
VERTEX
  8
0
 10
0.025700
 20
0.027100
 42
0
  0
VERTEX
  8
0
 10
0.016200
 20
0.036500
 42
0
  0
VERTEX
  8
0
 10
-0.016200
 20
0.036500
 42
0
  0
VERTEX
  8
0
 10
-0.025700
 20
0.027100
 42
0
  0
VERTEX
  8
0
 10
-0.025700
 20
-0.027100
 42
0
  0
VERTEX
  8
0
 10
-0.016200
 20
-0.036500
 42
0
  0
VERTEX
  8
0
 10
0.016200
 20
-0.036500
 42
0
  0
SEQEND
  8
0
  0
CIRCLE
  8
0
 10
0.016200
 20
-0.027100
 40
0.009410
  0
CIRCLE
  8
0
 10
0.016200
 20
0.027100
 40
0.009410
  0
CIRCLE
  8
0
 10
-0.016200
 20
0.027100
 40
0.009410
  0
CIRCLE
  8
0
 10
-0.016200
 20
-0.027100
 40
0.009410
 0
ENDBLK
  8
0
  0
BLOCK
  8
0
  2
D53
 70
64
 10
0.0
 20
0.0
  3
D53
  0
POLYLINE
  8
0
 66
1
 10
0.0
 20
0.0
 40
0
 41
0
 70
1
  0
VERTEX
  8
0
 10
0.027100
 20
0.025700
 42
0
  0
VERTEX
  8
0
 10
-0.027100
 20
0.025700
 42
0
  0
VERTEX
  8
0
 10
-0.036500
 20
0.016200
 42
0
  0
VERTEX
  8
0
 10
-0.036500
 20
-0.016200
 42
0
  0
VERTEX
  8
0
 10
-0.027100
 20
-0.025700
 42
0
  0
VERTEX
  8
0
 10
0.027100
 20
-0.025700
 42
0
  0
VERTEX
  8
0
 10
0.036500
 20
-0.016200
 42
0
  0
VERTEX
  8
0
 10
0.036500
 20
0.016200
 42
0
  0
SEQEND
  8
0
  0
CIRCLE
  8
0
 10
0.027100
 20
0.016200
 40
0.009410
  0
CIRCLE
  8
0
 10
-0.027100
 20
0.016200
 40
0.009410
  0
CIRCLE
  8
0
 10
-0.027100
 20
-0.016200
 40
0.009410
  0
CIRCLE
  8
0
 10
0.027100
 20
-0.016200
 40
0.009410
 0
ENDBLK
  8
0
  0
BLOCK
  8
0
  2
D54
 70
64
 10
0.0
 20
0.0
  3
D54
  0
POLYLINE
  8
0
 66
1
 10
0.0
 20
0.0
 40
0
 41
0
 70
1
  0
VERTEX
  8
0
 10
0.013400
 20
-0.034900
 42
0
  0
VERTEX
  8
0
 10
0.034100
 20
0.015200
 42
0
  0
VERTEX
  8
0
 10
0.028900
 20
0.027500
 42
0
  0
VERTEX
  8
0
 10
-0.001000
 20
0.039900
 42
0
  0
VERTEX
  8
0
 10
-0.013400
 20
0.034900
 42
0
  0
VERTEX
  8
0
 10
-0.034100
 20
-0.015200
 42
0
  0
VERTEX
  8
0
 10
-0.028900
 20
-0.027500
 42
0
  0
VERTEX
  8
0
 10
0.001000
 20
-0.039900
 42
0
  0
SEQEND
  8
0
  0
CIRCLE
  8
0
 10
0.004600
 20
-0.031200
 40
0.009410
  0
CIRCLE
  8
0
 10
0.025300
 20
0.018800
 40
0.009410
  0
CIRCLE
  8
0
 10
-0.004600
 20
0.031200
 40
0.009410
  0
CIRCLE
  8
0
 10
-0.025300
 20
-0.018800
 40
0.009410
 0
ENDBLK
  8
0
  0
BLOCK
  8
0
  2
D9500
 70
64
 10
0.0
 20
0.0
  3
D9500
  0
CIRCLE
  8
0
 10
0.000000
 20
0.000000
 40
0.009840
 0
ENDBLK
  8
0
  0
BLOCK
  8
0
  2
D9501
 70
64
 10
0.0
 20
0.0
  3
D9501
  0
CIRCLE
  8
0
 10
0.000000
 20
0.000000
 40
0.015000
 0
ENDBLK
  8
0
  0
BLOCK
  8
0
  2
D9502
 70
64
 10
0.0
 20
0.0
  3
D9502
  0
CIRCLE
  8
0
 10
0.000000
 20
0.000000
 40
0.017715
 0
ENDBLK
  8
0
  0
BLOCK
  8
0
  2
D9503
 70
64
 10
0.0
 20
0.0
  3
D9503
  0
CIRCLE
  8
0
 10
0.000000
 20
0.000000
 40
0.019685
 0
ENDBLK
  8
0
  0
BLOCK
  8
0
  2
D9504
 70
64
 10
0.0
 20
0.0
  3
D9504
  0
CIRCLE
  8
0
 10
0.000000
 20
0.000000
 40
0.029530
 0
ENDBLK
  8
0
  0
BLOCK
  8
0
  2
D9505
 70
64
 10
0.0
 20
0.0
  3
D9505
  0
CIRCLE
  8
0
 10
0.000000
 20
0.000000
 40
0.033465
 0
ENDBLK
  8
0
  0
BLOCK
  8
0
  2
D9506
 70
64
 10
0.0
 20
0.0
  3
D9506
  0
CIRCLE
  8
0
 10
0.000000
 20
0.000000
 40
0.059055
 0
ENDBLK
  8
0
  0
BLOCK
  8
0
  2
D9507
 70
64
 10
0.0
 20
0.0
  3
D9507
  0
CIRCLE
  8
0
 10
0.000000
 20
0.000000
 40
0.060000
 0
ENDBLK
  8
0
  0
BLOCK
  8
0
  2
D9508
 70
64
 10
0.0
 20
0.0
  3
D9508
  0
CIRCLE
  8
0
 10
0.000000
 20
0.000000
 40
0.078500
 0
ENDBLK
  8
0
  0
BLOCK
  8
0
  2
D9509
 70
64
 10
0.0
 20
0.0
  3
D9509
  0
CIRCLE
  8
0
 10
0.000000
 20
0.000000
 40
0.078740
 0
ENDBLK
  8
0
  0
ENDSEC
  0
SECTION
  2
ENTITIES
  0
POLYLINE
  8
gm4
 62
1
 40
0.000000
 41
0.000000
 66
  1
  0
VERTEX
  8
gm4
 10
6.296140
 20
4.777560
  0
VERTEX
  8
gm4
 10
6.295290
 20
4.787540
  0
VERTEX
  8
gm4
 10
6.292770
 20
4.797230
  0
VERTEX
  8
gm4
 10
6.288640
 20
4.806360
  0
VERTEX
  8
gm4
 10
6.283030
 20
4.814660
  0
VERTEX
  8
gm4
 10
6.276100
 20
4.821890
  0
VERTEX
  8
gm4
 10
6.268050
 20
4.827850
  0
VERTEX
  8
gm4
 10
6.259110
 20
4.832360
  0
VERTEX
  8
gm4
 10
6.249530
 20
4.835290
  0
VERTEX
  8
gm4
 10
6.239590
 20
4.836560
  0
VERTEX
  8
gm4
 10
6.229590
 20
4.836140
  0
VERTEX
  8
gm4
 10
6.219790
 20
4.834030
  0
VERTEX
  8
gm4
 10
6.210500
 20
4.830290
  0
VERTEX
  8
gm4
 10
6.201970
 20
4.825040
  0
VERTEX
  8
gm4
 10
6.194450
 20
4.818420
  0
VERTEX
  8
gm4
 10
6.188160
 20
4.810630
  0
VERTEX
  8
gm4
 10
6.183270
 20
4.801880
  0
VERTEX
  8
gm4
 10
6.179940
 20
4.792440
  0
VERTEX
  8
gm4
 10
6.178240
 20
4.782570
  0
VERTEX
  8
gm4
 10
6.178240
 20
4.772550
  0
VERTEX
  8
gm4
 10
6.179940
 20
4.762680
  0
VERTEX
  8
gm4
 10
6.183270
 20
4.753230
  0
VERTEX
  8
gm4
 10
6.188160
 20
4.744490
  0
VERTEX
  8
gm4
 10
6.194450
 20
4.736700
  0
VERTEX
  8
gm4
 10
6.201970
 20
4.730080
  0
VERTEX
  8
gm4
 10
6.210500
 20
4.724830
  0
VERTEX
  8
gm4
 10
6.219790
 20
4.721090
  0
VERTEX
  8
gm4
 10
6.229590
 20
4.718980
  0
VERTEX
  8
gm4
 10
6.239590
 20
4.718560
  0
VERTEX
  8
gm4
 10
6.249530
 20
4.719830
  0
VERTEX
  8
gm4
 10
6.259110
 20
4.722760
  0
VERTEX
  8
gm4
 10
6.268050
 20
4.727270
  0
VERTEX
  8
gm4
 10
6.276100
 20
4.733230
  0
VERTEX
  8
gm4
 10
6.283030
 20
4.740460
  0
VERTEX
  8
gm4
 10
6.288640
 20
4.748760
  0
VERTEX
  8
gm4
 10
6.292770
 20
4.757890
  0
VERTEX
  8
gm4
 10
6.295290
 20
4.767580
  0
VERTEX
  8
gm4
 10
6.296140
 20
4.777560
  0
SEQEND
  8
gm4
  0
POLYLINE
  8
gm4
 62
1
 40
0.000000
 41
0.000000
 66
  1
  0
VERTEX
  8
gm4
 10
5.148180
 20
4.015120
  0
VERTEX
  8
gm4
 10
5.147330
 20
4.025100
  0
VERTEX
  8
gm4
 10
5.144810
 20
4.034800
  0
VERTEX
  8
gm4
 10
5.140680
 20
4.043930
  0
VERTEX
  8
gm4
 10
5.135070
 20
4.052230
  0
VERTEX
  8
gm4
 10
5.128140
 20
4.059460
  0
VERTEX
  8
gm4
 10
5.120090
 20
4.065410
  0
VERTEX
  8
gm4
 10
5.111140
 20
4.069920
  0
VERTEX
  8
gm4
 10
5.101570
 20
4.072850
  0
VERTEX
  8
gm4
 10
5.091630
 20
4.074130
  0
VERTEX
  8
gm4
 10
5.081620
 20
4.073700
  0
VERTEX
  8
gm4
 10
5.071830
 20
4.071590
  0
VERTEX
  8
gm4
 10
5.062540
 20
4.067860
  0
VERTEX
  8
gm4
 10
5.054010
 20
4.062600
  0
VERTEX
  8
gm4
 10
5.046490
 20
4.055990
  0
VERTEX
  8
gm4
 10
5.040200
 20
4.048190
  0
VERTEX
  8
gm4
 10
5.035310
 20
4.039450
  0
VERTEX
  8
gm4
 10
5.031970
 20
4.030010
  0
VERTEX
  8
gm4
 10
5.030280
 20
4.020130
  0
VERTEX
  8
gm4
 10
5.030280
 20
4.010120
  0
VERTEX
  8
gm4
 10
5.031970
 20
4.000240
  0
VERTEX
  8
gm4
 10
5.035310
 20
3.990800
  0
VERTEX
  8
gm4
 10
5.040200
 20
3.982060
  0
VERTEX
  8
gm4
 10
5.046490
 20
3.974260
  0
VERTEX
  8
gm4
 10
5.054010
 20
3.967640
  0
VERTEX
  8
gm4
 10
5.062540
 20
3.962390
  0
VERTEX
  8
gm4
 10
5.071830
 20
3.958660
  0
VERTEX
  8
gm4
 10
5.081620
 20
3.956550
  0
VERTEX
  8
gm4
 10
5.091630
 20
3.956120
  0
VERTEX
  8
gm4
 10
5.101570
 20
3.957400
  0
VERTEX
  8
gm4
 10
5.111140
 20
3.960330
  0
VERTEX
  8
gm4
 10
5.120090
 20
3.964840
  0
VERTEX
  8
gm4
 10
5.128140
 20
3.970790
  0
VERTEX
  8
gm4
 10
5.135070
 20
3.978030
  0
VERTEX
  8
gm4
 10
5.140680
 20
3.986320
  0
VERTEX
  8
gm4
 10
5.144810
 20
3.995450
  0
VERTEX
  8
gm4
 10
5.147330
 20
4.005150
  0
VERTEX
  8
gm4
 10
5.148180
 20
4.015120
  0
SEQEND
  8
gm4
  0
POLYLINE
  8
gm4
 62
1
 40
0.000000
 41
0.000000
 66
  1
  0
VERTEX
  8
gm4
 10
5.543430
 20
2.521130
  0
VERTEX
  8
gm4
 10
5.542580
 20
2.531110
  0
VERTEX
  8
gm4
 10
5.540060
 20
2.540800
  0
VERTEX
  8
gm4
 10
5.535930
 20
2.549930
  0
VERTEX
  8
gm4
 10
5.530320
 20
2.558220
  0
VERTEX
  8
gm4
 10
5.523390
 20
2.565460
  0
VERTEX
  8
gm4
 10
5.515340
 20
2.571410
  0
VERTEX
  8
gm4
 10
5.506390
 20
2.575920
  0
VERTEX
  8
gm4
 10
5.496820
 20
2.578860
  0
VERTEX
  8
gm4
 10
5.486880
 20
2.580130
  0
VERTEX
  8
gm4
 10
5.476870
 20
2.579700
  0
VERTEX
  8
gm4
 10
5.467080
 20
2.577590
  0
VERTEX
  8
gm4
 10
5.457790
 20
2.573860
  0
VERTEX
  8
gm4
 10
5.449260
 20
2.568600
  0
VERTEX
  8
gm4
 10
5.441740
 20
2.561990
  0
VERTEX
  8
gm4
 10
5.435450
 20
2.554190
  0
VERTEX
  8
gm4
 10
5.430560
 20
2.545450
  0
VERTEX
  8
gm4
 10
5.427230
 20
2.536010
  0
VERTEX
  8
gm4
 10
5.425530
 20
2.526130
  0
VERTEX
  8
gm4
 10
5.425530
 20
2.516120
  0
VERTEX
  8
gm4
 10
5.427230
 20
2.506240
  0
VERTEX
  8
gm4
 10
5.430560
 20
2.496800
  0
VERTEX
  8
gm4
 10
5.435450
 20
2.488060
  0
VERTEX
  8
gm4
 10
5.441740
 20
2.480260
  0
VERTEX
  8
gm4
 10
5.449260
 20
2.473640
  0
VERTEX
  8
gm4
 10
5.457790
 20
2.468390
  0
VERTEX
  8
gm4
 10
5.467080
 20
2.464660
  0
VERTEX
  8
gm4
 10
5.476870
 20
2.462550
  0
VERTEX
  8
gm4
 10
5.486880
 20
2.462120
  0
VERTEX
  8
gm4
 10
5.496820
 20
2.463400
  0
VERTEX
  8
gm4
 10
5.506390
 20
2.466330
  0
VERTEX
  8
gm4
 10
5.515340
 20
2.470840
  0
VERTEX
  8
gm4
 10
5.523390
 20
2.476790
  0
VERTEX
  8
gm4
 10
5.530320
 20
2.484030
  0
VERTEX
  8
gm4
 10
5.535930
 20
2.492320
  0
VERTEX
  8
gm4
 10
5.540060
 20
2.501450
  0
VERTEX
  8
gm4
 10
5.542580
 20
2.511150
  0
VERTEX
  8
gm4
 10
5.543430
 20
2.521130
  0
SEQEND
  8
gm4
  0
POLYLINE
  8
gm4
 62
1
 40
0.000000
 41
0.000000
 66
  1
  0
VERTEX
  8
gm4
 10
11.355930
 20
4.781250
  0
VERTEX
  8
gm4
 10
11.355080
 20
4.791230
  0
VERTEX
  8
gm4
 10
11.352560
 20
4.800920
  0
VERTEX
  8
gm4
 10
11.348430
 20
4.810050
  0
VERTEX
  8
gm4
 10
11.342820
 20
4.818350
  0
VERTEX
  8
gm4
 10
11.335890
 20
4.825580
  0
VERTEX
  8
gm4
 10
11.327840
 20
4.831540
  0
VERTEX
  8
gm4
 10
11.318890
 20
4.836050
  0
VERTEX
  8
gm4
 10
11.309320
 20
4.838980
  0
VERTEX
  8
gm4
 10
11.299380
 20
4.840250
  0
VERTEX
  8
gm4
 10
11.289370
 20
4.839830
  0
VERTEX
  8
gm4
 10
11.279580
 20
4.837720
  0
VERTEX
  8
gm4
 10
11.270290
 20
4.833980
  0
VERTEX
  8
gm4
 10
11.261760
 20
4.828730
  0
VERTEX
  8
gm4
 10
11.254240
 20
4.822110
  0
VERTEX
  8
gm4
 10
11.247950
 20
4.814320
  0
VERTEX
  8
gm4
 10
11.243060
 20
4.805570
  0
VERTEX
  8
gm4
 10
11.239730
 20
4.796130
  0
VERTEX
  8
gm4
 10
11.238030
 20
4.786260
  0
VERTEX
  8
gm4
 10
11.238030
 20
4.776240
  0
VERTEX
  8
gm4
 10
11.239730
 20
4.766370
  0
VERTEX
  8
gm4
 10
11.243060
 20
4.756930
  0
VERTEX
  8
gm4
 10
11.247950
 20
4.748180
  0
VERTEX
  8
gm4
 10
11.254240
 20
4.740390
  0
VERTEX
  8
gm4
 10
11.261760
 20
4.733770
  0
VERTEX
  8
gm4
 10
11.270290
 20
4.728520
  0
VERTEX
  8
gm4
 10
11.279580
 20
4.724780
  0
VERTEX
  8
gm4
 10
11.289370
 20
4.722670
  0
VERTEX
  8
gm4
 10
11.299380
 20
4.722250
  0
VERTEX
  8
gm4
 10
11.309320
 20
4.723520
  0
VERTEX
  8
gm4
 10
11.318890
 20
4.726450
  0
VERTEX
  8
gm4
 10
11.327840
 20
4.730960
  0
VERTEX
  8
gm4
 10
11.335890
 20
4.736920
  0
VERTEX
  8
gm4
 10
11.342820
 20
4.744150
  0
VERTEX
  8
gm4
 10
11.348430
 20
4.752450
  0
VERTEX
  8
gm4
 10
11.352560
 20
4.761580
  0
VERTEX
  8
gm4
 10
11.355080
 20
4.771270
  0
VERTEX
  8
gm4
 10
11.355930
 20
4.781250
  0
SEQEND
  8
gm4
  0
POLYLINE
  8
gm4
 62
1
 40
0.000000
 41
0.000000
 66
  1
  0
VERTEX
  8
gm4
 10
10.980930
 20
3.093750
  0
VERTEX
  8
gm4
 10
10.980080
 20
3.103730
  0
VERTEX
  8
gm4
 10
10.977560
 20
3.113420
  0
VERTEX
  8
gm4
 10
10.973430
 20
3.122550
  0
VERTEX
  8
gm4
 10
10.967820
 20
3.130850
  0
VERTEX
  8
gm4
 10
10.960890
 20
3.138080
  0
VERTEX
  8
gm4
 10
10.952840
 20
3.144040
  0
VERTEX
  8
gm4
 10
10.943890
 20
3.148550
  0
VERTEX
  8
gm4
 10
10.934320
 20
3.151480
  0
VERTEX
  8
gm4
 10
10.924380
 20
3.152750
  0
VERTEX
  8
gm4
 10
10.914370
 20
3.152330
  0
VERTEX
  8
gm4
 10
10.904580
 20
3.150220
  0
VERTEX
  8
gm4
 10
10.895290
 20
3.146480
  0
VERTEX
  8
gm4
 10
10.886760
 20
3.141230
  0
VERTEX
  8
gm4
 10
10.879240
 20
3.134610
  0
VERTEX
  8
gm4
 10
10.872950
 20
3.126820
  0
VERTEX
  8
gm4
 10
10.868060
 20
3.118070
  0
VERTEX
  8
gm4
 10
10.864730
 20
3.108630
  0
VERTEX
  8
gm4
 10
10.863030
 20
3.098760
  0
VERTEX
  8
gm4
 10
10.863030
 20
3.088740
  0
VERTEX
  8
gm4
 10
10.864730
 20
3.078870
  0
VERTEX
  8
gm4
 10
10.868060
 20
3.069430
  0
VERTEX
  8
gm4
 10
10.872950
 20
3.060680
  0
VERTEX
  8
gm4
 10
10.879240
 20
3.052890
  0
VERTEX
  8
gm4
 10
10.886760
 20
3.046270
  0
VERTEX
  8
gm4
 10
10.895290
 20
3.041020
  0
VERTEX
  8
gm4
 10
10.904580
 20
3.037280
  0
VERTEX
  8
gm4
 10
10.914370
 20
3.035170
  0
VERTEX
  8
gm4
 10
10.924380
 20
3.034750
  0
VERTEX
  8
gm4
 10
10.934320
 20
3.036020
  0
VERTEX
  8
gm4
 10
10.943890
 20
3.038950
  0
VERTEX
  8
gm4
 10
10.952840
 20
3.043460
  0
VERTEX
  8
gm4
 10
10.960890
 20
3.049420
  0
VERTEX
  8
gm4
 10
10.967820
 20
3.056650
  0
VERTEX
  8
gm4
 10
10.973430
 20
3.064950
  0
VERTEX
  8
gm4
 10
10.977560
 20
3.074080
  0
VERTEX
  8
gm4
 10
10.980080
 20
3.083770
  0
VERTEX
  8
gm4
 10
10.980930
 20
3.093750
  0
SEQEND
  8
gm4
  0
POLYLINE
  8
gm4
 62
1
 40
0.000000
 41
0.000000
 66
  1
  0
VERTEX
  8
gm4
 10
12.762180
 20
2.531250
  0
VERTEX
  8
gm4
 10
12.761330
 20
2.541230
  0
VERTEX
  8
gm4
 10
12.758810
 20
2.550920
  0
VERTEX
  8
gm4
 10
12.754680
 20
2.560050
  0
VERTEX
  8
gm4
 10
12.749070
 20
2.568350
  0
VERTEX
  8
gm4
 10
12.742140
 20
2.575580
  0
VERTEX
  8
gm4
 10
12.734090
 20
2.581540
  0
VERTEX
  8
gm4
 10
12.725140
 20
2.586050
  0
VERTEX
  8
gm4
 10
12.715570
 20
2.588980
  0
VERTEX
  8
gm4
 10
12.705630
 20
2.590250
  0
VERTEX
  8
gm4
 10
12.695620
 20
2.589830
  0
VERTEX
  8
gm4
 10
12.685830
 20
2.587720
  0
VERTEX
  8
gm4
 10
12.676540
 20
2.583980
  0
VERTEX
  8
gm4
 10
12.668010
 20
2.578730
  0
VERTEX
  8
gm4
 10
12.660490
 20
2.572110
  0
VERTEX
  8
gm4
 10
12.654200
 20
2.564320
  0
VERTEX
  8
gm4
 10
12.649310
 20
2.555570
  0
VERTEX
  8
gm4
 10
12.645980
 20
2.546130
  0
VERTEX
  8
gm4
 10
12.644280
 20
2.536260
  0
VERTEX
  8
gm4
 10
12.644280
 20
2.526240
  0
VERTEX
  8
gm4
 10
12.645980
 20
2.516370
  0
VERTEX
  8
gm4
 10
12.649310
 20
2.506930
  0
VERTEX
  8
gm4
 10
12.654200
 20
2.498180
  0
VERTEX
  8
gm4
 10
12.660490
 20
2.490390
  0
VERTEX
  8
gm4
 10
12.668010
 20
2.483770
  0
VERTEX
  8
gm4
 10
12.676540
 20
2.478520
  0
VERTEX
  8
gm4
 10
12.685830
 20
2.474780
  0
VERTEX
  8
gm4
 10
12.695620
 20
2.472670
  0
VERTEX
  8
gm4
 10
12.705630
 20
2.472250
  0
VERTEX
  8
gm4
 10
12.715570
 20
2.473520
  0
VERTEX
  8
gm4
 10
12.725140
 20
2.476450
  0
VERTEX
  8
gm4
 10
12.734090
 20
2.480960
  0
VERTEX
  8
gm4
 10
12.742140
 20
2.486920
  0
VERTEX
  8
gm4
 10
12.749070
 20
2.494150
  0
VERTEX
  8
gm4
 10
12.754680
 20
2.502450
  0
VERTEX
  8
gm4
 10
12.758810
 20
2.511580
  0
VERTEX
  8
gm4
 10
12.761330
 20
2.521270
  0
VERTEX
  8
gm4
 10
12.762180
 20
2.531250
  0
SEQEND
  8
gm4
  0
POLYLINE
  8
gm4
 62
1
 40
0.000000
 41
0.000000
 66
  1
  0
VERTEX
  8
gm4
 10
14.637180
 20
3.093750
  0
VERTEX
  8
gm4
 10
14.636330
 20
3.103730
  0
VERTEX
  8
gm4
 10
14.633810
 20
3.113420
  0
VERTEX
  8
gm4
 10
14.629680
 20
3.122550
  0
VERTEX
  8
gm4
 10
14.624070
 20
3.130850
  0
VERTEX
  8
gm4
 10
14.617140
 20
3.138080
  0
VERTEX
  8
gm4
 10
14.609090
 20
3.144040
  0
VERTEX
  8
gm4
 10
14.600140
 20
3.148550
  0
VERTEX
  8
gm4
 10
14.590570
 20
3.151480
  0
VERTEX
  8
gm4
 10
14.580630
 20
3.152750
  0
VERTEX
  8
gm4
 10
14.570620
 20
3.152330
  0
VERTEX
  8
gm4
 10
14.560830
 20
3.150220
  0
VERTEX
  8
gm4
 10
14.551540
 20
3.146480
  0
VERTEX
  8
gm4
 10
14.543010
 20
3.141230
  0
VERTEX
  8
gm4
 10
14.535490
 20
3.134610
  0
VERTEX
  8
gm4
 10
14.529200
 20
3.126820
  0
VERTEX
  8
gm4
 10
14.524310
 20
3.118070
  0
VERTEX
  8
gm4
 10
14.520980
 20
3.108630
  0
VERTEX
  8
gm4
 10
14.519280
 20
3.098760
  0
VERTEX
  8
gm4
 10
14.519280
 20
3.088740
  0
VERTEX
  8
gm4
 10
14.520980
 20
3.078870
  0
VERTEX
  8
gm4
 10
14.524310
 20
3.069430
  0
VERTEX
  8
gm4
 10
14.529200
 20
3.060680
  0
VERTEX
  8
gm4
 10
14.535490
 20
3.052890
  0
VERTEX
  8
gm4
 10
14.543010
 20
3.046270
  0
VERTEX
  8
gm4
 10
14.551540
 20
3.041020
  0
VERTEX
  8
gm4
 10
14.560830
 20
3.037280
  0
VERTEX
  8
gm4
 10
14.570620
 20
3.035170
  0
VERTEX
  8
gm4
 10
14.580630
 20
3.034750
  0
VERTEX
  8
gm4
 10
14.590570
 20
3.036020
  0
VERTEX
  8
gm4
 10
14.600140
 20
3.038950
  0
VERTEX
  8
gm4
 10
14.609090
 20
3.043460
  0
VERTEX
  8
gm4
 10
14.617140
 20
3.049420
  0
VERTEX
  8
gm4
 10
14.624070
 20
3.056650
  0
VERTEX
  8
gm4
 10
14.629680
 20
3.064950
  0
VERTEX
  8
gm4
 10
14.633810
 20
3.074080
  0
VERTEX
  8
gm4
 10
14.636330
 20
3.083770
  0
VERTEX
  8
gm4
 10
14.637180
 20
3.093750
  0
SEQEND
  8
gm4
  0
POLYLINE
  8
gm4
 62
1
 40
0.000000
 41
0.000000
 66
  1
  0
VERTEX
  8
gm4
 10
17.831580
 20
5.131890
  0
VERTEX
  8
gm4
 10
17.830720
 20
5.141870
  0
VERTEX
  8
gm4
 10
17.828200
 20
5.151560
  0
VERTEX
  8
gm4
 10
17.824080
 20
5.160690
  0
VERTEX
  8
gm4
 10
17.818470
 20
5.168990
  0
VERTEX
  8
gm4
 10
17.811540
 20
5.176220
  0
VERTEX
  8
gm4
 10
17.803480
 20
5.182180
  0
VERTEX
  8
gm4
 10
17.794540
 20
5.186690
  0
VERTEX
  8
gm4
 10
17.784960
 20
5.189620
  0
VERTEX
  8
gm4
 10
17.775030
 20
5.190890
  0
VERTEX
  8
gm4
 10
17.765020
 20
5.190470
  0
VERTEX
  8
gm4
 10
17.755230
 20
5.188360
  0
VERTEX
  8
gm4
 10
17.745930
 20
5.184620
  0
VERTEX
  8
gm4
 10
17.737400
 20
5.179370
  0
VERTEX
  8
gm4
 10
17.729890
 20
5.172750
  0
VERTEX
  8
gm4
 10
17.723590
 20
5.164960
  0
VERTEX
  8
gm4
 10
17.718710
 20
5.156220
  0
VERTEX
  8
gm4
 10
17.715370
 20
5.146770
  0
VERTEX
  8
gm4
 10
17.713680
 20
5.136900
  0
VERTEX
  8
gm4
 10
17.713680
 20
5.126880
  0
VERTEX
  8
gm4
 10
17.715370
 20
5.117010
  0
VERTEX
  8
gm4
 10
17.718710
 20
5.107560
  0
VERTEX
  8
gm4
 10
17.723590
 20
5.098820
  0
VERTEX
  8
gm4
 10
17.729890
 20
5.091030
  0
VERTEX
  8
gm4
 10
17.737400
 20
5.084410
  0
VERTEX
  8
gm4
 10
17.745930
 20
5.079160
  0
VERTEX
  8
gm4
 10
17.755230
 20
5.075420
  0
VERTEX
  8
gm4
 10
17.765020
 20
5.073310
  0
VERTEX
  8
gm4
 10
17.775030
 20
5.072890
  0
VERTEX
  8
gm4
 10
17.784960
 20
5.074160
  0
VERTEX
  8
gm4
 10
17.794540
 20
5.077090
  0
VERTEX
  8
gm4
 10
17.803480
 20
5.081600
  0
VERTEX
  8
gm4
 10
17.811540
 20
5.087560
  0
VERTEX
  8
gm4
 10
17.818470
 20
5.094790
  0
VERTEX
  8
gm4
 10
17.824080
 20
5.103090
  0
VERTEX
  8
gm4
 10
17.828200
 20
5.112220
  0
VERTEX
  8
gm4
 10
17.830720
 20
5.121910
  0
VERTEX
  8
gm4
 10
17.831580
 20
5.131890
  0
SEQEND
  8
gm4
  0
POLYLINE
  8
gm4
 62
1
 40
0.000000
 41
0.000000
 66
  1
  0
VERTEX
  8
gm4
 10
17.168430
 20
1.687500
  0
VERTEX
  8
gm4
 10
17.167580
 20
1.697480
  0
VERTEX
  8
gm4
 10
17.165060
 20
1.707170
  0
VERTEX
  8
gm4
 10
17.160930
 20
1.716300
  0
VERTEX
  8
gm4
 10
17.155320
 20
1.724600
  0
VERTEX
  8
gm4
 10
17.148390
 20
1.731830
  0
VERTEX
  8
gm4
 10
17.140340
 20
1.737790
  0
VERTEX
  8
gm4
 10
17.131390
 20
1.742300
  0
VERTEX
  8
gm4
 10
17.121820
 20
1.745230
  0
VERTEX
  8
gm4
 10
17.111880
 20
1.746500
  0
VERTEX
  8
gm4
 10
17.101870
 20
1.746080
  0
VERTEX
  8
gm4
 10
17.092080
 20
1.743970
  0
VERTEX
  8
gm4
 10
17.082790
 20
1.740230
  0
VERTEX
  8
gm4
 10
17.074260
 20
1.734980
  0
VERTEX
  8
gm4
 10
17.066740
 20
1.728360
  0
VERTEX
  8
gm4
 10
17.060450
 20
1.720570
  0
VERTEX
  8
gm4
 10
17.055560
 20
1.711830
  0
VERTEX
  8
gm4
 10
17.052230
 20
1.702380
  0
VERTEX
  8
gm4
 10
17.050530
 20
1.692510
  0
VERTEX
  8
gm4
 10
17.050530
 20
1.682490
  0
VERTEX
  8
gm4
 10
17.052230
 20
1.672620
  0
VERTEX
  8
gm4
 10
17.055560
 20
1.663170
  0
VERTEX
  8
gm4
 10
17.060450
 20
1.654430
  0
VERTEX
  8
gm4
 10
17.066740
 20
1.646640
  0
VERTEX
  8
gm4
 10
17.074260
 20
1.640020
  0
VERTEX
  8
gm4
 10
17.082790
 20
1.634770
  0
VERTEX
  8
gm4
 10
17.092080
 20
1.631030
  0
VERTEX
  8
gm4
 10
17.101870
 20
1.628920
  0
VERTEX
  8
gm4
 10
17.111880
 20
1.628500
  0
VERTEX
  8
gm4
 10
17.121820
 20
1.629770
  0
VERTEX
  8
gm4
 10
17.131390
 20
1.632700
  0
VERTEX
  8
gm4
 10
17.140340
 20
1.637210
  0
VERTEX
  8
gm4
 10
17.148390
 20
1.643170
  0
VERTEX
  8
gm4
 10
17.155320
 20
1.650400
  0
VERTEX
  8
gm4
 10
17.160930
 20
1.658700
  0
VERTEX
  8
gm4
 10
17.165060
 20
1.667830
  0
VERTEX
  8
gm4
 10
17.167580
 20
1.677520
  0
VERTEX
  8
gm4
 10
17.168430
 20
1.687500
  0
SEQEND
  8
gm4
  0
POLYLINE
  8
gm4
 62
1
 40
0.000000
 41
0.000000
 66
  1
  0
VERTEX
  8
gm4
 10
17.831580
 20
0.118110
  0
VERTEX
  8
gm4
 10
17.830720
 20
0.128090
  0
VERTEX
  8
gm4
 10
17.828200
 20
0.137780
  0
VERTEX
  8
gm4
 10
17.824080
 20
0.146910
  0
VERTEX
  8
gm4
 10
17.818470
 20
0.155210
  0
VERTEX
  8
gm4
 10
17.811540
 20
0.162440
  0
VERTEX
  8
gm4
 10
17.803480
 20
0.168400
  0
VERTEX
  8
gm4
 10
17.794540
 20
0.172910
  0
VERTEX
  8
gm4
 10
17.784960
 20
0.175840
  0
VERTEX
  8
gm4
 10
17.775030
 20
0.177110
  0
VERTEX
  8
gm4
 10
17.765020
 20
0.176690
  0
VERTEX
  8
gm4
 10
17.755230
 20
0.174580
  0
VERTEX
  8
gm4
 10
17.745930
 20
0.170840
  0
VERTEX
  8
gm4
 10
17.737400
 20
0.165590
  0
VERTEX
  8
gm4
 10
17.729890
 20
0.158970
  0
VERTEX
  8
gm4
 10
17.723590
 20
0.151180
  0
VERTEX
  8
gm4
 10
17.718710
 20
0.142430
  0
VERTEX
  8
gm4
 10
17.715370
 20
0.132990
  0
VERTEX
  8
gm4
 10
17.713680
 20
0.123120
  0
VERTEX
  8
gm4
 10
17.713680
 20
0.113100
  0
VERTEX
  8
gm4
 10
17.715370
 20
0.103230
  0
VERTEX
  8
gm4
 10
17.718710
 20
0.093790
  0
VERTEX
  8
gm4
 10
17.723590
 20
0.085040
  0
VERTEX
  8
gm4
 10
17.729890
 20
0.077250
  0
VERTEX
  8
gm4
 10
17.737400
 20
0.070630
  0
VERTEX
  8
gm4
 10
17.745930
 20
0.065380
  0
VERTEX
  8
gm4
 10
17.755230
 20
0.061640
  0
VERTEX
  8
gm4
 10
17.765020
 20
0.059530
  0
VERTEX
  8
gm4
 10
17.775030
 20
0.059110
  0
VERTEX
  8
gm4
 10
17.784960
 20
0.060380
  0
VERTEX
  8
gm4
 10
17.794540
 20
0.063310
  0
VERTEX
  8
gm4
 10
17.803480
 20
0.067820
  0
VERTEX
  8
gm4
 10
17.811540
 20
0.073780
  0
VERTEX
  8
gm4
 10
17.818470
 20
0.081010
  0
VERTEX
  8
gm4
 10
17.824080
 20
0.089310
  0
VERTEX
  8
gm4
 10
17.828200
 20
0.098440
  0
VERTEX
  8
gm4
 10
17.830720
 20
0.108130
  0
VERTEX
  8
gm4
 10
17.831580
 20
0.118110
  0
SEQEND
  8
gm4
  0
POLYLINE
  8
gm4
 62
1
 40
0.000000
 41
0.000000
 66
  1
  0
VERTEX
  8
gm4
 10
14.637180
 20
0.656250
  0
VERTEX
  8
gm4
 10
14.636330
 20
0.666230
  0
VERTEX
  8
gm4
 10
14.633810
 20
0.675920
  0
VERTEX
  8
gm4
 10
14.629680
 20
0.685050
  0
VERTEX
  8
gm4
 10
14.624070
 20
0.693350
  0
VERTEX
  8
gm4
 10
14.617140
 20
0.700580
  0
VERTEX
  8
gm4
 10
14.609090
 20
0.706540
  0
VERTEX
  8
gm4
 10
14.600140
 20
0.711050
  0
VERTEX
  8
gm4
 10
14.590570
 20
0.713980
  0
VERTEX
  8
gm4
 10
14.580630
 20
0.715250
  0
VERTEX
  8
gm4
 10
14.570620
 20
0.714830
  0
VERTEX
  8
gm4
 10
14.560830
 20
0.712720
  0
VERTEX
  8
gm4
 10
14.551540
 20
0.708980
  0
VERTEX
  8
gm4
 10
14.543010
 20
0.703730
  0
VERTEX
  8
gm4
 10
14.535490
 20
0.697110
  0
VERTEX
  8
gm4
 10
14.529200
 20
0.689320
  0
VERTEX
  8
gm4
 10
14.524310
 20
0.680580
  0
VERTEX
  8
gm4
 10
14.520980
 20
0.671130
  0
VERTEX
  8
gm4
 10
14.519280
 20
0.661260
  0
VERTEX
  8
gm4
 10
14.519280
 20
0.651240
  0
VERTEX
  8
gm4
 10
14.520980
 20
0.641370
  0
VERTEX
  8
gm4
 10
14.524310
 20
0.631920
  0
VERTEX
  8
gm4
 10
14.529200
 20
0.623180
  0
VERTEX
  8
gm4
 10
14.535490
 20
0.615390
  0
VERTEX
  8
gm4
 10
14.543010
 20
0.608770
  0
VERTEX
  8
gm4
 10
14.551540
 20
0.603520
  0
VERTEX
  8
gm4
 10
14.560830
 20
0.599780
  0
VERTEX
  8
gm4
 10
14.570620
 20
0.597670
  0
VERTEX
  8
gm4
 10
14.580630
 20
0.597250
  0
VERTEX
  8
gm4
 10
14.590570
 20
0.598520
  0
VERTEX
  8
gm4
 10
14.600140
 20
0.601450
  0
VERTEX
  8
gm4
 10
14.609090
 20
0.605960
  0
VERTEX
  8
gm4
 10
14.617140
 20
0.611920
  0
VERTEX
  8
gm4
 10
14.624070
 20
0.619150
  0
VERTEX
  8
gm4
 10
14.629680
 20
0.627450
  0
VERTEX
  8
gm4
 10
14.633810
 20
0.636580
  0
VERTEX
  8
gm4
 10
14.636330
 20
0.646270
  0
VERTEX
  8
gm4
 10
14.637180
 20
0.656250
  0
SEQEND
  8
gm4
  0
POLYLINE
  8
gm4
 62
1
 40
0.000000
 41
0.000000
 66
  1
  0
VERTEX
  8
gm4
 10
11.824680
 20
0.656250
  0
VERTEX
  8
gm4
 10
11.823830
 20
0.666230
  0
VERTEX
  8
gm4
 10
11.821310
 20
0.675920
  0
VERTEX
  8
gm4
 10
11.817180
 20
0.685050
  0
VERTEX
  8
gm4
 10
11.811570
 20
0.693350
  0
VERTEX
  8
gm4
 10
11.804640
 20
0.700580
  0
VERTEX
  8
gm4
 10
11.796590
 20
0.706540
  0
VERTEX
  8
gm4
 10
11.787640
 20
0.711050
  0
VERTEX
  8
gm4
 10
11.778070
 20
0.713980
  0
VERTEX
  8
gm4
 10
11.768130
 20
0.715250
  0
VERTEX
  8
gm4
 10
11.758120
 20
0.714830
  0
VERTEX
  8
gm4
 10
11.748330
 20
0.712720
  0
VERTEX
  8
gm4
 10
11.739040
 20
0.708980
  0
VERTEX
  8
gm4
 10
11.730510
 20
0.703730
  0
VERTEX
  8
gm4
 10
11.722990
 20
0.697110
  0
VERTEX
  8
gm4
 10
11.716700
 20
0.689320
  0
VERTEX
  8
gm4
 10
11.711810
 20
0.680580
  0
VERTEX
  8
gm4
 10
11.708480
 20
0.671130
  0
VERTEX
  8
gm4
 10
11.706780
 20
0.661260
  0
VERTEX
  8
gm4
 10
11.706780
 20
0.651240
  0
VERTEX
  8
gm4
 10
11.708480
 20
0.641370
  0
VERTEX
  8
gm4
 10
11.711810
 20
0.631920
  0
VERTEX
  8
gm4
 10
11.716700
 20
0.623180
  0
VERTEX
  8
gm4
 10
11.722990
 20
0.615390
  0
VERTEX
  8
gm4
 10
11.730510
 20
0.608770
  0
VERTEX
  8
gm4
 10
11.739040
 20
0.603520
  0
VERTEX
  8
gm4
 10
11.748330
 20
0.599780
  0
VERTEX
  8
gm4
 10
11.758120
 20
0.597670
  0
VERTEX
  8
gm4
 10
11.768130
 20
0.597250
  0
VERTEX
  8
gm4
 10
11.778070
 20
0.598520
  0
VERTEX
  8
gm4
 10
11.787640
 20
0.601450
  0
VERTEX
  8
gm4
 10
11.796590
 20
0.605960
  0
VERTEX
  8
gm4
 10
11.804640
 20
0.611920
  0
VERTEX
  8
gm4
 10
11.811570
 20
0.619150
  0
VERTEX
  8
gm4
 10
11.817180
 20
0.627450
  0
VERTEX
  8
gm4
 10
11.821310
 20
0.636580
  0
VERTEX
  8
gm4
 10
11.823830
 20
0.646270
  0
VERTEX
  8
gm4
 10
11.824680
 20
0.656250
  0
SEQEND
  8
gm4
  0
POLYLINE
  8
gm4
 62
1
 40
0.000000
 41
0.000000
 66
  1
  0
VERTEX
  8
gm4
 10
9.105930
 20
0.656250
  0
VERTEX
  8
gm4
 10
9.105080
 20
0.666230
  0
VERTEX
  8
gm4
 10
9.102560
 20
0.675920
  0
VERTEX
  8
gm4
 10
9.098430
 20
0.685050
  0
VERTEX
  8
gm4
 10
9.092820
 20
0.693350
  0
VERTEX
  8
gm4
 10
9.085890
 20
0.700580
  0
VERTEX
  8
gm4
 10
9.077840
 20
0.706540
  0
VERTEX
  8
gm4
 10
9.068890
 20
0.711050
  0
VERTEX
  8
gm4
 10
9.059320
 20
0.713980
  0
VERTEX
  8
gm4
 10
9.049380
 20
0.715250
  0
VERTEX
  8
gm4
 10
9.039370
 20
0.714830
  0
VERTEX
  8
gm4
 10
9.029580
 20
0.712720
  0
VERTEX
  8
gm4
 10
9.020290
 20
0.708980
  0
VERTEX
  8
gm4
 10
9.011760
 20
0.703730
  0
VERTEX
  8
gm4
 10
9.004240
 20
0.697110
  0
VERTEX
  8
gm4
 10
8.997950
 20
0.689320
  0
VERTEX
  8
gm4
 10
8.993060
 20
0.680580
  0
VERTEX
  8
gm4
 10
8.989730
 20
0.671130
  0
VERTEX
  8
gm4
 10
8.988030
 20
0.661260
  0
VERTEX
  8
gm4
 10
8.988030
 20
0.651240
  0
VERTEX
  8
gm4
 10
8.989730
 20
0.641370
  0
VERTEX
  8
gm4
 10
8.993060
 20
0.631920
  0
VERTEX
  8
gm4
 10
8.997950
 20
0.623180
  0
VERTEX
  8
gm4
 10
9.004240
 20
0.615390
  0
VERTEX
  8
gm4
 10
9.011760
 20
0.608770
  0
VERTEX
  8
gm4
 10
9.020290
 20
0.603520
  0
VERTEX
  8
gm4
 10
9.029580
 20
0.599780
  0
VERTEX
  8
gm4
 10
9.039370
 20
0.597670
  0
VERTEX
  8
gm4
 10
9.049380
 20
0.597250
  0
VERTEX
  8
gm4
 10
9.059320
 20
0.598520
  0
VERTEX
  8
gm4
 10
9.068890
 20
0.601450
  0
VERTEX
  8
gm4
 10
9.077840
 20
0.605960
  0
VERTEX
  8
gm4
 10
9.085890
 20
0.611920
  0
VERTEX
  8
gm4
 10
9.092820
 20
0.619150
  0
VERTEX
  8
gm4
 10
9.098430
 20
0.627450
  0
VERTEX
  8
gm4
 10
9.102560
 20
0.636580
  0
VERTEX
  8
gm4
 10
9.105080
 20
0.646270
  0
VERTEX
  8
gm4
 10
9.105930
 20
0.656250
  0
SEQEND
  8
gm4
  0
POLYLINE
  8
gm4
 62
1
 40
0.000000
 41
0.000000
 66
  1
  0
VERTEX
  8
gm4
 10
7.230930
 20
0.656250
  0
VERTEX
  8
gm4
 10
7.230080
 20
0.666230
  0
VERTEX
  8
gm4
 10
7.227560
 20
0.675920
  0
VERTEX
  8
gm4
 10
7.223430
 20
0.685050
  0
VERTEX
  8
gm4
 10
7.217820
 20
0.693350
  0
VERTEX
  8
gm4
 10
7.210890
 20
0.700580
  0
VERTEX
  8
gm4
 10
7.202840
 20
0.706540
  0
VERTEX
  8
gm4
 10
7.193890
 20
0.711050
  0
VERTEX
  8
gm4
 10
7.184320
 20
0.713980
  0
VERTEX
  8
gm4
 10
7.174380
 20
0.715250
  0
VERTEX
  8
gm4
 10
7.164370
 20
0.714830
  0
VERTEX
  8
gm4
 10
7.154580
 20
0.712720
  0
VERTEX
  8
gm4
 10
7.145290
 20
0.708980
  0
VERTEX
  8
gm4
 10
7.136760
 20
0.703730
  0
VERTEX
  8
gm4
 10
7.129240
 20
0.697110
  0
VERTEX
  8
gm4
 10
7.122950
 20
0.689320
  0
VERTEX
  8
gm4
 10
7.118060
 20
0.680580
  0
VERTEX
  8
gm4
 10
7.114730
 20
0.671130
  0
VERTEX
  8
gm4
 10
7.113030
 20
0.661260
  0
VERTEX
  8
gm4
 10
7.113030
 20
0.651240
  0
VERTEX
  8
gm4
 10
7.114730
 20
0.641370
  0
VERTEX
  8
gm4
 10
7.118060
 20
0.631920
  0
VERTEX
  8
gm4
 10
7.122950
 20
0.623180
  0
VERTEX
  8
gm4
 10
7.129240
 20
0.615390
  0
VERTEX
  8
gm4
 10
7.136760
 20
0.608770
  0
VERTEX
  8
gm4
 10
7.145290
 20
0.603520
  0
VERTEX
  8
gm4
 10
7.154580
 20
0.599780
  0
VERTEX
  8
gm4
 10
7.164370
 20
0.597670
  0
VERTEX
  8
gm4
 10
7.174380
 20
0.597250
  0
VERTEX
  8
gm4
 10
7.184320
 20
0.598520
  0
VERTEX
  8
gm4
 10
7.193890
 20
0.601450
  0
VERTEX
  8
gm4
 10
7.202840
 20
0.605960
  0
VERTEX
  8
gm4
 10
7.210890
 20
0.611920
  0
VERTEX
  8
gm4
 10
7.217820
 20
0.619150
  0
VERTEX
  8
gm4
 10
7.223430
 20
0.627450
  0
VERTEX
  8
gm4
 10
7.227560
 20
0.636580
  0
VERTEX
  8
gm4
 10
7.230080
 20
0.646270
  0
VERTEX
  8
gm4
 10
7.230930
 20
0.656250
  0
SEQEND
  8
gm4
  0
POLYLINE
  8
gm4
 62
1
 40
0.000000
 41
0.000000
 66
  1
  0
VERTEX
  8
gm4
 10
4.980930
 20
0.656250
  0
VERTEX
  8
gm4
 10
4.980080
 20
0.666230
  0
VERTEX
  8
gm4
 10
4.977560
 20
0.675920
  0
VERTEX
  8
gm4
 10
4.973430
 20
0.685050
  0
VERTEX
  8
gm4
 10
4.967820
 20
0.693350
  0
VERTEX
  8
gm4
 10
4.960890
 20
0.700580
  0
VERTEX
  8
gm4
 10
4.952840
 20
0.706540
  0
VERTEX
  8
gm4
 10
4.943890
 20
0.711050
  0
VERTEX
  8
gm4
 10
4.934320
 20
0.713980
  0
VERTEX
  8
gm4
 10
4.924380
 20
0.715250
  0
VERTEX
  8
gm4
 10
4.914370
 20
0.714830
  0
VERTEX
  8
gm4
 10
4.904580
 20
0.712720
  0
VERTEX
  8
gm4
 10
4.895290
 20
0.708980
  0
VERTEX
  8
gm4
 10
4.886760
 20
0.703730
  0
VERTEX
  8
gm4
 10
4.879240
 20
0.697110
  0
VERTEX
  8
gm4
 10
4.872950
 20
0.689320
  0
VERTEX
  8
gm4
 10
4.868060
 20
0.680580
  0
VERTEX
  8
gm4
 10
4.864730
 20
0.671130
  0
VERTEX
  8
gm4
 10
4.863030
 20
0.661260
  0
VERTEX
  8
gm4
 10
4.863030
 20
0.651240
  0
VERTEX
  8
gm4
 10
4.864730
 20
0.641370
  0
VERTEX
  8
gm4
 10
4.868060
 20
0.631920
  0
VERTEX
  8
gm4
 10
4.872950
 20
0.623180
  0
VERTEX
  8
gm4
 10
4.879240
 20
0.615390
  0
VERTEX
  8
gm4
 10
4.886760
 20
0.608770
  0
VERTEX
  8
gm4
 10
4.895290
 20
0.603520
  0
VERTEX
  8
gm4
 10
4.904580
 20
0.599780
  0
VERTEX
  8
gm4
 10
4.914370
 20
0.597670
  0
VERTEX
  8
gm4
 10
4.924380
 20
0.597250
  0
VERTEX
  8
gm4
 10
4.934320
 20
0.598520
  0
VERTEX
  8
gm4
 10
4.943890
 20
0.601450
  0
VERTEX
  8
gm4
 10
4.952840
 20
0.605960
  0
VERTEX
  8
gm4
 10
4.960890
 20
0.611920
  0
VERTEX
  8
gm4
 10
4.967820
 20
0.619150
  0
VERTEX
  8
gm4
 10
4.973430
 20
0.627450
  0
VERTEX
  8
gm4
 10
4.977560
 20
0.636580
  0
VERTEX
  8
gm4
 10
4.980080
 20
0.646270
  0
VERTEX
  8
gm4
 10
4.980930
 20
0.656250
  0
SEQEND
  8
gm4
  0
POLYLINE
  8
gm4
 62
1
 40
0.000000
 41
0.000000
 66
  1
  0
VERTEX
  8
gm4
 10
3.105930
 20
0.656250
  0
VERTEX
  8
gm4
 10
3.105080
 20
0.666230
  0
VERTEX
  8
gm4
 10
3.102560
 20
0.675920
  0
VERTEX
  8
gm4
 10
3.098430
 20
0.685050
  0
VERTEX
  8
gm4
 10
3.092820
 20
0.693350
  0
VERTEX
  8
gm4
 10
3.085890
 20
0.700580
  0
VERTEX
  8
gm4
 10
3.077840
 20
0.706540
  0
VERTEX
  8
gm4
 10
3.068890
 20
0.711050
  0
VERTEX
  8
gm4
 10
3.059320
 20
0.713980
  0
VERTEX
  8
gm4
 10
3.049380
 20
0.715250
  0
VERTEX
  8
gm4
 10
3.039370
 20
0.714830
  0
VERTEX
  8
gm4
 10
3.029580
 20
0.712720
  0
VERTEX
  8
gm4
 10
3.020290
 20
0.708980
  0
VERTEX
  8
gm4
 10
3.011760
 20
0.703730
  0
VERTEX
  8
gm4
 10
3.004240
 20
0.697110
  0
VERTEX
  8
gm4
 10
2.997950
 20
0.689320
  0
VERTEX
  8
gm4
 10
2.993060
 20
0.680580
  0
VERTEX
  8
gm4
 10
2.989730
 20
0.671130
  0
VERTEX
  8
gm4
 10
2.988030
 20
0.661260
  0
VERTEX
  8
gm4
 10
2.988030
 20
0.651240
  0
VERTEX
  8
gm4
 10
2.989730
 20
0.641370
  0
VERTEX
  8
gm4
 10
2.993060
 20
0.631920
  0
VERTEX
  8
gm4
 10
2.997950
 20
0.623180
  0
VERTEX
  8
gm4
 10
3.004240
 20
0.615390
  0
VERTEX
  8
gm4
 10
3.011760
 20
0.608770
  0
VERTEX
  8
gm4
 10
3.020290
 20
0.603520
  0
VERTEX
  8
gm4
 10
3.029580
 20
0.599780
  0
VERTEX
  8
gm4
 10
3.039370
 20
0.597670
  0
VERTEX
  8
gm4
 10
3.049380
 20
0.597250
  0
VERTEX
  8
gm4
 10
3.059320
 20
0.598520
  0
VERTEX
  8
gm4
 10
3.068890
 20
0.601450
  0
VERTEX
  8
gm4
 10
3.077840
 20
0.605960
  0
VERTEX
  8
gm4
 10
3.085890
 20
0.611920
  0
VERTEX
  8
gm4
 10
3.092820
 20
0.619150
  0
VERTEX
  8
gm4
 10
3.098430
 20
0.627450
  0
VERTEX
  8
gm4
 10
3.102560
 20
0.636580
  0
VERTEX
  8
gm4
 10
3.105080
 20
0.646270
  0
VERTEX
  8
gm4
 10
3.105930
 20
0.656250
  0
SEQEND
  8
gm4
  0
POLYLINE
  8
gm4
 62
1
 40
0.000000
 41
0.000000
 66
  1
  0
VERTEX
  8
gm4
 10
0.380290
 20
0.118110
  0
VERTEX
  8
gm4
 10
0.379440
 20
0.128090
  0
VERTEX
  8
gm4
 10
0.376920
 20
0.137780
  0
VERTEX
  8
gm4
 10
0.372790
 20
0.146910
  0
VERTEX
  8
gm4
 10
0.367180
 20
0.155210
  0
VERTEX
  8
gm4
 10
0.360250
 20
0.162440
  0
VERTEX
  8
gm4
 10
0.352200
 20
0.168400
  0
VERTEX
  8
gm4
 10
0.343250
 20
0.172910
  0
VERTEX
  8
gm4
 10
0.333680
 20
0.175840
  0
VERTEX
  8
gm4
 10
0.323740
 20
0.177110
  0
VERTEX
  8
gm4
 10
0.313730
 20
0.176690
  0
VERTEX
  8
gm4
 10
0.303940
 20
0.174580
  0
VERTEX
  8
gm4
 10
0.294650
 20
0.170840
  0
VERTEX
  8
gm4
 10
0.286120
 20
0.165590
  0
VERTEX
  8
gm4
 10
0.278600
 20
0.158970
  0
VERTEX
  8
gm4
 10
0.272310
 20
0.151180
  0
VERTEX
  8
gm4
 10
0.267420
 20
0.142430
  0
VERTEX
  8
gm4
 10
0.264090
 20
0.132990
  0
VERTEX
  8
gm4
 10
0.262390
 20
0.123120
  0
VERTEX
  8
gm4
 10
0.262390
 20
0.113100
  0
VERTEX
  8
gm4
 10
0.264090
 20
0.103230
  0
VERTEX
  8
gm4
 10
0.267420
 20
0.093790
  0
VERTEX
  8
gm4
 10
0.272310
 20
0.085040
  0
VERTEX
  8
gm4
 10
0.278600
 20
0.077250
  0
VERTEX
  8
gm4
 10
0.286120
 20
0.070630
  0
VERTEX
  8
gm4
 10
0.294650
 20
0.065380
  0
VERTEX
  8
gm4
 10
0.303940
 20
0.061640
  0
VERTEX
  8
gm4
 10
0.313730
 20
0.059530
  0
VERTEX
  8
gm4
 10
0.323740
 20
0.059110
  0
VERTEX
  8
gm4
 10
0.333680
 20
0.060380
  0
VERTEX
  8
gm4
 10
0.343250
 20
0.063310
  0
VERTEX
  8
gm4
 10
0.352200
 20
0.067820
  0
VERTEX
  8
gm4
 10
0.360250
 20
0.073780
  0
VERTEX
  8
gm4
 10
0.367180
 20
0.081010
  0
VERTEX
  8
gm4
 10
0.372790
 20
0.089310
  0
VERTEX
  8
gm4
 10
0.376920
 20
0.098440
  0
VERTEX
  8
gm4
 10
0.379440
 20
0.108130
  0
VERTEX
  8
gm4
 10
0.380290
 20
0.118110
  0
SEQEND
  8
gm4
  0
POLYLINE
  8
gm4
 62
1
 40
0.000000
 41
0.000000
 66
  1
  0
VERTEX
  8
gm4
 10
1.980930
 20
4.125000
  0
VERTEX
  8
gm4
 10
1.980080
 20
4.134980
  0
VERTEX
  8
gm4
 10
1.977560
 20
4.144670
  0
VERTEX
  8
gm4
 10
1.973430
 20
4.153800
  0
VERTEX
  8
gm4
 10
1.967820
 20
4.162100
  0
VERTEX
  8
gm4
 10
1.960890
 20
4.169330
  0
VERTEX
  8
gm4
 10
1.952840
 20
4.175290
  0
VERTEX
  8
gm4
 10
1.943890
 20
4.179800
  0
VERTEX
  8
gm4
 10
1.934320
 20
4.182730
  0
VERTEX
  8
gm4
 10
1.924380
 20
4.184000
  0
VERTEX
  8
gm4
 10
1.914370
 20
4.183580
  0
VERTEX
  8
gm4
 10
1.904580
 20
4.181470
  0
VERTEX
  8
gm4
 10
1.895290
 20
4.177730
  0
VERTEX
  8
gm4
 10
1.886760
 20
4.172480
  0
VERTEX
  8
gm4
 10
1.879240
 20
4.165860
  0
VERTEX
  8
gm4
 10
1.872950
 20
4.158070
  0
VERTEX
  8
gm4
 10
1.868060
 20
4.149320
  0
VERTEX
  8
gm4
 10
1.864720
 20
4.139880
  0
VERTEX
  8
gm4
 10
1.863030
 20
4.130010
  0
VERTEX
  8
gm4
 10
1.863030
 20
4.119990
  0
VERTEX
  8
gm4
 10
1.864720
 20
4.110120
  0
VERTEX
  8
gm4
 10
1.868060
 20
4.100680
  0
VERTEX
  8
gm4
 10
1.872950
 20
4.091930
  0
VERTEX
  8
gm4
 10
1.879240
 20
4.084140
  0
VERTEX
  8
gm4
 10
1.886760
 20
4.077520
  0
VERTEX
  8
gm4
 10
1.895290
 20
4.072270
  0
VERTEX
  8
gm4
 10
1.904580
 20
4.068530
  0
VERTEX
  8
gm4
 10
1.914370
 20
4.066420
  0
VERTEX
  8
gm4
 10
1.924380
 20
4.066000
  0
VERTEX
  8
gm4
 10
1.934320
 20
4.067270
  0
VERTEX
  8
gm4
 10
1.943890
 20
4.070200
  0
VERTEX
  8
gm4
 10
1.952840
 20
4.074710
  0
VERTEX
  8
gm4
 10
1.960890
 20
4.080670
  0
VERTEX
  8
gm4
 10
1.967820
 20
4.087900
  0
VERTEX
  8
gm4
 10
1.973430
 20
4.096200
  0
VERTEX
  8
gm4
 10
1.977560
 20
4.105330
  0
VERTEX
  8
gm4
 10
1.980080
 20
4.115020
  0
VERTEX
  8
gm4
 10
1.980930
 20
4.125000
  0
SEQEND
  8
gm4
  0
POLYLINE
  8
gm4
 62
1
 40
0.000000
 41
0.000000
 66
  1
  0
VERTEX
  8
gm4
 10
0.380290
 20
5.131890
  0
VERTEX
  8
gm4
 10
0.379440
 20
5.141870
  0
VERTEX
  8
gm4
 10
0.376920
 20
5.151560
  0
VERTEX
  8
gm4
 10
0.372790
 20
5.160690
  0
VERTEX
  8
gm4
 10
0.367180
 20
5.168990
  0
VERTEX
  8
gm4
 10
0.360250
 20
5.176220
  0
VERTEX
  8
gm4
 10
0.352200
 20
5.182180
  0
VERTEX
  8
gm4
 10
0.343250
 20
5.186690
  0
VERTEX
  8
gm4
 10
0.333680
 20
5.189620
  0
VERTEX
  8
gm4
 10
0.323740
 20
5.190890
  0
VERTEX
  8
gm4
 10
0.313730
 20
5.190470
  0
VERTEX
  8
gm4
 10
0.303940
 20
5.188360
  0
VERTEX
  8
gm4
 10
0.294650
 20
5.184620
  0
VERTEX
  8
gm4
 10
0.286120
 20
5.179370
  0
VERTEX
  8
gm4
 10
0.278600
 20
5.172750
  0
VERTEX
  8
gm4
 10
0.272310
 20
5.164960
  0
VERTEX
  8
gm4
 10
0.267420
 20
5.156220
  0
VERTEX
  8
gm4
 10
0.264090
 20
5.146770
  0
VERTEX
  8
gm4
 10
0.262390
 20
5.136900
  0
VERTEX
  8
gm4
 10
0.262390
 20
5.126880
  0
VERTEX
  8
gm4
 10
0.264090
 20
5.117010
  0
VERTEX
  8
gm4
 10
0.267420
 20
5.107560
  0
VERTEX
  8
gm4
 10
0.272310
 20
5.098820
  0
VERTEX
  8
gm4
 10
0.278600
 20
5.091030
  0
VERTEX
  8
gm4
 10
0.286120
 20
5.084410
  0
VERTEX
  8
gm4
 10
0.294650
 20
5.079160
  0
VERTEX
  8
gm4
 10
0.303940
 20
5.075420
  0
VERTEX
  8
gm4
 10
0.313730
 20
5.073310
  0
VERTEX
  8
gm4
 10
0.323740
 20
5.072890
  0
VERTEX
  8
gm4
 10
0.333680
 20
5.074160
  0
VERTEX
  8
gm4
 10
0.343250
 20
5.077090
  0
VERTEX
  8
gm4
 10
0.352200
 20
5.081600
  0
VERTEX
  8
gm4
 10
0.360250
 20
5.087560
  0
VERTEX
  8
gm4
 10
0.367180
 20
5.094790
  0
VERTEX
  8
gm4
 10
0.372790
 20
5.103090
  0
VERTEX
  8
gm4
 10
0.376920
 20
5.112220
  0
VERTEX
  8
gm4
 10
0.379440
 20
5.121910
  0
VERTEX
  8
gm4
 10
0.380290
 20
5.131890
  0
SEQEND
  8
gm4
  0
POLYLINE
  8
gm4
 62
1
 40
0.000000
 41
0.000000
 66
  1
  0
VERTEX
  8
gm4
 10
16.653540
 20
5.236220
  0
VERTEX
  8
gm4
 10
17.519690
 20
5.236220
  0
SEQEND
  8
gm4
  0
POLYLINE
  8
gm4
 62
1
 40
0.000000
 41
0.000000
 66
  1
  0
VERTEX
  8
gm4
 10
17.519690
 20
4.370080
  0
VERTEX
  8
gm4
 10
17.519690
 20
5.236220
  0
SEQEND
  8
gm4
  0
POLYLINE
  8
gm4
 62
1
 40
0.000000
 41
0.000000
 66
  1
  0
VERTEX
  8
gm4
 10
16.653540
 20
4.370080
  0
VERTEX
  8
gm4
 10
17.519690
 20
4.370080
  0
SEQEND
  8
gm4
  0
POLYLINE
  8
gm4
 62
1
 40
0.000000
 41
0.000000
 66
  1
  0
VERTEX
  8
gm4
 10
16.653540
 20
4.370080
  0
VERTEX
  8
gm4
 10
16.653540
 20
5.236220
  0
SEQEND
  8
gm4
  0
POLYLINE
  8
gm4
 62
1
 40
0.000000
 41
0.000000
 66
  1
  0
VERTEX
  8
gm4
 10
1.315330
 20
2.615650
  0
VERTEX
  8
gm4
 10
1.590920
 20
2.615650
  0
SEQEND
  8
gm4
  0
POLYLINE
  8
gm4
 62
1
 40
0.000000
 41
0.000000
 66
  1
  0
VERTEX
  8
gm4
 10
1.315330
 20
2.615650
  0
VERTEX
  8
gm4
 10
1.315330
 20
3.048720
  0
VERTEX
  8
gm4
 10
1.590920
 20
3.048720
  0
SEQEND
  8
gm4
  0
POLYLINE
  8
gm4
 62
1
 40
0.000000
 41
0.000000
 66
  1
  0
VERTEX
  8
gm4
 10
1.590920
 20
2.615650
  0
VERTEX
  8
gm4
 10
1.590920
 20
3.048720
  0
SEQEND
  8
gm4
  0
POLYLINE
  8
gm4
 62
1
 40
0.000000
 41
0.000000
 66
  1
  0
VERTEX
  8
gm4
 10
0.377830
 20
2.615650
  0
VERTEX
  8
gm4
 10
0.653420
 20
2.615650
  0
SEQEND
  8
gm4
  0
POLYLINE
  8
gm4
 62
1
 40
0.000000
 41
0.000000
 66
  1
  0
VERTEX
  8
gm4
 10
0.377830
 20
2.615650
  0
VERTEX
  8
gm4
 10
0.377830
 20
3.048720
  0
VERTEX
  8
gm4
 10
0.653420
 20
3.048720
  0
SEQEND
  8
gm4
  0
POLYLINE
  8
gm4
 62
1
 40
0.000000
 41
0.000000
 66
  1
  0
VERTEX
  8
gm4
 10
0.653420
 20
2.615650
  0
VERTEX
  8
gm4
 10
0.653420
 20
3.048720
  0
SEQEND
  8
gm4
  0
POLYLINE
  8
gm4
 62
1
 40
0.000000
 41
0.000000
 66
  1
  0
VERTEX
  8
gm4
 10
7.877830
 20
0.365650
  0
VERTEX
  8
gm4
 10
8.153420
 20
0.365650
  0
SEQEND
  8
gm4
  0
POLYLINE
  8
gm4
 62
1
 40
0.000000
 41
0.000000
 66
  1
  0
VERTEX
  8
gm4
 10
7.877830
 20
0.365650
  0
VERTEX
  8
gm4
 10
7.877830
 20
0.798720
  0
VERTEX
  8
gm4
 10
8.153420
 20
0.798720
  0
SEQEND
  8
gm4
  0
POLYLINE
  8
gm4
 62
1
 40
0.000000
 41
0.000000
 66
  1
  0
VERTEX
  8
gm4
 10
8.153420
 20
0.365650
  0
VERTEX
  8
gm4
 10
8.153420
 20
0.798720
  0
SEQEND
  8
gm4
  0
POLYLINE
  8
gm4
 62
1
 40
0.000000
 41
0.000000
 66
  1
  0
VERTEX
  8
gm4
 10
3.940330
 20
0.365650
  0
VERTEX
  8
gm4
 10
4.215920
 20
0.365650
  0
SEQEND
  8
gm4
  0
POLYLINE
  8
gm4
 62
1
 40
0.000000
 41
0.000000
 66
  1
  0
VERTEX
  8
gm4
 10
3.940330
 20
0.365650
  0
VERTEX
  8
gm4
 10
3.940330
 20
0.798720
  0
VERTEX
  8
gm4
 10
4.215920
 20
0.798720
  0
SEQEND
  8
gm4
  0
POLYLINE
  8
gm4
 62
1
 40
0.000000
 41
0.000000
 66
  1
  0
VERTEX
  8
gm4
 10
4.215920
 20
0.365650
  0
VERTEX
  8
gm4
 10
4.215920
 20
0.798720
  0
SEQEND
  8
gm4
  0
POLYLINE
  8
gm4
 62
1
 40
0.000000
 41
0.000000
 66
  1
  0
VERTEX
  8
gm4
 10
8.159080
 20
0.365650
  0
VERTEX
  8
gm4
 10
8.434670
 20
0.365650
  0
SEQEND
  8
gm4
  0
POLYLINE
  8
gm4
 62
1
 40
0.000000
 41
0.000000
 66
  1
  0
VERTEX
  8
gm4
 10
8.159080
 20
0.365650
  0
VERTEX
  8
gm4
 10
8.159080
 20
0.798720
  0
VERTEX
  8
gm4
 10
8.434670
 20
0.798720
  0
SEQEND
  8
gm4
  0
POLYLINE
  8
gm4
 62
1
 40
0.000000
 41
0.000000
 66
  1
  0
VERTEX
  8
gm4
 10
8.434670
 20
0.365650
  0
VERTEX
  8
gm4
 10
8.434670
 20
0.798720
  0
SEQEND
  8
gm4
  0
POLYLINE
  8
gm4
 62
1
 40
0.000000
 41
0.000000
 66
  1
  0
VERTEX
  8
gm4
 10
3.659080
 20
0.365650
  0
VERTEX
  8
gm4
 10
3.934670
 20
0.365650
  0
SEQEND
  8
gm4
  0
POLYLINE
  8
gm4
 62
1
 40
0.000000
 41
0.000000
 66
  1
  0
VERTEX
  8
gm4
 10
3.659080
 20
0.365650
  0
VERTEX
  8
gm4
 10
3.659080
 20
0.798720
  0
VERTEX
  8
gm4
 10
3.934670
 20
0.798720
  0
SEQEND
  8
gm4
  0
POLYLINE
  8
gm4
 62
1
 40
0.000000
 41
0.000000
 66
  1
  0
VERTEX
  8
gm4
 10
3.934670
 20
0.365650
  0
VERTEX
  8
gm4
 10
3.934670
 20
0.798720
  0
SEQEND
  8
gm4
  0
POLYLINE
  8
gm4
 62
1
 40
0.000000
 41
0.000000
 66
  1
  0
VERTEX
  8
gm4
 10
8.534080
 20
0.365650
  0
VERTEX
  8
gm4
 10
8.809670
 20
0.365650
  0
SEQEND
  8
gm4
  0
POLYLINE
  8
gm4
 62
1
 40
0.000000
 41
0.000000
 66
  1
  0
VERTEX
  8
gm4
 10
8.534080
 20
0.365650
  0
VERTEX
  8
gm4
 10
8.534080
 20
0.798720
  0
VERTEX
  8
gm4
 10
8.809670
 20
0.798720
  0
SEQEND
  8
gm4
  0
POLYLINE
  8
gm4
 62
1
 40
0.000000
 41
0.000000
 66
  1
  0
VERTEX
  8
gm4
 10
8.809670
 20
0.365650
  0
VERTEX
  8
gm4
 10
8.809670
 20
0.798720
  0
SEQEND
  8
gm4
  0
POLYLINE
  8
gm4
 62
1
 40
0.000000
 41
0.000000
 66
  1
  0
VERTEX
  8
gm4
 10
3.284080
 20
0.365650
  0
VERTEX
  8
gm4
 10
3.559670
 20
0.365650
  0
SEQEND
  8
gm4
  0
POLYLINE
  8
gm4
 62
1
 40
0.000000
 41
0.000000
 66
  1
  0
VERTEX
  8
gm4
 10
3.284080
 20
0.365650
  0
VERTEX
  8
gm4
 10
3.284080
 20
0.798720
  0
VERTEX
  8
gm4
 10
3.559670
 20
0.798720
  0
SEQEND
  8
gm4
  0
POLYLINE
  8
gm4
 62
1
 40
0.000000
 41
0.000000
 66
  1
  0
VERTEX
  8
gm4
 10
3.559670
 20
0.365650
  0
VERTEX
  8
gm4
 10
3.559670
 20
0.798720
  0
SEQEND
  8
gm4
  0
POLYLINE
  8
gm4
 62
1
 40
0.000000
 41
0.000000
 66
  1
  0
VERTEX
  8
gm4
 10
15.940330
 20
0.365650
  0
VERTEX
  8
gm4
 10
16.215920
 20
0.365650
  0
SEQEND
  8
gm4
  0
POLYLINE
  8
gm4
 62
1
 40
0.000000
 41
0.000000
 66
  1
  0
VERTEX
  8
gm4
 10
15.940330
 20
0.365650
  0
VERTEX
  8
gm4
 10
15.940330
 20
0.798720
  0
VERTEX
  8
gm4
 10
16.215920
 20
0.798720
  0
SEQEND
  8
gm4
  0
POLYLINE
  8
gm4
 62
1
 40
0.000000
 41
0.000000
 66
  1
  0
VERTEX
  8
gm4
 10
16.215920
 20
0.365650
  0
VERTEX
  8
gm4
 10
16.215920
 20
0.798720
  0
SEQEND
  8
gm4
  0
POLYLINE
  8
gm4
 62
1
 40
0.000000
 41
0.000000
 66
  1
  0
VERTEX
  8
gm4
 10
15.002830
 20
0.365650
  0
VERTEX
  8
gm4
 10
15.278420
 20
0.365650
  0
SEQEND
  8
gm4
  0
POLYLINE
  8
gm4
 62
1
 40
0.000000
 41
0.000000
 66
  1
  0
VERTEX
  8
gm4
 10
15.002830
 20
0.365650
  0
VERTEX
  8
gm4
 10
15.002830
 20
0.798720
  0
VERTEX
  8
gm4
 10
15.278420
 20
0.798720
  0
SEQEND
  8
gm4
  0
POLYLINE
  8
gm4
 62
1
 40
0.000000
 41
0.000000
 66
  1
  0
VERTEX
  8
gm4
 10
15.278420
 20
0.365650
  0
VERTEX
  8
gm4
 10
15.278420
 20
0.798720
  0
SEQEND
  8
gm4
  0
POLYLINE
  8
gm4
 62
1
 40
0.000000
 41
0.000000
 66
  1
  0
VERTEX
  8
gm4
 10
17.681220
 20
0.330950
  0
VERTEX
  8
gm4
 10
17.681220
 20
0.606540
  0
SEQEND
  8
gm4
  0
POLYLINE
  8
gm4
 62
1
 40
0.000000
 41
0.000000
 66
  1
  0
VERTEX
  8
gm4
 10
17.248160
 20
0.330950
  0
VERTEX
  8
gm4
 10
17.681220
 20
0.330950
  0
SEQEND
  8
gm4
  0
POLYLINE
  8
gm4
 62
1
 40
0.000000
 41
0.000000
 66
  1
  0
VERTEX
  8
gm4
 10
17.248160
 20
0.330950
  0
VERTEX
  8
gm4
 10
17.248160
 20
0.606540
  0
VERTEX
  8
gm4
 10
17.681220
 20
0.606540
  0
SEQEND
  8
gm4
  0
POLYLINE
  8
gm4
 62
1
 40
0.000000
 41
0.000000
 66
  1
  0
VERTEX
  8
gm4
 10
17.681220
 20
1.268460
  0
VERTEX
  8
gm4
 10
17.681220
 20
1.544040
  0
SEQEND
  8
gm4
  0
POLYLINE
  8
gm4
 62
1
 40
0.000000
 41
0.000000
 66
  1
  0
VERTEX
  8
gm4
 10
17.248160
 20
1.268460
  0
VERTEX
  8
gm4
 10
17.681220
 20
1.268460
  0
SEQEND
  8
gm4
  0
POLYLINE
  8
gm4
 62
1
 40
0.000000
 41
0.000000
 66
  1
  0
VERTEX
  8
gm4
 10
17.248160
 20
1.268460
  0
VERTEX
  8
gm4
 10
17.248160
 20
1.544040
  0
VERTEX
  8
gm4
 10
17.681220
 20
1.544040
  0
SEQEND
  8
gm4
  0
POLYLINE
  8
gm4
 62
1
 40
0.000000
 41
0.000000
 66
  1
  0
VERTEX
  8
gm4
 10
11.159080
 20
1.115650
  0
VERTEX
  8
gm4
 10
11.434670
 20
1.115650
  0
SEQEND
  8
gm4
  0
POLYLINE
  8
gm4
 62
1
 40
0.000000
 41
0.000000
 66
  1
  0
VERTEX
  8
gm4
 10
11.159080
 20
1.115650
  0
VERTEX
  8
gm4
 10
11.159080
 20
1.548720
  0
VERTEX
  8
gm4
 10
11.434670
 20
1.548720
  0
SEQEND
  8
gm4
  0
POLYLINE
  8
gm4
 62
1
 40
0.000000
 41
0.000000
 66
  1
  0
VERTEX
  8
gm4
 10
11.434670
 20
1.115650
  0
VERTEX
  8
gm4
 10
11.434670
 20
1.548720
  0
SEQEND
  8
gm4
  0
POLYLINE
  8
gm4
 62
1
 40
0.000000
 41
0.000000
 66
  1
  0
VERTEX
  8
gm4
 10
10.221580
 20
1.115650
  0
VERTEX
  8
gm4
 10
10.497170
 20
1.115650
  0
SEQEND
  8
gm4
  0
POLYLINE
  8
gm4
 62
1
 40
0.000000
 41
0.000000
 66
  1
  0
VERTEX
  8
gm4
 10
10.221580
 20
1.115650
  0
VERTEX
  8
gm4
 10
10.221580
 20
1.548720
  0
VERTEX
  8
gm4
 10
10.497170
 20
1.548720
  0
SEQEND
  8
gm4
  0
POLYLINE
  8
gm4
 62
1
 40
0.000000
 41
0.000000
 66
  1
  0
VERTEX
  8
gm4
 10
10.497170
 20
1.115650
  0
VERTEX
  8
gm4
 10
10.497170
 20
1.548720
  0
SEQEND
  8
gm4
  0
POLYLINE
  8
gm4
 62
1
 40
0.000000
 41
0.000000
 66
  1
  0
VERTEX
  8
gm4
 10
11.587470
 20
1.830960
  0
VERTEX
  8
gm4
 10
11.587470
 20
2.106540
  0
SEQEND
  8
gm4
  0
POLYLINE
  8
gm4
 62
1
 40
0.000000
 41
0.000000
 66
  1
  0
VERTEX
  8
gm4
 10
11.154400
 20
1.830960
  0
VERTEX
  8
gm4
 10
11.587470
 20
1.830960
  0
SEQEND
  8
gm4
  0
POLYLINE
  8
gm4
 62
1
 40
0.000000
 41
0.000000
 66
  1
  0
VERTEX
  8
gm4
 10
11.154400
 20
1.830960
  0
VERTEX
  8
gm4
 10
11.154400
 20
2.106540
  0
VERTEX
  8
gm4
 10
11.587470
 20
2.106540
  0
SEQEND
  8
gm4
  0
POLYLINE
  8
gm4
 62
1
 40
0.000000
 41
0.000000
 66
  1
  0
VERTEX
  8
gm4
 10
11.587470
 20
2.768460
  0
VERTEX
  8
gm4
 10
11.587470
 20
3.044040
  0
SEQEND
  8
gm4
  0
POLYLINE
  8
gm4
 62
1
 40
0.000000
 41
0.000000
 66
  1
  0
VERTEX
  8
gm4
 10
11.154400
 20
2.768460
  0
VERTEX
  8
gm4
 10
11.587470
 20
2.768460
  0
SEQEND
  8
gm4
  0
POLYLINE
  8
gm4
 62
1
 40
0.000000
 41
0.000000
 66
  1
  0
VERTEX
  8
gm4
 10
11.154400
 20
2.768460
  0
VERTEX
  8
gm4
 10
11.154400
 20
3.044040
  0
VERTEX
  8
gm4
 10
11.587470
 20
3.044040
  0
SEQEND
  8
gm4
  0
POLYLINE
  8
gm4
 62
1
 40
0.000000
 41
0.000000
 66
  1
  0
VERTEX
  8
gm4
 10
1.541220
 20
0.286910
  0
VERTEX
  8
gm4
 10
1.541220
 20
0.838090
  0
SEQEND
  8
gm4
  0
POLYLINE
  8
gm4
 62
1
 40
0.000000
 41
0.000000
 66
  1
  0
VERTEX
  8
gm4
 10
0.990030
 20
0.286910
  0
VERTEX
  8
gm4
 10
1.541220
 20
0.286910
  0
SEQEND
  8
gm4
  0
POLYLINE
  8
gm4
 62
1
 40
0.000000
 41
0.000000
 66
  1
  0
VERTEX
  8
gm4
 10
0.990030
 20
0.286910
  0
VERTEX
  8
gm4
 10
0.990030
 20
0.838090
  0
VERTEX
  8
gm4
 10
1.541220
 20
0.838090
  0
SEQEND
  8
gm4
  0
POLYLINE
  8
gm4
 62
1
 40
0.000000
 41
0.000000
 66
  1
  0
VERTEX
  8
gm4
 10
1.166220
 20
1.036910
  0
VERTEX
  8
gm4
 10
1.166220
 20
1.588090
  0
SEQEND
  8
gm4
  0
POLYLINE
  8
gm4
 62
1
 40
0.000000
 41
0.000000
 66
  1
  0
VERTEX
  8
gm4
 10
0.615030
 20
1.036910
  0
VERTEX
  8
gm4
 10
1.166220
 20
1.036910
  0
SEQEND
  8
gm4
  0
POLYLINE
  8
gm4
 62
1
 40
0.000000
 41
0.000000
 66
  1
  0
VERTEX
  8
gm4
 10
0.615030
 20
1.036910
  0
VERTEX
  8
gm4
 10
0.615030
 20
1.588090
  0
VERTEX
  8
gm4
 10
1.166220
 20
1.588090
  0
SEQEND
  8
gm4
  0
POLYLINE
  8
gm4
 62
1
 40
0.000000
 41
0.000000
 66
  1
  0
VERTEX
  8
gm4
 10
0.978720
 20
1.786910
  0
VERTEX
  8
gm4
 10
0.978720
 20
2.338090
  0
SEQEND
  8
gm4
  0
POLYLINE
  8
gm4
 62
1
 40
0.000000
 41
0.000000
 66
  1
  0
VERTEX
  8
gm4
 10
0.427530
 20
1.786910
  0
VERTEX
  8
gm4
 10
0.978720
 20
1.786910
  0
SEQEND
  8
gm4
  0
POLYLINE
  8
gm4
 62
1
 40
0.000000
 41
0.000000
 66
  1
  0
VERTEX
  8
gm4
 10
0.427530
 20
1.786910
  0
VERTEX
  8
gm4
 10
0.427530
 20
2.338090
  0
VERTEX
  8
gm4
 10
0.978720
 20
2.338090
  0
SEQEND
  8
gm4
  0
POLYLINE
  8
gm4
 62
1
 40
0.000000
 41
0.000000
 66
  1
  0
VERTEX
  8
gm4
 10
1.259970
 20
2.536910
  0
VERTEX
  8
gm4
 10
1.259970
 20
3.088090
  0
SEQEND
  8
gm4
  0
POLYLINE
  8
gm4
 62
1
 40
0.000000
 41
0.000000
 66
  1
  0
VERTEX
  8
gm4
 10
0.708780
 20
2.536910
  0
VERTEX
  8
gm4
 10
1.259970
 20
2.536910
  0
SEQEND
  8
gm4
  0
POLYLINE
  8
gm4
 62
1
 40
0.000000
 41
0.000000
 66
  1
  0
VERTEX
  8
gm4
 10
0.708780
 20
2.536910
  0
VERTEX
  8
gm4
 10
0.708780
 20
3.088090
  0
VERTEX
  8
gm4
 10
1.259970
 20
3.088090
  0
SEQEND
  8
gm4
  0
POLYLINE
  8
gm4
 62
1
 40
0.000000
 41
0.000000
 66
  1
  0
VERTEX
  8
gm4
 10
1.072470
 20
3.286910
  0
VERTEX
  8
gm4
 10
1.072470
 20
3.838090
  0
SEQEND
  8
gm4
  0
POLYLINE
  8
gm4
 62
1
 40
0.000000
 41
0.000000
 66
  1
  0
VERTEX
  8
gm4
 10
0.521280
 20
3.286910
  0
VERTEX
  8
gm4
 10
1.072470
 20
3.286910
  0
SEQEND
  8
gm4
  0
POLYLINE
  8
gm4
 62
1
 40
0.000000
 41
0.000000
 66
  1
  0
VERTEX
  8
gm4
 10
0.521280
 20
3.286910
  0
VERTEX
  8
gm4
 10
0.521280
 20
3.838090
  0
VERTEX
  8
gm4
 10
1.072470
 20
3.838090
  0
SEQEND
  8
gm4
  0
POLYLINE
  8
gm4
 62
1
 40
0.000000
 41
0.000000
 66
  1
  0
VERTEX
  8
gm4
 10
0.884970
 20
4.411910
  0
VERTEX
  8
gm4
 10
0.884970
 20
4.963090
  0
SEQEND
  8
gm4
  0
POLYLINE
  8
gm4
 62
1
 40
0.000000
 41
0.000000
 66
  1
  0
VERTEX
  8
gm4
 10
0.333780
 20
4.411910
  0
VERTEX
  8
gm4
 10
0.884970
 20
4.411910
  0
SEQEND
  8
gm4
  0
POLYLINE
  8
gm4
 62
1
 40
0.000000
 41
0.000000
 66
  1
  0
VERTEX
  8
gm4
 10
0.333780
 20
4.411910
  0
VERTEX
  8
gm4
 10
0.333780
 20
4.963090
  0
VERTEX
  8
gm4
 10
0.884970
 20
4.963090
  0
SEQEND
  8
gm4
  0
POLYLINE
  8
gm4
 62
1
 40
0.000000
 41
0.000000
 66
  1
  0
VERTEX
  8
gm4
 10
2.478720
 20
0.286910
  0
VERTEX
  8
gm4
 10
2.478720
 20
0.838090
  0
SEQEND
  8
gm4
  0
POLYLINE
  8
gm4
 62
1
 40
0.000000
 41
0.000000
 66
  1
  0
VERTEX
  8
gm4
 10
1.927530
 20
0.286910
  0
VERTEX
  8
gm4
 10
2.478720
 20
0.286910
  0
SEQEND
  8
gm4
  0
POLYLINE
  8
gm4
 62
1
 40
0.000000
 41
0.000000
 66
  1
  0
VERTEX
  8
gm4
 10
1.927530
 20
0.286910
  0
VERTEX
  8
gm4
 10
1.927530
 20
0.838090
  0
VERTEX
  8
gm4
 10
2.478720
 20
0.838090
  0
SEQEND
  8
gm4
  0
POLYLINE
  8
gm4
 62
1
 40
0.000000
 41
0.000000
 66
  1
  0
VERTEX
  8
gm4
 10
2.197470
 20
1.036910
  0
VERTEX
  8
gm4
 10
2.197470
 20
1.588090
  0
SEQEND
  8
gm4
  0
POLYLINE
  8
gm4
 62
1
 40
0.000000
 41
0.000000
 66
  1
  0
VERTEX
  8
gm4
 10
1.646280
 20
1.036910
  0
VERTEX
  8
gm4
 10
2.197470
 20
1.036910
  0
SEQEND
  8
gm4
  0
POLYLINE
  8
gm4
 62
1
 40
0.000000
 41
0.000000
 66
  1
  0
VERTEX
  8
gm4
 10
1.646280
 20
1.036910
  0
VERTEX
  8
gm4
 10
1.646280
 20
1.588090
  0
VERTEX
  8
gm4
 10
2.197470
 20
1.588090
  0
SEQEND
  8
gm4
  0
POLYLINE
  8
gm4
 62
1
 40
0.000000
 41
0.000000
 66
  1
  0
VERTEX
  8
gm4
 10
1.822470
 20
1.786910
  0
VERTEX
  8
gm4
 10
1.822470
 20
2.338090
  0
SEQEND
  8
gm4
  0
POLYLINE
  8
gm4
 62
1
 40
0.000000
 41
0.000000
 66
  1
  0
VERTEX
  8
gm4
 10
1.271280
 20
1.786910
  0
VERTEX
  8
gm4
 10
1.822470
 20
1.786910
  0
SEQEND
  8
gm4
  0
POLYLINE
  8
gm4
 62
1
 40
0.000000
 41
0.000000
 66
  1
  0
VERTEX
  8
gm4
 10
1.271280
 20
1.786910
  0
VERTEX
  8
gm4
 10
1.271280
 20
2.338090
  0
VERTEX
  8
gm4
 10
1.822470
 20
2.338090
  0
SEQEND
  8
gm4
  0
POLYLINE
  8
gm4
 62
1
 40
0.000000
 41
0.000000
 66
  1
  0
VERTEX
  8
gm4
 10
2.384970
 20
2.536910
  0
VERTEX
  8
gm4
 10
2.384970
 20
3.088090
  0
SEQEND
  8
gm4
  0
POLYLINE
  8
gm4
 62
1
 40
0.000000
 41
0.000000
 66
  1
  0
VERTEX
  8
gm4
 10
1.833780
 20
2.536910
  0
VERTEX
  8
gm4
 10
2.384970
 20
2.536910
  0
SEQEND
  8
gm4
  0
POLYLINE
  8
gm4
 62
1
 40
0.000000
 41
0.000000
 66
  1
  0
VERTEX
  8
gm4
 10
1.833780
 20
2.536910
  0
VERTEX
  8
gm4
 10
1.833780
 20
3.088090
  0
VERTEX
  8
gm4
 10
2.384970
 20
3.088090
  0
SEQEND
  8
gm4
  0
POLYLINE
  8
gm4
 62
1
 40
0.000000
 41
0.000000
 66
  1
  0
VERTEX
  8
gm4
 10
2.009970
 20
3.286910
  0
VERTEX
  8
gm4
 10
2.009970
 20
3.838090
  0
SEQEND
  8
gm4
  0
POLYLINE
  8
gm4
 62
1
 40
0.000000
 41
0.000000
 66
  1
  0
VERTEX
  8
gm4
 10
1.458780
 20
3.286910
  0
VERTEX
  8
gm4
 10
2.009970
 20
3.286910
  0
SEQEND
  8
gm4
  0
POLYLINE
  8
gm4
 62
1
 40
0.000000
 41
0.000000
 66
  1
  0
VERTEX
  8
gm4
 10
1.458780
 20
3.286910
  0
VERTEX
  8
gm4
 10
1.458780
 20
3.838090
  0
VERTEX
  8
gm4
 10
2.009970
 20
3.838090
  0
SEQEND
  8
gm4
  0
POLYLINE
  8
gm4
 62
1
 40
0.000000
 41
0.000000
 66
  1
  0
VERTEX
  8
gm4
 10
2.103720
 20
4.411910
  0
VERTEX
  8
gm4
 10
2.103720
 20
4.963090
  0
SEQEND
  8
gm4
  0
POLYLINE
  8
gm4
 62
1
 40
0.000000
 41
0.000000
 66
  1
  0
VERTEX
  8
gm4
 10
1.552530
 20
4.411910
  0
VERTEX
  8
gm4
 10
2.103720
 20
4.411910
  0
SEQEND
  8
gm4
  0
POLYLINE
  8
gm4
 62
1
 40
0.000000
 41
0.000000
 66
  1
  0
VERTEX
  8
gm4
 10
1.552530
 20
4.411910
  0
VERTEX
  8
gm4
 10
1.552530
 20
4.963090
  0
VERTEX
  8
gm4
 10
2.103720
 20
4.963090
  0
SEQEND
  8
gm4
  0
POLYLINE
  8
gm4
 62
1
 40
0.000000
 41
0.000000
 66
  1
  0
VERTEX
  8
gm4
 10
6.322470
 20
0.286910
  0
VERTEX
  8
gm4
 10
6.322470
 20
0.838090
  0
SEQEND
  8
gm4
  0
POLYLINE
  8
gm4
 62
1
 40
0.000000
 41
0.000000
 66
  1
  0
VERTEX
  8
gm4
 10
5.771280
 20
0.286910
  0
VERTEX
  8
gm4
 10
6.322470
 20
0.286910
  0
SEQEND
  8
gm4
  0
POLYLINE
  8
gm4
 62
1
 40
0.000000
 41
0.000000
 66
  1
  0
VERTEX
  8
gm4
 10
5.771280
 20
0.286910
  0
VERTEX
  8
gm4
 10
5.771280
 20
0.838090
  0
VERTEX
  8
gm4
 10
6.322470
 20
0.838090
  0
SEQEND
  8
gm4
  0
POLYLINE
  8
gm4
 62
1
 40
0.000000
 41
0.000000
 66
  1
  0
VERTEX
  8
gm4
 10
2.947470
 20
1.036910
  0
VERTEX
  8
gm4
 10
2.947470
 20
1.588090
  0
SEQEND
  8
gm4
  0
POLYLINE
  8
gm4
 62
1
 40
0.000000
 41
0.000000
 66
  1
  0
VERTEX
  8
gm4
 10
2.396280
 20
1.036910
  0
VERTEX
  8
gm4
 10
2.947470
 20
1.036910
  0
SEQEND
  8
gm4
  0
POLYLINE
  8
gm4
 62
1
 40
0.000000
 41
0.000000
 66
  1
  0
VERTEX
  8
gm4
 10
2.396280
 20
1.036910
  0
VERTEX
  8
gm4
 10
2.396280
 20
1.588090
  0
VERTEX
  8
gm4
 10
2.947470
 20
1.588090
  0
SEQEND
  8
gm4
  0
POLYLINE
  8
gm4
 62
1
 40
0.000000
 41
0.000000
 66
  1
  0
VERTEX
  8
gm4
 10
2.572470
 20
1.786910
  0
VERTEX
  8
gm4
 10
2.572470
 20
2.338090
  0
SEQEND
  8
gm4
  0
POLYLINE
  8
gm4
 62
1
 40
0.000000
 41
0.000000
 66
  1
  0
VERTEX
  8
gm4
 10
2.021280
 20
1.786910
  0
VERTEX
  8
gm4
 10
2.572470
 20
1.786910
  0
SEQEND
  8
gm4
  0
POLYLINE
  8
gm4
 62
1
 40
0.000000
 41
0.000000
 66
  1
  0
VERTEX
  8
gm4
 10
2.021280
 20
1.786910
  0
VERTEX
  8
gm4
 10
2.021280
 20
2.338090
  0
VERTEX
  8
gm4
 10
2.572470
 20
2.338090
  0
SEQEND
  8
gm4
  0
POLYLINE
  8
gm4
 62
1
 40
0.000000
 41
0.000000
 66
  1
  0
VERTEX
  8
gm4
 10
3.134970
 20
2.536910
  0
VERTEX
  8
gm4
 10
3.134970
 20
3.088090
  0
SEQEND
  8
gm4
  0
POLYLINE
  8
gm4
 62
1
 40
0.000000
 41
0.000000
 66
  1
  0
VERTEX
  8
gm4
 10
2.583780
 20
2.536910
  0
VERTEX
  8
gm4
 10
3.134970
 20
2.536910
  0
SEQEND
  8
gm4
  0
POLYLINE
  8
gm4
 62
1
 40
0.000000
 41
0.000000
 66
  1
  0
VERTEX
  8
gm4
 10
2.583780
 20
2.536910
  0
VERTEX
  8
gm4
 10
2.583780
 20
3.088090
  0
VERTEX
  8
gm4
 10
3.134970
 20
3.088090
  0
SEQEND
  8
gm4
  0
POLYLINE
  8
gm4
 62
1
 40
0.000000
 41
0.000000
 66
  1
  0
VERTEX
  8
gm4
 10
2.759970
 20
3.286910
  0
VERTEX
  8
gm4
 10
2.759970
 20
3.838090
  0
SEQEND
  8
gm4
  0
POLYLINE
  8
gm4
 62
1
 40
0.000000
 41
0.000000
 66
  1
  0
VERTEX
  8
gm4
 10
2.208780
 20
3.286910
  0
VERTEX
  8
gm4
 10
2.759970
 20
3.286910
  0
SEQEND
  8
gm4
  0
POLYLINE
  8
gm4
 62
1
 40
0.000000
 41
0.000000
 66
  1
  0
VERTEX
  8
gm4
 10
2.208780
 20
3.286910
  0
VERTEX
  8
gm4
 10
2.208780
 20
3.838090
  0
VERTEX
  8
gm4
 10
2.759970
 20
3.838090
  0
SEQEND
  8
gm4
  0
POLYLINE
  8
gm4
 62
1
 40
0.000000
 41
0.000000
 66
  1
  0
VERTEX
  8
gm4
 10
3.041220
 20
4.411910
  0
VERTEX
  8
gm4
 10
3.041220
 20
4.963090
  0
SEQEND
  8
gm4
  0
POLYLINE
  8
gm4
 62
1
 40
0.000000
 41
0.000000
 66
  1
  0
VERTEX
  8
gm4
 10
2.490030
 20
4.411910
  0
VERTEX
  8
gm4
 10
3.041220
 20
4.411910
  0
SEQEND
  8
gm4
  0
POLYLINE
  8
gm4
 62
1
 40
0.000000
 41
0.000000
 66
  1
  0
VERTEX
  8
gm4
 10
2.490030
 20
4.411910
  0
VERTEX
  8
gm4
 10
2.490030
 20
4.963090
  0
VERTEX
  8
gm4
 10
3.041220
 20
4.963090
  0
SEQEND
  8
gm4
  0
POLYLINE
  8
gm4
 62
1
 40
0.000000
 41
0.000000
 66
  1
  0
VERTEX
  8
gm4
 10
17.759970
 20
3.286910
  0
VERTEX
  8
gm4
 10
17.759970
 20
3.838090
  0
SEQEND
  8
gm4
  0
POLYLINE
  8
gm4
 62
1
 40
0.000000
 41
0.000000
 66
  1
  0
VERTEX
  8
gm4
 10
17.208780
 20
3.286910
  0
VERTEX
  8
gm4
 10
17.759970
 20
3.286910
  0
SEQEND
  8
gm4
  0
POLYLINE
  8
gm4
 62
1
 40
0.000000
 41
0.000000
 66
  1
  0
VERTEX
  8
gm4
 10
17.208780
 20
3.286910
  0
VERTEX
  8
gm4
 10
17.208780
 20
3.838090
  0
VERTEX
  8
gm4
 10
17.759970
 20
3.838090
  0
SEQEND
  8
gm4
  0
POLYLINE
  8
gm4
 62
1
 40
0.000000
 41
0.000000
 66
  1
  0
VERTEX
  8
gm4
 10
3.697470
 20
1.036910
  0
VERTEX
  8
gm4
 10
3.697470
 20
1.588090
  0
SEQEND
  8
gm4
  0
POLYLINE
  8
gm4
 62
1
 40
0.000000
 41
0.000000
 66
  1
  0
VERTEX
  8
gm4
 10
3.146280
 20
1.036910
  0
VERTEX
  8
gm4
 10
3.697470
 20
1.036910
  0
SEQEND
  8
gm4
  0
POLYLINE
  8
gm4
 62
1
 40
0.000000
 41
0.000000
 66
  1
  0
VERTEX
  8
gm4
 10
3.146280
 20
1.036910
  0
VERTEX
  8
gm4
 10
3.146280
 20
1.588090
  0
VERTEX
  8
gm4
 10
3.697470
 20
1.588090
  0
SEQEND
  8
gm4
  0
POLYLINE
  8
gm4
 62
1
 40
0.000000
 41
0.000000
 66
  1
  0
VERTEX
  8
gm4
 10
3.322470
 20
1.786910
  0
VERTEX
  8
gm4
 10
3.322470
 20
2.338090
  0
SEQEND
  8
gm4
  0
POLYLINE
  8
gm4
 62
1
 40
0.000000
 41
0.000000
 66
  1
  0
VERTEX
  8
gm4
 10
2.771280
 20
1.786910
  0
VERTEX
  8
gm4
 10
3.322470
 20
1.786910
  0
SEQEND
  8
gm4
  0
POLYLINE
  8
gm4
 62
1
 40
0.000000
 41
0.000000
 66
  1
  0
VERTEX
  8
gm4
 10
2.771280
 20
1.786910
  0
VERTEX
  8
gm4
 10
2.771280
 20
2.338090
  0
VERTEX
  8
gm4
 10
3.322470
 20
2.338090
  0
SEQEND
  8
gm4
  0
POLYLINE
  8
gm4
 62
1
 40
0.000000
 41
0.000000
 66
  1
  0
VERTEX
  8
gm4
 10
3.884970
 20
2.536910
  0
VERTEX
  8
gm4
 10
3.884970
 20
3.088090
  0
SEQEND
  8
gm4
  0
POLYLINE
  8
gm4
 62
1
 40
0.000000
 41
0.000000
 66
  1
  0
VERTEX
  8
gm4
 10
3.333780
 20
2.536910
  0
VERTEX
  8
gm4
 10
3.884970
 20
2.536910
  0
SEQEND
  8
gm4
  0
POLYLINE
  8
gm4
 62
1
 40
0.000000
 41
0.000000
 66
  1
  0
VERTEX
  8
gm4
 10
3.333780
 20
2.536910
  0
VERTEX
  8
gm4
 10
3.333780
 20
3.088090
  0
VERTEX
  8
gm4
 10
3.884970
 20
3.088090
  0
SEQEND
  8
gm4
  0
POLYLINE
  8
gm4
 62
1
 40
0.000000
 41
0.000000
 66
  1
  0
VERTEX
  8
gm4
 10
3.509970
 20
3.286910
  0
VERTEX
  8
gm4
 10
3.509970
 20
3.838090
  0
SEQEND
  8
gm4
  0
POLYLINE
  8
gm4
 62
1
 40
0.000000
 41
0.000000
 66
  1
  0
VERTEX
  8
gm4
 10
2.958780
 20
3.286910
  0
VERTEX
  8
gm4
 10
3.509970
 20
3.286910
  0
SEQEND
  8
gm4
  0
POLYLINE
  8
gm4
 62
1
 40
0.000000
 41
0.000000
 66
  1
  0
VERTEX
  8
gm4
 10
2.958780
 20
3.286910
  0
VERTEX
  8
gm4
 10
2.958780
 20
3.838090
  0
VERTEX
  8
gm4
 10
3.509970
 20
3.838090
  0
SEQEND
  8
gm4
  0
POLYLINE
  8
gm4
 62
1
 40
0.000000
 41
0.000000
 66
  1
  0
VERTEX
  8
gm4
 10
3.978720
 20
4.411910
  0
VERTEX
  8
gm4
 10
3.978720
 20
4.963090
  0
SEQEND
  8
gm4
  0
POLYLINE
  8
gm4
 62
1
 40
0.000000
 41
0.000000
 66
  1
  0
VERTEX
  8
gm4
 10
3.427530
 20
4.411910
  0
VERTEX
  8
gm4
 10
3.978720
 20
4.411910
  0
SEQEND
  8
gm4
  0
POLYLINE
  8
gm4
 62
1
 40
0.000000
 41
0.000000
 66
  1
  0
VERTEX
  8
gm4
 10
3.427530
 20
4.411910
  0
VERTEX
  8
gm4
 10
3.427530
 20
4.963090
  0
VERTEX
  8
gm4
 10
3.978720
 20
4.963090
  0
SEQEND
  8
gm4
  0
POLYLINE
  8
gm4
 62
1
 40
0.000000
 41
0.000000
 66
  1
  0
VERTEX
  8
gm4
 10
17.759970
 20
2.536910
  0
VERTEX
  8
gm4
 10
17.759970
 20
3.088090
  0
SEQEND
  8
gm4
  0
POLYLINE
  8
gm4
 62
1
 40
0.000000
 41
0.000000
 66
  1
  0
VERTEX
  8
gm4
 10
17.208780
 20
2.536910
  0
VERTEX
  8
gm4
 10
17.759970
 20
2.536910
  0
SEQEND
  8
gm4
  0
POLYLINE
  8
gm4
 62
1
 40
0.000000
 41
0.000000
 66
  1
  0
VERTEX
  8
gm4
 10
17.208780
 20
2.536910
  0
VERTEX
  8
gm4
 10
17.208780
 20
3.088090
  0
VERTEX
  8
gm4
 10
17.759970
 20
3.088090
  0
SEQEND
  8
gm4
  0
POLYLINE
  8
gm4
 62
1
 40
0.000000
 41
0.000000
 66
  1
  0
VERTEX
  8
gm4
 10
4.447470
 20
1.036910
  0
VERTEX
  8
gm4
 10
4.447470
 20
1.588090
  0
SEQEND
  8
gm4
  0
POLYLINE
  8
gm4
 62
1
 40
0.000000
 41
0.000000
 66
  1
  0
VERTEX
  8
gm4
 10
3.896280
 20
1.036910
  0
VERTEX
  8
gm4
 10
4.447470
 20
1.036910
  0
SEQEND
  8
gm4
  0
POLYLINE
  8
gm4
 62
1
 40
0.000000
 41
0.000000
 66
  1
  0
VERTEX
  8
gm4
 10
3.896280
 20
1.036910
  0
VERTEX
  8
gm4
 10
3.896280
 20
1.588090
  0
VERTEX
  8
gm4
 10
4.447470
 20
1.588090
  0
SEQEND
  8
gm4
  0
POLYLINE
  8
gm4
 62
1
 40
0.000000
 41
0.000000
 66
  1
  0
VERTEX
  8
gm4
 10
4.072470
 20
1.786910
  0
VERTEX
  8
gm4
 10
4.072470
 20
2.338090
  0
SEQEND
  8
gm4
  0
POLYLINE
  8
gm4
 62
1
 40
0.000000
 41
0.000000
 66
  1
  0
VERTEX
  8
gm4
 10
3.521280
 20
1.786910
  0
VERTEX
  8
gm4
 10
4.072470
 20
1.786910
  0
SEQEND
  8
gm4
  0
POLYLINE
  8
gm4
 62
1
 40
0.000000
 41
0.000000
 66
  1
  0
VERTEX
  8
gm4
 10
3.521280
 20
1.786910
  0
VERTEX
  8
gm4
 10
3.521280
 20
2.338090
  0
VERTEX
  8
gm4
 10
4.072470
 20
2.338090
  0
SEQEND
  8
gm4
  0
POLYLINE
  8
gm4
 62
1
 40
0.000000
 41
0.000000
 66
  1
  0
VERTEX
  8
gm4
 10
4.634970
 20
2.536910
  0
VERTEX
  8
gm4
 10
4.634970
 20
3.088090
  0
SEQEND
  8
gm4
  0
POLYLINE
  8
gm4
 62
1
 40
0.000000
 41
0.000000
 66
  1
  0
VERTEX
  8
gm4
 10
4.083780
 20
2.536910
  0
VERTEX
  8
gm4
 10
4.634970
 20
2.536910
  0
SEQEND
  8
gm4
  0
POLYLINE
  8
gm4
 62
1
 40
0.000000
 41
0.000000
 66
  1
  0
VERTEX
  8
gm4
 10
4.083780
 20
2.536910
  0
VERTEX
  8
gm4
 10
4.083780
 20
3.088090
  0
VERTEX
  8
gm4
 10
4.634970
 20
3.088090
  0
SEQEND
  8
gm4
  0
POLYLINE
  8
gm4
 62
1
 40
0.000000
 41
0.000000
 66
  1
  0
VERTEX
  8
gm4
 10
4.259970
 20
3.286910
  0
VERTEX
  8
gm4
 10
4.259970
 20
3.838090
  0
SEQEND
  8
gm4
  0
POLYLINE
  8
gm4
 62
1
 40
0.000000
 41
0.000000
 66
  1
  0
VERTEX
  8
gm4
 10
3.708780
 20
3.286910
  0
VERTEX
  8
gm4
 10
4.259970
 20
3.286910
  0
SEQEND
  8
gm4
  0
POLYLINE
  8
gm4
 62
1
 40
0.000000
 41
0.000000
 66
  1
  0
VERTEX
  8
gm4
 10
3.708780
 20
3.286910
  0
VERTEX
  8
gm4
 10
3.708780
 20
3.838090
  0
VERTEX
  8
gm4
 10
4.259970
 20
3.838090
  0
SEQEND
  8
gm4
  0
POLYLINE
  8
gm4
 62
1
 40
0.000000
 41
0.000000
 66
  1
  0
VERTEX
  8
gm4
 10
4.916220
 20
4.411910
  0
VERTEX
  8
gm4
 10
4.916220
 20
4.963090
  0
SEQEND
  8
gm4
  0
POLYLINE
  8
gm4
 62
1
 40
0.000000
 41
0.000000
 66
  1
  0
VERTEX
  8
gm4
 10
4.365030
 20
4.411910
  0
VERTEX
  8
gm4
 10
4.916220
 20
4.411910
  0
SEQEND
  8
gm4
  0
POLYLINE
  8
gm4
 62
1
 40
0.000000
 41
0.000000
 66
  1
  0
VERTEX
  8
gm4
 10
4.365030
 20
4.411910
  0
VERTEX
  8
gm4
 10
4.365030
 20
4.963090
  0
VERTEX
  8
gm4
 10
4.916220
 20
4.963090
  0
SEQEND
  8
gm4
  0
POLYLINE
  8
gm4
 62
1
 40
0.000000
 41
0.000000
 66
  1
  0
VERTEX
  8
gm4
 10
17.759970
 20
0.661910
  0
VERTEX
  8
gm4
 10
17.759970
 20
1.213090
  0
SEQEND
  8
gm4
  0
POLYLINE
  8
gm4
 62
1
 40
0.000000
 41
0.000000
 66
  1
  0
VERTEX
  8
gm4
 10
17.208780
 20
0.661910
  0
VERTEX
  8
gm4
 10
17.759970
 20
0.661910
  0
SEQEND
  8
gm4
  0
POLYLINE
  8
gm4
 62
1
 40
0.000000
 41
0.000000
 66
  1
  0
VERTEX
  8
gm4
 10
17.208780
 20
0.661910
  0
VERTEX
  8
gm4
 10
17.208780
 20
1.213090
  0
VERTEX
  8
gm4
 10
17.759970
 20
1.213090
  0
SEQEND
  8
gm4
  0
POLYLINE
  8
gm4
 62
1
 40
0.000000
 41
0.000000
 66
  1
  0
VERTEX
  8
gm4
 10
5.197470
 20
1.036910
  0
VERTEX
  8
gm4
 10
5.197470
 20
1.588090
  0
SEQEND
  8
gm4
  0
POLYLINE
  8
gm4
 62
1
 40
0.000000
 41
0.000000
 66
  1
  0
VERTEX
  8
gm4
 10
4.646280
 20
1.036910
  0
VERTEX
  8
gm4
 10
5.197470
 20
1.036910
  0
SEQEND
  8
gm4
  0
POLYLINE
  8
gm4
 62
1
 40
0.000000
 41
0.000000
 66
  1
  0
VERTEX
  8
gm4
 10
4.646280
 20
1.036910
  0
VERTEX
  8
gm4
 10
4.646280
 20
1.588090
  0
VERTEX
  8
gm4
 10
5.197470
 20
1.588090
  0
SEQEND
  8
gm4
  0
POLYLINE
  8
gm4
 62
1
 40
0.000000
 41
0.000000
 66
  1
  0
VERTEX
  8
gm4
 10
4.822470
 20
1.786910
  0
VERTEX
  8
gm4
 10
4.822470
 20
2.338090
  0
SEQEND
  8
gm4
  0
POLYLINE
  8
gm4
 62
1
 40
0.000000
 41
0.000000
 66
  1
  0
VERTEX
  8
gm4
 10
4.271280
 20
1.786910
  0
VERTEX
  8
gm4
 10
4.822470
 20
1.786910
  0
SEQEND
  8
gm4
  0
POLYLINE
  8
gm4
 62
1
 40
0.000000
 41
0.000000
 66
  1
  0
VERTEX
  8
gm4
 10
4.271280
 20
1.786910
  0
VERTEX
  8
gm4
 10
4.271280
 20
2.338090
  0
VERTEX
  8
gm4
 10
4.822470
 20
2.338090
  0
SEQEND
  8
gm4
  0
POLYLINE
  8
gm4
 62
1
 40
0.000000
 41
0.000000
 66
  1
  0
VERTEX
  8
gm4
 10
5.384970
 20
2.536910
  0
VERTEX
  8
gm4
 10
5.384970
 20
3.088090
  0
SEQEND
  8
gm4
  0
POLYLINE
  8
gm4
 62
1
 40
0.000000
 41
0.000000
 66
  1
  0
VERTEX
  8
gm4
 10
4.833780
 20
2.536910
  0
VERTEX
  8
gm4
 10
5.384970
 20
2.536910
  0
SEQEND
  8
gm4
  0
POLYLINE
  8
gm4
 62
1
 40
0.000000
 41
0.000000
 66
  1
  0
VERTEX
  8
gm4
 10
4.833780
 20
2.536910
  0
VERTEX
  8
gm4
 10
4.833780
 20
3.088090
  0
VERTEX
  8
gm4
 10
5.384970
 20
3.088090
  0
SEQEND
  8
gm4
  0
POLYLINE
  8
gm4
 62
1
 40
0.000000
 41
0.000000
 66
  1
  0
VERTEX
  8
gm4
 10
5.009970
 20
3.286910
  0
VERTEX
  8
gm4
 10
5.009970
 20
3.838090
  0
SEQEND
  8
gm4
  0
POLYLINE
  8
gm4
 62
1
 40
0.000000
 41
0.000000
 66
  1
  0
VERTEX
  8
gm4
 10
4.458780
 20
3.286910
  0
VERTEX
  8
gm4
 10
5.009970
 20
3.286910
  0
SEQEND
  8
gm4
  0
POLYLINE
  8
gm4
 62
1
 40
0.000000
 41
0.000000
 66
  1
  0
VERTEX
  8
gm4
 10
4.458780
 20
3.286910
  0
VERTEX
  8
gm4
 10
4.458780
 20
3.838090
  0
VERTEX
  8
gm4
 10
5.009970
 20
3.838090
  0
SEQEND
  8
gm4
  0
POLYLINE
  8
gm4
 62
1
 40
0.000000
 41
0.000000
 66
  1
  0
VERTEX
  8
gm4
 10
5.853720
 20
4.411910
  0
VERTEX
  8
gm4
 10
5.853720
 20
4.963090
  0
SEQEND
  8
gm4
  0
POLYLINE
  8
gm4
 62
1
 40
0.000000
 41
0.000000
 66
  1
  0
VERTEX
  8
gm4
 10
5.302530
 20
4.411910
  0
VERTEX
  8
gm4
 10
5.853720
 20
4.411910
  0
SEQEND
  8
gm4
  0
POLYLINE
  8
gm4
 62
1
 40
0.000000
 41
0.000000
 66
  1
  0
VERTEX
  8
gm4
 10
5.302530
 20
4.411910
  0
VERTEX
  8
gm4
 10
5.302530
 20
4.963090
  0
VERTEX
  8
gm4
 10
5.853720
 20
4.963090
  0
SEQEND
  8
gm4
  0
POLYLINE
  8
gm4
 62
1
 40
0.000000
 41
0.000000
 66
  1
  0
VERTEX
  8
gm4
 10
17.009970
 20
3.286910
  0
VERTEX
  8
gm4
 10
17.009970
 20
3.838090
  0
SEQEND
  8
gm4
  0
POLYLINE
  8
gm4
 62
1
 40
0.000000
 41
0.000000
 66
  1
  0
VERTEX
  8
gm4
 10
16.458780
 20
3.286910
  0
VERTEX
  8
gm4
 10
17.009970
 20
3.286910
  0
SEQEND
  8
gm4
  0
POLYLINE
  8
gm4
 62
1
 40
0.000000
 41
0.000000
 66
  1
  0
VERTEX
  8
gm4
 10
16.458780
 20
3.286910
  0
VERTEX
  8
gm4
 10
16.458780
 20
3.838090
  0
VERTEX
  8
gm4
 10
17.009970
 20
3.838090
  0
SEQEND
  8
gm4
  0
POLYLINE
  8
gm4
 62
1
 40
0.000000
 41
0.000000
 66
  1
  0
VERTEX
  8
gm4
 10
5.947470
 20
1.036910
  0
VERTEX
  8
gm4
 10
5.947470
 20
1.588090
  0
SEQEND
  8
gm4
  0
POLYLINE
  8
gm4
 62
1
 40
0.000000
 41
0.000000
 66
  1
  0
VERTEX
  8
gm4
 10
5.396280
 20
1.036910
  0
VERTEX
  8
gm4
 10
5.947470
 20
1.036910
  0
SEQEND
  8
gm4
  0
POLYLINE
  8
gm4
 62
1
 40
0.000000
 41
0.000000
 66
  1
  0
VERTEX
  8
gm4
 10
5.396280
 20
1.036910
  0
VERTEX
  8
gm4
 10
5.396280
 20
1.588090
  0
VERTEX
  8
gm4
 10
5.947470
 20
1.588090
  0
SEQEND
  8
gm4
  0
POLYLINE
  8
gm4
 62
1
 40
0.000000
 41
0.000000
 66
  1
  0
VERTEX
  8
gm4
 10
5.572470
 20
1.786910
  0
VERTEX
  8
gm4
 10
5.572470
 20
2.338090
  0
SEQEND
  8
gm4
  0
POLYLINE
  8
gm4
 62
1
 40
0.000000
 41
0.000000
 66
  1
  0
VERTEX
  8
gm4
 10
5.021280
 20
1.786910
  0
VERTEX
  8
gm4
 10
5.572470
 20
1.786910
  0
SEQEND
  8
gm4
  0
POLYLINE
  8
gm4
 62
1
 40
0.000000
 41
0.000000
 66
  1
  0
VERTEX
  8
gm4
 10
5.021280
 20
1.786910
  0
VERTEX
  8
gm4
 10
5.021280
 20
2.338090
  0
VERTEX
  8
gm4
 10
5.572470
 20
2.338090
  0
SEQEND
  8
gm4
  0
POLYLINE
  8
gm4
 62
1
 40
0.000000
 41
0.000000
 66
  1
  0
VERTEX
  8
gm4
 10
6.134970
 20
2.536910
  0
VERTEX
  8
gm4
 10
6.134970
 20
3.088090
  0
SEQEND
  8
gm4
  0
POLYLINE
  8
gm4
 62
1
 40
0.000000
 41
0.000000
 66
  1
  0
VERTEX
  8
gm4
 10
5.583780
 20
2.536910
  0
VERTEX
  8
gm4
 10
6.134970
 20
2.536910
  0
SEQEND
  8
gm4
  0
POLYLINE
  8
gm4
 62
1
 40
0.000000
 41
0.000000
 66
  1
  0
VERTEX
  8
gm4
 10
5.583780
 20
2.536910
  0
VERTEX
  8
gm4
 10
5.583780
 20
3.088090
  0
VERTEX
  8
gm4
 10
6.134970
 20
3.088090
  0
SEQEND
  8
gm4
  0
POLYLINE
  8
gm4
 62
1
 40
0.000000
 41
0.000000
 66
  1
  0
VERTEX
  8
gm4
 10
5.759970
 20
3.286910
  0
VERTEX
  8
gm4
 10
5.759970
 20
3.838090
  0
SEQEND
  8
gm4
  0
POLYLINE
  8
gm4
 62
1
 40
0.000000
 41
0.000000
 66
  1
  0
VERTEX
  8
gm4
 10
5.208780
 20
3.286910
  0
VERTEX
  8
gm4
 10
5.759970
 20
3.286910
  0
SEQEND
  8
gm4
  0
POLYLINE
  8
gm4
 62
1
 40
0.000000
 41
0.000000
 66
  1
  0
VERTEX
  8
gm4
 10
5.208780
 20
3.286910
  0
VERTEX
  8
gm4
 10
5.208780
 20
3.838090
  0
VERTEX
  8
gm4
 10
5.759970
 20
3.838090
  0
SEQEND
  8
gm4
  0
POLYLINE
  8
gm4
 62
1
 40
0.000000
 41
0.000000
 66
  1
  0
VERTEX
  8
gm4
 10
7.166220
 20
4.411910
  0
VERTEX
  8
gm4
 10
7.166220
 20
4.963090
  0
SEQEND
  8
gm4
  0
POLYLINE
  8
gm4
 62
1
 40
0.000000
 41
0.000000
 66
  1
  0
VERTEX
  8
gm4
 10
6.615030
 20
4.411910
  0
VERTEX
  8
gm4
 10
7.166220
 20
4.411910
  0
SEQEND
  8
gm4
  0
POLYLINE
  8
gm4
 62
1
 40
0.000000
 41
0.000000
 66
  1
  0
VERTEX
  8
gm4
 10
6.615030
 20
4.411910
  0
VERTEX
  8
gm4
 10
6.615030
 20
4.963090
  0
VERTEX
  8
gm4
 10
7.166220
 20
4.963090
  0
SEQEND
  8
gm4
  0
POLYLINE
  8
gm4
 62
1
 40
0.000000
 41
0.000000
 66
  1
  0
VERTEX
  8
gm4
 10
17.009970
 20
2.536910
  0
VERTEX
  8
gm4
 10
17.009970
 20
3.088090
  0
SEQEND
  8
gm4
  0
POLYLINE
  8
gm4
 62
1
 40
0.000000
 41
0.000000
 66
  1
  0
VERTEX
  8
gm4
 10
16.458780
 20
2.536910
  0
VERTEX
  8
gm4
 10
17.009970
 20
2.536910
  0
SEQEND
  8
gm4
  0
POLYLINE
  8
gm4
 62
1
 40
0.000000
 41
0.000000
 66
  1
  0
VERTEX
  8
gm4
 10
16.458780
 20
2.536910
  0
VERTEX
  8
gm4
 10
16.458780
 20
3.088090
  0
VERTEX
  8
gm4
 10
17.009970
 20
3.088090
  0
SEQEND
  8
gm4
  0
POLYLINE
  8
gm4
 62
1
 40
0.000000
 41
0.000000
 66
  1
  0
VERTEX
  8
gm4
 10
6.697470
 20
1.036910
  0
VERTEX
  8
gm4
 10
6.697470
 20
1.588090
  0
SEQEND
  8
gm4
  0
POLYLINE
  8
gm4
 62
1
 40
0.000000
 41
0.000000
 66
  1
  0
VERTEX
  8
gm4
 10
6.146280
 20
1.036910
  0
VERTEX
  8
gm4
 10
6.697470
 20
1.036910
  0
SEQEND
  8
gm4
  0
POLYLINE
  8
gm4
 62
1
 40
0.000000
 41
0.000000
 66
  1
  0
VERTEX
  8
gm4
 10
6.146280
 20
1.036910
  0
VERTEX
  8
gm4
 10
6.146280
 20
1.588090
  0
VERTEX
  8
gm4
 10
6.697470
 20
1.588090
  0
SEQEND
  8
gm4
  0
POLYLINE
  8
gm4
 62
1
 40
0.000000
 41
0.000000
 66
  1
  0
VERTEX
  8
gm4
 10
6.322470
 20
1.786910
  0
VERTEX
  8
gm4
 10
6.322470
 20
2.338090
  0
SEQEND
  8
gm4
  0
POLYLINE
  8
gm4
 62
1
 40
0.000000
 41
0.000000
 66
  1
  0
VERTEX
  8
gm4
 10
5.771280
 20
1.786910
  0
VERTEX
  8
gm4
 10
6.322470
 20
1.786910
  0
SEQEND
  8
gm4
  0
POLYLINE
  8
gm4
 62
1
 40
0.000000
 41
0.000000
 66
  1
  0
VERTEX
  8
gm4
 10
5.771280
 20
1.786910
  0
VERTEX
  8
gm4
 10
5.771280
 20
2.338090
  0
VERTEX
  8
gm4
 10
6.322470
 20
2.338090
  0
SEQEND
  8
gm4
  0
POLYLINE
  8
gm4
 62
1
 40
0.000000
 41
0.000000
 66
  1
  0
VERTEX
  8
gm4
 10
6.884970
 20
2.536910
  0
VERTEX
  8
gm4
 10
6.884970
 20
3.088090
  0
SEQEND
  8
gm4
  0
POLYLINE
  8
gm4
 62
1
 40
0.000000
 41
0.000000
 66
  1
  0
VERTEX
  8
gm4
 10
6.333780
 20
2.536910
  0
VERTEX
  8
gm4
 10
6.884970
 20
2.536910
  0
SEQEND
  8
gm4
  0
POLYLINE
  8
gm4
 62
1
 40
0.000000
 41
0.000000
 66
  1
  0
VERTEX
  8
gm4
 10
6.333780
 20
2.536910
  0
VERTEX
  8
gm4
 10
6.333780
 20
3.088090
  0
VERTEX
  8
gm4
 10
6.884970
 20
3.088090
  0
SEQEND
  8
gm4
  0
POLYLINE
  8
gm4
 62
1
 40
0.000000
 41
0.000000
 66
  1
  0
VERTEX
  8
gm4
 10
6.509970
 20
3.286910
  0
VERTEX
  8
gm4
 10
6.509970
 20
3.838090
  0
SEQEND
  8
gm4
  0
POLYLINE
  8
gm4
 62
1
 40
0.000000
 41
0.000000
 66
  1
  0
VERTEX
  8
gm4
 10
5.958780
 20
3.286910
  0
VERTEX
  8
gm4
 10
6.509970
 20
3.286910
  0
SEQEND
  8
gm4
  0
POLYLINE
  8
gm4
 62
1
 40
0.000000
 41
0.000000
 66
  1
  0
VERTEX
  8
gm4
 10
5.958780
 20
3.286910
  0
VERTEX
  8
gm4
 10
5.958780
 20
3.838090
  0
VERTEX
  8
gm4
 10
6.509970
 20
3.838090
  0
SEQEND
  8
gm4
  0
POLYLINE
  8
gm4
 62
1
 40
0.000000
 41
0.000000
 66
  1
  0
VERTEX
  8
gm4
 10
8.103720
 20
4.411910
  0
VERTEX
  8
gm4
 10
8.103720
 20
4.963090
  0
SEQEND
  8
gm4
  0
POLYLINE
  8
gm4
 62
1
 40
0.000000
 41
0.000000
 66
  1
  0
VERTEX
  8
gm4
 10
7.552530
 20
4.411910
  0
VERTEX
  8
gm4
 10
8.103720
 20
4.411910
  0
SEQEND
  8
gm4
  0
POLYLINE
  8
gm4
 62
1
 40
0.000000
 41
0.000000
 66
  1
  0
VERTEX
  8
gm4
 10
7.552530
 20
4.411910
  0
VERTEX
  8
gm4
 10
7.552530
 20
4.963090
  0
VERTEX
  8
gm4
 10
8.103720
 20
4.963090
  0
SEQEND
  8
gm4
  0
POLYLINE
  8
gm4
 62
1
 40
0.000000
 41
0.000000
 66
  1
  0
VERTEX
  8
gm4
 10
17.009970
 20
1.036910
  0
VERTEX
  8
gm4
 10
17.009970
 20
1.588090
  0
SEQEND
  8
gm4
  0
POLYLINE
  8
gm4
 62
1
 40
0.000000
 41
0.000000
 66
  1
  0
VERTEX
  8
gm4
 10
16.458780
 20
1.036910
  0
VERTEX
  8
gm4
 10
17.009970
 20
1.036910
  0
SEQEND
  8
gm4
  0
POLYLINE
  8
gm4
 62
1
 40
0.000000
 41
0.000000
 66
  1
  0
VERTEX
  8
gm4
 10
16.458780
 20
1.036910
  0
VERTEX
  8
gm4
 10
16.458780
 20
1.588090
  0
VERTEX
  8
gm4
 10
17.009970
 20
1.588090
  0
SEQEND
  8
gm4
  0
POLYLINE
  8
gm4
 62
1
 40
0.000000
 41
0.000000
 66
  1
  0
VERTEX
  8
gm4
 10
7.447470
 20
1.036910
  0
VERTEX
  8
gm4
 10
7.447470
 20
1.588090
  0
SEQEND
  8
gm4
  0
POLYLINE
  8
gm4
 62
1
 40
0.000000
 41
0.000000
 66
  1
  0
VERTEX
  8
gm4
 10
6.896280
 20
1.036910
  0
VERTEX
  8
gm4
 10
7.447470
 20
1.036910
  0
SEQEND
  8
gm4
  0
POLYLINE
  8
gm4
 62
1
 40
0.000000
 41
0.000000
 66
  1
  0
VERTEX
  8
gm4
 10
6.896280
 20
1.036910
  0
VERTEX
  8
gm4
 10
6.896280
 20
1.588090
  0
VERTEX
  8
gm4
 10
7.447470
 20
1.588090
  0
SEQEND
  8
gm4
  0
POLYLINE
  8
gm4
 62
1
 40
0.000000
 41
0.000000
 66
  1
  0
VERTEX
  8
gm4
 10
7.072470
 20
1.786910
  0
VERTEX
  8
gm4
 10
7.072470
 20
2.338090
  0
SEQEND
  8
gm4
  0
POLYLINE
  8
gm4
 62
1
 40
0.000000
 41
0.000000
 66
  1
  0
VERTEX
  8
gm4
 10
6.521280
 20
1.786910
  0
VERTEX
  8
gm4
 10
7.072470
 20
1.786910
  0
SEQEND
  8
gm4
  0
POLYLINE
  8
gm4
 62
1
 40
0.000000
 41
0.000000
 66
  1
  0
VERTEX
  8
gm4
 10
6.521280
 20
1.786910
  0
VERTEX
  8
gm4
 10
6.521280
 20
2.338090
  0
VERTEX
  8
gm4
 10
7.072470
 20
2.338090
  0
SEQEND
  8
gm4
  0
POLYLINE
  8
gm4
 62
1
 40
0.000000
 41
0.000000
 66
  1
  0
VERTEX
  8
gm4
 10
7.634970
 20
2.536910
  0
VERTEX
  8
gm4
 10
7.634970
 20
3.088090
  0
SEQEND
  8
gm4
  0
POLYLINE
  8
gm4
 62
1
 40
0.000000
 41
0.000000
 66
  1
  0
VERTEX
  8
gm4
 10
7.083780
 20
2.536910
  0
VERTEX
  8
gm4
 10
7.634970
 20
2.536910
  0
SEQEND
  8
gm4
  0
POLYLINE
  8
gm4
 62
1
 40
0.000000
 41
0.000000
 66
  1
  0
VERTEX
  8
gm4
 10
7.083780
 20
2.536910
  0
VERTEX
  8
gm4
 10
7.083780
 20
3.088090
  0
VERTEX
  8
gm4
 10
7.634970
 20
3.088090
  0
SEQEND
  8
gm4
  0
POLYLINE
  8
gm4
 62
1
 40
0.000000
 41
0.000000
 66
  1
  0
VERTEX
  8
gm4
 10
7.259970
 20
3.286910
  0
VERTEX
  8
gm4
 10
7.259970
 20
3.838090
  0
SEQEND
  8
gm4
  0
POLYLINE
  8
gm4
 62
1
 40
0.000000
 41
0.000000
 66
  1
  0
VERTEX
  8
gm4
 10
6.708780
 20
3.286910
  0
VERTEX
  8
gm4
 10
7.259970
 20
3.286910
  0
SEQEND
  8
gm4
  0
POLYLINE
  8
gm4
 62
1
 40
0.000000
 41
0.000000
 66
  1
  0
VERTEX
  8
gm4
 10
6.708780
 20
3.286910
  0
VERTEX
  8
gm4
 10
6.708780
 20
3.838090
  0
VERTEX
  8
gm4
 10
7.259970
 20
3.838090
  0
SEQEND
  8
gm4
  0
POLYLINE
  8
gm4
 62
1
 40
0.000000
 41
0.000000
 66
  1
  0
VERTEX
  8
gm4
 10
9.041220
 20
4.411910
  0
VERTEX
  8
gm4
 10
9.041220
 20
4.963090
  0
SEQEND
  8
gm4
  0
POLYLINE
  8
gm4
 62
1
 40
0.000000
 41
0.000000
 66
  1
  0
VERTEX
  8
gm4
 10
8.490030
 20
4.411910
  0
VERTEX
  8
gm4
 10
9.041220
 20
4.411910
  0
SEQEND
  8
gm4
  0
POLYLINE
  8
gm4
 62
1
 40
0.000000
 41
0.000000
 66
  1
  0
VERTEX
  8
gm4
 10
8.490030
 20
4.411910
  0
VERTEX
  8
gm4
 10
8.490030
 20
4.963090
  0
VERTEX
  8
gm4
 10
9.041220
 20
4.963090
  0
SEQEND
  8
gm4
  0
POLYLINE
  8
gm4
 62
1
 40
0.000000
 41
0.000000
 66
  1
  0
VERTEX
  8
gm4
 10
17.009970
 20
0.286910
  0
VERTEX
  8
gm4
 10
17.009970
 20
0.838090
  0
SEQEND
  8
gm4
  0
POLYLINE
  8
gm4
 62
1
 40
0.000000
 41
0.000000
 66
  1
  0
VERTEX
  8
gm4
 10
16.458780
 20
0.286910
  0
VERTEX
  8
gm4
 10
17.009970
 20
0.286910
  0
SEQEND
  8
gm4
  0
POLYLINE
  8
gm4
 62
1
 40
0.000000
 41
0.000000
 66
  1
  0
VERTEX
  8
gm4
 10
16.458780
 20
0.286910
  0
VERTEX
  8
gm4
 10
16.458780
 20
0.838090
  0
VERTEX
  8
gm4
 10
17.009970
 20
0.838090
  0
SEQEND
  8
gm4
  0
POLYLINE
  8
gm4
 62
1
 40
0.000000
 41
0.000000
 66
  1
  0
VERTEX
  8
gm4
 10
8.197470
 20
1.036910
  0
VERTEX
  8
gm4
 10
8.197470
 20
1.588090
  0
SEQEND
  8
gm4
  0
POLYLINE
  8
gm4
 62
1
 40
0.000000
 41
0.000000
 66
  1
  0
VERTEX
  8
gm4
 10
7.646280
 20
1.036910
  0
VERTEX
  8
gm4
 10
8.197470
 20
1.036910
  0
SEQEND
  8
gm4
  0
POLYLINE
  8
gm4
 62
1
 40
0.000000
 41
0.000000
 66
  1
  0
VERTEX
  8
gm4
 10
7.646280
 20
1.036910
  0
VERTEX
  8
gm4
 10
7.646280
 20
1.588090
  0
VERTEX
  8
gm4
 10
8.197470
 20
1.588090
  0
SEQEND
  8
gm4
  0
POLYLINE
  8
gm4
 62
1
 40
0.000000
 41
0.000000
 66
  1
  0
VERTEX
  8
gm4
 10
7.822470
 20
1.786910
  0
VERTEX
  8
gm4
 10
7.822470
 20
2.338090
  0
SEQEND
  8
gm4
  0
POLYLINE
  8
gm4
 62
1
 40
0.000000
 41
0.000000
 66
  1
  0
VERTEX
  8
gm4
 10
7.271280
 20
1.786910
  0
VERTEX
  8
gm4
 10
7.822470
 20
1.786910
  0
SEQEND
  8
gm4
  0
POLYLINE
  8
gm4
 62
1
 40
0.000000
 41
0.000000
 66
  1
  0
VERTEX
  8
gm4
 10
7.271280
 20
1.786910
  0
VERTEX
  8
gm4
 10
7.271280
 20
2.338090
  0
VERTEX
  8
gm4
 10
7.822470
 20
2.338090
  0
SEQEND
  8
gm4
  0
POLYLINE
  8
gm4
 62
1
 40
0.000000
 41
0.000000
 66
  1
  0
VERTEX
  8
gm4
 10
8.384970
 20
2.536910
  0
VERTEX
  8
gm4
 10
8.384970
 20
3.088090
  0
SEQEND
  8
gm4
  0
POLYLINE
  8
gm4
 62
1
 40
0.000000
 41
0.000000
 66
  1
  0
VERTEX
  8
gm4
 10
7.833780
 20
2.536910
  0
VERTEX
  8
gm4
 10
8.384970
 20
2.536910
  0
SEQEND
  8
gm4
  0
POLYLINE
  8
gm4
 62
1
 40
0.000000
 41
0.000000
 66
  1
  0
VERTEX
  8
gm4
 10
7.833780
 20
2.536910
  0
VERTEX
  8
gm4
 10
7.833780
 20
3.088090
  0
VERTEX
  8
gm4
 10
8.384970
 20
3.088090
  0
SEQEND
  8
gm4
  0
POLYLINE
  8
gm4
 62
1
 40
0.000000
 41
0.000000
 66
  1
  0
VERTEX
  8
gm4
 10
8.009970
 20
3.286910
  0
VERTEX
  8
gm4
 10
8.009970
 20
3.838090
  0
SEQEND
  8
gm4
  0
POLYLINE
  8
gm4
 62
1
 40
0.000000
 41
0.000000
 66
  1
  0
VERTEX
  8
gm4
 10
7.458780
 20
3.286910
  0
VERTEX
  8
gm4
 10
8.009970
 20
3.286910
  0
SEQEND
  8
gm4
  0
POLYLINE
  8
gm4
 62
1
 40
0.000000
 41
0.000000
 66
  1
  0
VERTEX
  8
gm4
 10
7.458780
 20
3.286910
  0
VERTEX
  8
gm4
 10
7.458780
 20
3.838090
  0
VERTEX
  8
gm4
 10
8.009970
 20
3.838090
  0
SEQEND
  8
gm4
  0
POLYLINE
  8
gm4
 62
1
 40
0.000000
 41
0.000000
 66
  1
  0
VERTEX
  8
gm4
 10
9.978720
 20
4.411910
  0
VERTEX
  8
gm4
 10
9.978720
 20
4.963090
  0
SEQEND
  8
gm4
  0
POLYLINE
  8
gm4
 62
1
 40
0.000000
 41
0.000000
 66
  1
  0
VERTEX
  8
gm4
 10
9.427530
 20
4.411910
  0
VERTEX
  8
gm4
 10
9.978720
 20
4.411910
  0
SEQEND
  8
gm4
  0
POLYLINE
  8
gm4
 62
1
 40
0.000000
 41
0.000000
 66
  1
  0
VERTEX
  8
gm4
 10
9.427530
 20
4.411910
  0
VERTEX
  8
gm4
 10
9.427530
 20
4.963090
  0
VERTEX
  8
gm4
 10
9.978720
 20
4.963090
  0
SEQEND
  8
gm4
  0
POLYLINE
  8
gm4
 62
1
 40
0.000000
 41
0.000000
 66
  1
  0
VERTEX
  8
gm4
 10
16.259970
 20
3.286910
  0
VERTEX
  8
gm4
 10
16.259970
 20
3.838090
  0
SEQEND
  8
gm4
  0
POLYLINE
  8
gm4
 62
1
 40
0.000000
 41
0.000000
 66
  1
  0
VERTEX
  8
gm4
 10
15.708780
 20
3.286910
  0
VERTEX
  8
gm4
 10
16.259970
 20
3.286910
  0
SEQEND
  8
gm4
  0
POLYLINE
  8
gm4
 62
1
 40
0.000000
 41
0.000000
 66
  1
  0
VERTEX
  8
gm4
 10
15.708780
 20
3.286910
  0
VERTEX
  8
gm4
 10
15.708780
 20
3.838090
  0
VERTEX
  8
gm4
 10
16.259970
 20
3.838090
  0
SEQEND
  8
gm4
  0
POLYLINE
  8
gm4
 62
1
 40
0.000000
 41
0.000000
 66
  1
  0
VERTEX
  8
gm4
 10
8.947470
 20
1.036910
  0
VERTEX
  8
gm4
 10
8.947470
 20
1.588090
  0
SEQEND
  8
gm4
  0
POLYLINE
  8
gm4
 62
1
 40
0.000000
 41
0.000000
 66
  1
  0
VERTEX
  8
gm4
 10
8.396280
 20
1.036910
  0
VERTEX
  8
gm4
 10
8.947470
 20
1.036910
  0
SEQEND
  8
gm4
  0
POLYLINE
  8
gm4
 62
1
 40
0.000000
 41
0.000000
 66
  1
  0
VERTEX
  8
gm4
 10
8.396280
 20
1.036910
  0
VERTEX
  8
gm4
 10
8.396280
 20
1.588090
  0
VERTEX
  8
gm4
 10
8.947470
 20
1.588090
  0
SEQEND
  8
gm4
  0
POLYLINE
  8
gm4
 62
1
 40
0.000000
 41
0.000000
 66
  1
  0
VERTEX
  8
gm4
 10
8.572470
 20
1.786910
  0
VERTEX
  8
gm4
 10
8.572470
 20
2.338090
  0
SEQEND
  8
gm4
  0
POLYLINE
  8
gm4
 62
1
 40
0.000000
 41
0.000000
 66
  1
  0
VERTEX
  8
gm4
 10
8.021280
 20
1.786910
  0
VERTEX
  8
gm4
 10
8.572470
 20
1.786910
  0
SEQEND
  8
gm4
  0
POLYLINE
  8
gm4
 62
1
 40
0.000000
 41
0.000000
 66
  1
  0
VERTEX
  8
gm4
 10
8.021280
 20
1.786910
  0
VERTEX
  8
gm4
 10
8.021280
 20
2.338090
  0
VERTEX
  8
gm4
 10
8.572470
 20
2.338090
  0
SEQEND
  8
gm4
  0
POLYLINE
  8
gm4
 62
1
 40
0.000000
 41
0.000000
 66
  1
  0
VERTEX
  8
gm4
 10
9.134970
 20
2.536910
  0
VERTEX
  8
gm4
 10
9.134970
 20
3.088090
  0
SEQEND
  8
gm4
  0
POLYLINE
  8
gm4
 62
1
 40
0.000000
 41
0.000000
 66
  1
  0
VERTEX
  8
gm4
 10
8.583780
 20
2.536910
  0
VERTEX
  8
gm4
 10
9.134970
 20
2.536910
  0
SEQEND
  8
gm4
  0
POLYLINE
  8
gm4
 62
1
 40
0.000000
 41
0.000000
 66
  1
  0
VERTEX
  8
gm4
 10
8.583780
 20
2.536910
  0
VERTEX
  8
gm4
 10
8.583780
 20
3.088090
  0
VERTEX
  8
gm4
 10
9.134970
 20
3.088090
  0
SEQEND
  8
gm4
  0
POLYLINE
  8
gm4
 62
1
 40
0.000000
 41
0.000000
 66
  1
  0
VERTEX
  8
gm4
 10
8.759970
 20
3.286910
  0
VERTEX
  8
gm4
 10
8.759970
 20
3.838090
  0
SEQEND
  8
gm4
  0
POLYLINE
  8
gm4
 62
1
 40
0.000000
 41
0.000000
 66
  1
  0
VERTEX
  8
gm4
 10
8.208780
 20
3.286910
  0
VERTEX
  8
gm4
 10
8.759970
 20
3.286910
  0
SEQEND
  8
gm4
  0
POLYLINE
  8
gm4
 62
1
 40
0.000000
 41
0.000000
 66
  1
  0
VERTEX
  8
gm4
 10
8.208780
 20
3.286910
  0
VERTEX
  8
gm4
 10
8.208780
 20
3.838090
  0
VERTEX
  8
gm4
 10
8.759970
 20
3.838090
  0
SEQEND
  8
gm4
  0
POLYLINE
  8
gm4
 62
1
 40
0.000000
 41
0.000000
 66
  1
  0
VERTEX
  8
gm4
 10
10.916220
 20
4.411910
  0
VERTEX
  8
gm4
 10
10.916220
 20
4.963090
  0
SEQEND
  8
gm4
  0
POLYLINE
  8
gm4
 62
1
 40
0.000000
 41
0.000000
 66
  1
  0
VERTEX
  8
gm4
 10
10.365030
 20
4.411910
  0
VERTEX
  8
gm4
 10
10.916220
 20
4.411910
  0
SEQEND
  8
gm4
  0
POLYLINE
  8
gm4
 62
1
 40
0.000000
 41
0.000000
 66
  1
  0
VERTEX
  8
gm4
 10
10.365030
 20
4.411910
  0
VERTEX
  8
gm4
 10
10.365030
 20
4.963090
  0
VERTEX
  8
gm4
 10
10.916220
 20
4.963090
  0
SEQEND
  8
gm4
  0
POLYLINE
  8
gm4
 62
1
 40
0.000000
 41
0.000000
 66
  1
  0
VERTEX
  8
gm4
 10
10.166220
 20
0.286910
  0
VERTEX
  8
gm4
 10
10.166220
 20
0.838090
  0
SEQEND
  8
gm4
  0
POLYLINE
  8
gm4
 62
1
 40
0.000000
 41
0.000000
 66
  1
  0
VERTEX
  8
gm4
 10
9.615030
 20
0.286910
  0
VERTEX
  8
gm4
 10
10.166220
 20
0.286910
  0
SEQEND
  8
gm4
  0
POLYLINE
  8
gm4
 62
1
 40
0.000000
 41
0.000000
 66
  1
  0
VERTEX
  8
gm4
 10
9.615030
 20
0.286910
  0
VERTEX
  8
gm4
 10
9.615030
 20
0.838090
  0
VERTEX
  8
gm4
 10
10.166220
 20
0.838090
  0
SEQEND
  8
gm4
  0
POLYLINE
  8
gm4
 62
1
 40
0.000000
 41
0.000000
 66
  1
  0
VERTEX
  8
gm4
 10
9.697470
 20
1.036910
  0
VERTEX
  8
gm4
 10
9.697470
 20
1.588090
  0
SEQEND
  8
gm4
  0
POLYLINE
  8
gm4
 62
1
 40
0.000000
 41
0.000000
 66
  1
  0
VERTEX
  8
gm4
 10
9.146280
 20
1.036910
  0
VERTEX
  8
gm4
 10
9.697470
 20
1.036910
  0
SEQEND
  8
gm4
  0
POLYLINE
  8
gm4
 62
1
 40
0.000000
 41
0.000000
 66
  1
  0
VERTEX
  8
gm4
 10
9.146280
 20
1.036910
  0
VERTEX
  8
gm4
 10
9.146280
 20
1.588090
  0
VERTEX
  8
gm4
 10
9.697470
 20
1.588090
  0
SEQEND
  8
gm4
  0
POLYLINE
  8
gm4
 62
1
 40
0.000000
 41
0.000000
 66
  1
  0
VERTEX
  8
gm4
 10
9.322470
 20
1.786910
  0
VERTEX
  8
gm4
 10
9.322470
 20
2.338090
  0
SEQEND
  8
gm4
  0
POLYLINE
  8
gm4
 62
1
 40
0.000000
 41
0.000000
 66
  1
  0
VERTEX
  8
gm4
 10
8.771280
 20
1.786910
  0
VERTEX
  8
gm4
 10
9.322470
 20
1.786910
  0
SEQEND
  8
gm4
  0
POLYLINE
  8
gm4
 62
1
 40
0.000000
 41
0.000000
 66
  1
  0
VERTEX
  8
gm4
 10
8.771280
 20
1.786910
  0
VERTEX
  8
gm4
 10
8.771280
 20
2.338090
  0
VERTEX
  8
gm4
 10
9.322470
 20
2.338090
  0
SEQEND
  8
gm4
  0
POLYLINE
  8
gm4
 62
1
 40
0.000000
 41
0.000000
 66
  1
  0
VERTEX
  8
gm4
 10
9.884970
 20
2.536910
  0
VERTEX
  8
gm4
 10
9.884970
 20
3.088090
  0
SEQEND
  8
gm4
  0
POLYLINE
  8
gm4
 62
1
 40
0.000000
 41
0.000000
 66
  1
  0
VERTEX
  8
gm4
 10
9.333780
 20
2.536910
  0
VERTEX
  8
gm4
 10
9.884970
 20
2.536910
  0
SEQEND
  8
gm4
  0
POLYLINE
  8
gm4
 62
1
 40
0.000000
 41
0.000000
 66
  1
  0
VERTEX
  8
gm4
 10
9.333780
 20
2.536910
  0
VERTEX
  8
gm4
 10
9.333780
 20
3.088090
  0
VERTEX
  8
gm4
 10
9.884970
 20
3.088090
  0
SEQEND
  8
gm4
  0
POLYLINE
  8
gm4
 62
1
 40
0.000000
 41
0.000000
 66
  1
  0
VERTEX
  8
gm4
 10
9.509970
 20
3.286910
  0
VERTEX
  8
gm4
 10
9.509970
 20
3.838090
  0
SEQEND
  8
gm4
  0
POLYLINE
  8
gm4
 62
1
 40
0.000000
 41
0.000000
 66
  1
  0
VERTEX
  8
gm4
 10
8.958780
 20
3.286910
  0
VERTEX
  8
gm4
 10
9.509970
 20
3.286910
  0
SEQEND
  8
gm4
  0
POLYLINE
  8
gm4
 62
1
 40
0.000000
 41
0.000000
 66
  1
  0
VERTEX
  8
gm4
 10
8.958780
 20
3.286910
  0
VERTEX
  8
gm4
 10
8.958780
 20
3.838090
  0
VERTEX
  8
gm4
 10
9.509970
 20
3.838090
  0
SEQEND
  8
gm4
  0
POLYLINE
  8
gm4
 62
1
 40
0.000000
 41
0.000000
 66
  1
  0
VERTEX
  8
gm4
 10
15.509970
 20
3.286910
  0
VERTEX
  8
gm4
 10
15.509970
 20
3.838090
  0
SEQEND
  8
gm4
  0
POLYLINE
  8
gm4
 62
1
 40
0.000000
 41
0.000000
 66
  1
  0
VERTEX
  8
gm4
 10
14.958780
 20
3.286910
  0
VERTEX
  8
gm4
 10
15.509970
 20
3.286910
  0
SEQEND
  8
gm4
  0
POLYLINE
  8
gm4
 62
1
 40
0.000000
 41
0.000000
 66
  1
  0
VERTEX
  8
gm4
 10
14.958780
 20
3.286910
  0
VERTEX
  8
gm4
 10
14.958780
 20
3.838090
  0
VERTEX
  8
gm4
 10
15.509970
 20
3.838090
  0
SEQEND
  8
gm4
  0
POLYLINE
  8
gm4
 62
1
 40
0.000000
 41
0.000000
 66
  1
  0
VERTEX
  8
gm4
 10
11.103720
 20
0.286910
  0
VERTEX
  8
gm4
 10
11.103720
 20
0.838090
  0
SEQEND
  8
gm4
  0
POLYLINE
  8
gm4
 62
1
 40
0.000000
 41
0.000000
 66
  1
  0
VERTEX
  8
gm4
 10
10.552530
 20
0.286910
  0
VERTEX
  8
gm4
 10
11.103720
 20
0.286910
  0
SEQEND
  8
gm4
  0
POLYLINE
  8
gm4
 62
1
 40
0.000000
 41
0.000000
 66
  1
  0
VERTEX
  8
gm4
 10
10.552530
 20
0.286910
  0
VERTEX
  8
gm4
 10
10.552530
 20
0.838090
  0
VERTEX
  8
gm4
 10
11.103720
 20
0.838090
  0
SEQEND
  8
gm4
  0
POLYLINE
  8
gm4
 62
1
 40
0.000000
 41
0.000000
 66
  1
  0
VERTEX
  8
gm4
 10
11.103720
 20
1.036910
  0
VERTEX
  8
gm4
 10
11.103720
 20
1.588090
  0
SEQEND
  8
gm4
  0
POLYLINE
  8
gm4
 62
1
 40
0.000000
 41
0.000000
 66
  1
  0
VERTEX
  8
gm4
 10
10.552530
 20
1.036910
  0
VERTEX
  8
gm4
 10
11.103720
 20
1.036910
  0
SEQEND
  8
gm4
  0
POLYLINE
  8
gm4
 62
1
 40
0.000000
 41
0.000000
 66
  1
  0
VERTEX
  8
gm4
 10
10.552530
 20
1.036910
  0
VERTEX
  8
gm4
 10
10.552530
 20
1.588090
  0
VERTEX
  8
gm4
 10
11.103720
 20
1.588090
  0
SEQEND
  8
gm4
  0
POLYLINE
  8
gm4
 62
1
 40
0.000000
 41
0.000000
 66
  1
  0
VERTEX
  8
gm4
 10
10.072470
 20
1.786910
  0
VERTEX
  8
gm4
 10
10.072470
 20
2.338090
  0
SEQEND
  8
gm4
  0
POLYLINE
  8
gm4
 62
1
 40
0.000000
 41
0.000000
 66
  1
  0
VERTEX
  8
gm4
 10
9.521280
 20
1.786910
  0
VERTEX
  8
gm4
 10
10.072470
 20
1.786910
  0
SEQEND
  8
gm4
  0
POLYLINE
  8
gm4
 62
1
 40
0.000000
 41
0.000000
 66
  1
  0
VERTEX
  8
gm4
 10
9.521280
 20
1.786910
  0
VERTEX
  8
gm4
 10
9.521280
 20
2.338090
  0
VERTEX
  8
gm4
 10
10.072470
 20
2.338090
  0
SEQEND
  8
gm4
  0
POLYLINE
  8
gm4
 62
1
 40
0.000000
 41
0.000000
 66
  1
  0
VERTEX
  8
gm4
 10
10.634970
 20
2.536910
  0
VERTEX
  8
gm4
 10
10.634970
 20
3.088090
  0
SEQEND
  8
gm4
  0
POLYLINE
  8
gm4
 62
1
 40
0.000000
 41
0.000000
 66
  1
  0
VERTEX
  8
gm4
 10
10.083780
 20
2.536910
  0
VERTEX
  8
gm4
 10
10.634970
 20
2.536910
  0
SEQEND
  8
gm4
  0
POLYLINE
  8
gm4
 62
1
 40
0.000000
 41
0.000000
 66
  1
  0
VERTEX
  8
gm4
 10
10.083780
 20
2.536910
  0
VERTEX
  8
gm4
 10
10.083780
 20
3.088090
  0
VERTEX
  8
gm4
 10
10.634970
 20
3.088090
  0
SEQEND
  8
gm4
  0
POLYLINE
  8
gm4
 62
1
 40
0.000000
 41
0.000000
 66
  1
  0
VERTEX
  8
gm4
 10
10.259970
 20
3.286910
  0
VERTEX
  8
gm4
 10
10.259970
 20
3.838090
  0
SEQEND
  8
gm4
  0
POLYLINE
  8
gm4
 62
1
 40
0.000000
 41
0.000000
 66
  1
  0
VERTEX
  8
gm4
 10
9.708780
 20
3.286910
  0
VERTEX
  8
gm4
 10
10.259970
 20
3.286910
  0
SEQEND
  8
gm4
  0
POLYLINE
  8
gm4
 62
1
 40
0.000000
 41
0.000000
 66
  1
  0
VERTEX
  8
gm4
 10
9.708780
 20
3.286910
  0
VERTEX
  8
gm4
 10
9.708780
 20
3.838090
  0
VERTEX
  8
gm4
 10
10.259970
 20
3.838090
  0
SEQEND
  8
gm4
  0
POLYLINE
  8
gm4
 62
1
 40
0.000000
 41
0.000000
 66
  1
  0
VERTEX
  8
gm4
 10
16.259970
 20
1.036910
  0
VERTEX
  8
gm4
 10
16.259970
 20
1.588090
  0
SEQEND
  8
gm4
  0
POLYLINE
  8
gm4
 62
1
 40
0.000000
 41
0.000000
 66
  1
  0
VERTEX
  8
gm4
 10
15.708780
 20
1.036910
  0
VERTEX
  8
gm4
 10
16.259970
 20
1.036910
  0
SEQEND
  8
gm4
  0
POLYLINE
  8
gm4
 62
1
 40
0.000000
 41
0.000000
 66
  1
  0
VERTEX
  8
gm4
 10
15.708780
 20
1.036910
  0
VERTEX
  8
gm4
 10
15.708780
 20
1.588090
  0
VERTEX
  8
gm4
 10
16.259970
 20
1.588090
  0
SEQEND
  8
gm4
  0
POLYLINE
  8
gm4
 62
1
 40
0.000000
 41
0.000000
 66
  1
  0
VERTEX
  8
gm4
 10
15.884970
 20
0.286910
  0
VERTEX
  8
gm4
 10
15.884970
 20
0.838090
  0
SEQEND
  8
gm4
  0
POLYLINE
  8
gm4
 62
1
 40
0.000000
 41
0.000000
 66
  1
  0
VERTEX
  8
gm4
 10
15.333780
 20
0.286910
  0
VERTEX
  8
gm4
 10
15.884970
 20
0.286910
  0
SEQEND
  8
gm4
  0
POLYLINE
  8
gm4
 62
1
 40
0.000000
 41
0.000000
 66
  1
  0
VERTEX
  8
gm4
 10
15.333780
 20
0.286910
  0
VERTEX
  8
gm4
 10
15.333780
 20
0.838090
  0
VERTEX
  8
gm4
 10
15.884970
 20
0.838090
  0
SEQEND
  8
gm4
  0
POLYLINE
  8
gm4
 62
1
 40
0.000000
 41
0.000000
 66
  1
  0
VERTEX
  8
gm4
 10
12.884970
 20
1.036910
  0
VERTEX
  8
gm4
 10
12.884970
 20
1.588090
  0
SEQEND
  8
gm4
  0
POLYLINE
  8
gm4
 62
1
 40
0.000000
 41
0.000000
 66
  1
  0
VERTEX
  8
gm4
 10
12.333780
 20
1.036910
  0
VERTEX
  8
gm4
 10
12.884970
 20
1.036910
  0
SEQEND
  8
gm4
  0
POLYLINE
  8
gm4
 62
1
 40
0.000000
 41
0.000000
 66
  1
  0
VERTEX
  8
gm4
 10
12.333780
 20
1.036910
  0
VERTEX
  8
gm4
 10
12.333780
 20
1.588090
  0
VERTEX
  8
gm4
 10
12.884970
 20
1.588090
  0
SEQEND
  8
gm4
  0
POLYLINE
  8
gm4
 62
1
 40
0.000000
 41
0.000000
 66
  1
  0
VERTEX
  8
gm4
 10
10.822470
 20
1.786910
  0
VERTEX
  8
gm4
 10
10.822470
 20
2.338090
  0
SEQEND
  8
gm4
  0
POLYLINE
  8
gm4
 62
1
 40
0.000000
 41
0.000000
 66
  1
  0
VERTEX
  8
gm4
 10
10.271280
 20
1.786910
  0
VERTEX
  8
gm4
 10
10.822470
 20
1.786910
  0
SEQEND
  8
gm4
  0
POLYLINE
  8
gm4
 62
1
 40
0.000000
 41
0.000000
 66
  1
  0
VERTEX
  8
gm4
 10
10.271280
 20
1.786910
  0
VERTEX
  8
gm4
 10
10.271280
 20
2.338090
  0
VERTEX
  8
gm4
 10
10.822470
 20
2.338090
  0
SEQEND
  8
gm4
  0
POLYLINE
  8
gm4
 62
1
 40
0.000000
 41
0.000000
 66
  1
  0
VERTEX
  8
gm4
 10
11.666220
 20
2.161910
  0
VERTEX
  8
gm4
 10
11.666220
 20
2.713090
  0
SEQEND
  8
gm4
  0
POLYLINE
  8
gm4
 62
1
 40
0.000000
 41
0.000000
 66
  1
  0
VERTEX
  8
gm4
 10
11.115030
 20
2.161910
  0
VERTEX
  8
gm4
 10
11.666220
 20
2.161910
  0
SEQEND
  8
gm4
  0
POLYLINE
  8
gm4
 62
1
 40
0.000000
 41
0.000000
 66
  1
  0
VERTEX
  8
gm4
 10
11.115030
 20
2.161910
  0
VERTEX
  8
gm4
 10
11.115030
 20
2.713090
  0
VERTEX
  8
gm4
 10
11.666220
 20
2.713090
  0
SEQEND
  8
gm4
  0
POLYLINE
  8
gm4
 62
1
 40
0.000000
 41
0.000000
 66
  1
  0
VERTEX
  8
gm4
 10
11.009970
 20
3.286910
  0
VERTEX
  8
gm4
 10
11.009970
 20
3.838090
  0
SEQEND
  8
gm4
  0
POLYLINE
  8
gm4
 62
1
 40
0.000000
 41
0.000000
 66
  1
  0
VERTEX
  8
gm4
 10
10.458780
 20
3.286910
  0
VERTEX
  8
gm4
 10
11.009970
 20
3.286910
  0
SEQEND
  8
gm4
  0
POLYLINE
  8
gm4
 62
1
 40
0.000000
 41
0.000000
 66
  1
  0
VERTEX
  8
gm4
 10
10.458780
 20
3.286910
  0
VERTEX
  8
gm4
 10
10.458780
 20
3.838090
  0
VERTEX
  8
gm4
 10
11.009970
 20
3.838090
  0
SEQEND
  8
gm4
  0
POLYLINE
  8
gm4
 62
1
 40
0.000000
 41
0.000000
 66
  1
  0
VERTEX
  8
gm4
 10
15.509970
 20
1.036910
  0
VERTEX
  8
gm4
 10
15.509970
 20
1.588090
  0
SEQEND
  8
gm4
  0
POLYLINE
  8
gm4
 62
1
 40
0.000000
 41
0.000000
 66
  1
  0
VERTEX
  8
gm4
 10
14.958780
 20
1.036910
  0
VERTEX
  8
gm4
 10
15.509970
 20
1.036910
  0
SEQEND
  8
gm4
  0
POLYLINE
  8
gm4
 62
1
 40
0.000000
 41
0.000000
 66
  1
  0
VERTEX
  8
gm4
 10
14.958780
 20
1.036910
  0
VERTEX
  8
gm4
 10
14.958780
 20
1.588090
  0
VERTEX
  8
gm4
 10
15.509970
 20
1.588090
  0
SEQEND
  8
gm4
  0
POLYLINE
  8
gm4
 62
1
 40
0.000000
 41
0.000000
 66
  1
  0
VERTEX
  8
gm4
 10
16.259970
 20
2.536910
  0
VERTEX
  8
gm4
 10
16.259970
 20
3.088090
  0
SEQEND
  8
gm4
  0
POLYLINE
  8
gm4
 62
1
 40
0.000000
 41
0.000000
 66
  1
  0
VERTEX
  8
gm4
 10
15.708780
 20
2.536910
  0
VERTEX
  8
gm4
 10
16.259970
 20
2.536910
  0
SEQEND
  8
gm4
  0
POLYLINE
  8
gm4
 62
1
 40
0.000000
 41
0.000000
 66
  1
  0
VERTEX
  8
gm4
 10
15.708780
 20
2.536910
  0
VERTEX
  8
gm4
 10
15.708780
 20
3.088090
  0
VERTEX
  8
gm4
 10
16.259970
 20
3.088090
  0
SEQEND
  8
gm4
  0
POLYLINE
  8
gm4
 62
1
 40
0.000000
 41
0.000000
 66
  1
  0
VERTEX
  8
gm4
 10
13.634970
 20
1.036910
  0
VERTEX
  8
gm4
 10
13.634970
 20
1.588090
  0
SEQEND
  8
gm4
  0
POLYLINE
  8
gm4
 62
1
 40
0.000000
 41
0.000000
 66
  1
  0
VERTEX
  8
gm4
 10
13.083780
 20
1.036910
  0
VERTEX
  8
gm4
 10
13.634970
 20
1.036910
  0
SEQEND
  8
gm4
  0
POLYLINE
  8
gm4
 62
1
 40
0.000000
 41
0.000000
 66
  1
  0
VERTEX
  8
gm4
 10
13.083780
 20
1.036910
  0
VERTEX
  8
gm4
 10
13.083780
 20
1.588090
  0
VERTEX
  8
gm4
 10
13.634970
 20
1.588090
  0
SEQEND
  8
gm4
  0
POLYLINE
  8
gm4
 62
1
 40
0.000000
 41
0.000000
 66
  1
  0
VERTEX
  8
gm4
 10
13.634970
 20
1.786910
  0
VERTEX
  8
gm4
 10
13.634970
 20
2.338090
  0
SEQEND
  8
gm4
  0
POLYLINE
  8
gm4
 62
1
 40
0.000000
 41
0.000000
 66
  1
  0
VERTEX
  8
gm4
 10
13.083780
 20
1.786910
  0
VERTEX
  8
gm4
 10
13.634970
 20
1.786910
  0
SEQEND
  8
gm4
  0
POLYLINE
  8
gm4
 62
1
 40
0.000000
 41
0.000000
 66
  1
  0
VERTEX
  8
gm4
 10
13.083780
 20
1.786910
  0
VERTEX
  8
gm4
 10
13.083780
 20
2.338090
  0
VERTEX
  8
gm4
 10
13.634970
 20
2.338090
  0
SEQEND
  8
gm4
  0
POLYLINE
  8
gm4
 62
1
 40
0.000000
 41
0.000000
 66
  1
  0
VERTEX
  8
gm4
 10
14.197470
 20
3.286910
  0
VERTEX
  8
gm4
 10
14.197470
 20
3.838090
  0
SEQEND
  8
gm4
  0
POLYLINE
  8
gm4
 62
1
 40
0.000000
 41
0.000000
 66
  1
  0
VERTEX
  8
gm4
 10
13.646280
 20
3.286910
  0
VERTEX
  8
gm4
 10
14.197470
 20
3.286910
  0
SEQEND
  8
gm4
  0
POLYLINE
  8
gm4
 62
1
 40
0.000000
 41
0.000000
 66
  1
  0
VERTEX
  8
gm4
 10
13.646280
 20
3.286910
  0
VERTEX
  8
gm4
 10
13.646280
 20
3.838090
  0
VERTEX
  8
gm4
 10
14.197470
 20
3.838090
  0
SEQEND
  8
gm4
  0
POLYLINE
  8
gm4
 62
1
 40
0.000000
 41
0.000000
 66
  1
  0
VERTEX
  8
gm4
 10
11.759970
 20
3.286910
  0
VERTEX
  8
gm4
 10
11.759970
 20
3.838090
  0
SEQEND
  8
gm4
  0
POLYLINE
  8
gm4
 62
1
 40
0.000000
 41
0.000000
 66
  1
  0
VERTEX
  8
gm4
 10
11.208780
 20
3.286910
  0
VERTEX
  8
gm4
 10
11.759970
 20
3.286910
  0
SEQEND
  8
gm4
  0
POLYLINE
  8
gm4
 62
1
 40
0.000000
 41
0.000000
 66
  1
  0
VERTEX
  8
gm4
 10
11.208780
 20
3.286910
  0
VERTEX
  8
gm4
 10
11.208780
 20
3.838090
  0
VERTEX
  8
gm4
 10
11.759970
 20
3.838090
  0
SEQEND
  8
gm4
  0
POLYLINE
  8
gm4
 62
1
 40
0.000000
 41
0.000000
 66
  1
  0
VERTEX
  8
gm4
 10
15.509970
 20
2.536910
  0
VERTEX
  8
gm4
 10
15.509970
 20
3.088090
  0
SEQEND
  8
gm4
  0
POLYLINE
  8
gm4
 62
1
 40
0.000000
 41
0.000000
 66
  1
  0
VERTEX
  8
gm4
 10
14.958780
 20
2.536910
  0
VERTEX
  8
gm4
 10
15.509970
 20
2.536910
  0
SEQEND
  8
gm4
  0
POLYLINE
  8
gm4
 62
1
 40
0.000000
 41
0.000000
 66
  1
  0
VERTEX
  8
gm4
 10
14.958780
 20
2.536910
  0
VERTEX
  8
gm4
 10
14.958780
 20
3.088090
  0
VERTEX
  8
gm4
 10
15.509970
 20
3.088090
  0
SEQEND
  8
gm4
  0
POLYLINE
  8
gm4
 62
1
 40
0.000000
 41
0.000000
 66
  1
  0
VERTEX
  8
gm4
 10
17.759970
 20
1.786910
  0
VERTEX
  8
gm4
 10
17.759970
 20
2.338090
  0
SEQEND
  8
gm4
  0
POLYLINE
  8
gm4
 62
1
 40
0.000000
 41
0.000000
 66
  1
  0
VERTEX
  8
gm4
 10
17.208780
 20
1.786910
  0
VERTEX
  8
gm4
 10
17.759970
 20
1.786910
  0
SEQEND
  8
gm4
  0
POLYLINE
  8
gm4
 62
1
 40
0.000000
 41
0.000000
 66
  1
  0
VERTEX
  8
gm4
 10
17.208780
 20
1.786910
  0
VERTEX
  8
gm4
 10
17.208780
 20
2.338090
  0
VERTEX
  8
gm4
 10
17.759970
 20
2.338090
  0
SEQEND
  8
gm4
  0
POLYLINE
  8
gm4
 62
1
 40
0.000000
 41
0.000000
 66
  1
  0
VERTEX
  8
gm4
 10
14.384970
 20
1.036910
  0
VERTEX
  8
gm4
 10
14.384970
 20
1.588090
  0
SEQEND
  8
gm4
  0
POLYLINE
  8
gm4
 62
1
 40
0.000000
 41
0.000000
 66
  1
  0
VERTEX
  8
gm4
 10
13.833780
 20
1.036910
  0
VERTEX
  8
gm4
 10
14.384970
 20
1.036910
  0
SEQEND
  8
gm4
  0
POLYLINE
  8
gm4
 62
1
 40
0.000000
 41
0.000000
 66
  1
  0
VERTEX
  8
gm4
 10
13.833780
 20
1.036910
  0
VERTEX
  8
gm4
 10
13.833780
 20
1.588090
  0
VERTEX
  8
gm4
 10
14.384970
 20
1.588090
  0
SEQEND
  8
gm4
  0
POLYLINE
  8
gm4
 62
1
 40
0.000000
 41
0.000000
 66
  1
  0
VERTEX
  8
gm4
 10
15.509970
 20
1.786910
  0
VERTEX
  8
gm4
 10
15.509970
 20
2.338090
  0
SEQEND
  8
gm4
  0
POLYLINE
  8
gm4
 62
1
 40
0.000000
 41
0.000000
 66
  1
  0
VERTEX
  8
gm4
 10
14.958780
 20
1.786910
  0
VERTEX
  8
gm4
 10
15.509970
 20
1.786910
  0
SEQEND
  8
gm4
  0
POLYLINE
  8
gm4
 62
1
 40
0.000000
 41
0.000000
 66
  1
  0
VERTEX
  8
gm4
 10
14.958780
 20
1.786910
  0
VERTEX
  8
gm4
 10
14.958780
 20
2.338090
  0
VERTEX
  8
gm4
 10
15.509970
 20
2.338090
  0
SEQEND
  8
gm4
  0
POLYLINE
  8
gm4
 62
1
 40
0.000000
 41
0.000000
 66
  1
  0
VERTEX
  8
gm4
 10
17.009970
 20
1.786910
  0
VERTEX
  8
gm4
 10
17.009970
 20
2.338090
  0
SEQEND
  8
gm4
  0
POLYLINE
  8
gm4
 62
1
 40
0.000000
 41
0.000000
 66
  1
  0
VERTEX
  8
gm4
 10
16.458780
 20
1.786910
  0
VERTEX
  8
gm4
 10
17.009970
 20
1.786910
  0
SEQEND
  8
gm4
  0
POLYLINE
  8
gm4
 62
1
 40
0.000000
 41
0.000000
 66
  1
  0
VERTEX
  8
gm4
 10
16.458780
 20
1.786910
  0
VERTEX
  8
gm4
 10
16.458780
 20
2.338090
  0
VERTEX
  8
gm4
 10
17.009970
 20
2.338090
  0
SEQEND
  8
gm4
  0
POLYLINE
  8
gm4
 62
1
 40
0.000000
 41
0.000000
 66
  1
  0
VERTEX
  8
gm4
 10
13.072470
 20
3.286910
  0
VERTEX
  8
gm4
 10
13.072470
 20
3.838090
  0
SEQEND
  8
gm4
  0
POLYLINE
  8
gm4
 62
1
 40
0.000000
 41
0.000000
 66
  1
  0
VERTEX
  8
gm4
 10
12.521280
 20
3.286910
  0
VERTEX
  8
gm4
 10
13.072470
 20
3.286910
  0
SEQEND
  8
gm4
  0
POLYLINE
  8
gm4
 62
1
 40
0.000000
 41
0.000000
 66
  1
  0
VERTEX
  8
gm4
 10
12.521280
 20
3.286910
  0
VERTEX
  8
gm4
 10
12.521280
 20
3.838090
  0
VERTEX
  8
gm4
 10
13.072470
 20
3.838090
  0
SEQEND
  8
gm4
  0
POLYLINE
  8
gm4
 62
1
 40
0.000000
 41
0.000000
 66
  1
  0
VERTEX
  8
gm4
 10
16.259970
 20
1.786910
  0
VERTEX
  8
gm4
 10
16.259970
 20
2.338090
  0
SEQEND
  8
gm4
  0
POLYLINE
  8
gm4
 62
1
 40
0.000000
 41
0.000000
 66
  1
  0
VERTEX
  8
gm4
 10
15.708780
 20
1.786910
  0
VERTEX
  8
gm4
 10
16.259970
 20
1.786910
  0
SEQEND
  8
gm4
  0
POLYLINE
  8
gm4
 62
1
 40
0.000000
 41
0.000000
 66
  1
  0
VERTEX
  8
gm4
 10
15.708780
 20
1.786910
  0
VERTEX
  8
gm4
 10
15.708780
 20
2.338090
  0
VERTEX
  8
gm4
 10
16.259970
 20
2.338090
  0
SEQEND
  8
gm4
  0
POLYLINE
  8
gm4
 62
1
 40
0.000000
 41
0.000000
 66
  1
  0
VERTEX
  8
gm4
 10
18.093750
 20
4.803150
  0
VERTEX
  8
gm4
 10
18.093750
 20
5.554690
  0
SEQEND
  8
gm4
  0
POLYLINE
  8
gm4
 62
1
 40
0.000000
 41
0.000000
 66
  1
  0
VERTEX
  8
gm4
 10
18.093750
 20
0.000000
  0
VERTEX
  8
gm4
 10
18.093750
 20
4.606300
  0
SEQEND
  8
gm4
  0
POLYLINE
  8
gm4
 62
1
 40
0.000000
 41
0.000000
 66
  1
  0
VERTEX
  8
gm4
 10
17.936270
 20
4.606300
  0
VERTEX
  8
gm4
 10
18.093750
 20
4.606300
  0
SEQEND
  8
gm4
  0
POLYLINE
  8
gm4
 62
1
 40
0.000000
 41
0.000000
 66
  1
  0
VERTEX
  8
gm4
 10
17.936270
 20
4.606300
  0
VERTEX
  8
gm4
 10
17.936270
 20
4.803150
  0
VERTEX
  8
gm4
 10
18.093750
 20
4.803150
  0
SEQEND
  8
gm4
  0
POLYLINE
  8
gm4
 62
1
 40
0.000000
 41
0.000000
 66
  1
  0
VERTEX
  8
gm4
 10
0.000000
 20
0.000000
  0
VERTEX
  8
gm4
 10
18.093750
 20
0.000000
  0
SEQEND
  8
gm4
  0
POLYLINE
  8
gm4
 62
1
 40
0.000000
 41
0.000000
 66
  1
  0
VERTEX
  8
gm4
 10
0.000000
 20
0.000000
  0
VERTEX
  8
gm4
 10
0.000000
 20
5.554690
  0
VERTEX
  8
gm4
 10
18.093750
 20
5.554690
  0
SEQEND
  8
gm4
  0
ENDSEC
  0
EOF
